<svg width="80" height="40" viewBox="0 0 103 49" fill="none" xmlns="http://www.w3.org/2000/svg">
<path d="M2 10.5911C2 6.16466 4.10958 0.629112 10.0281 2.3075C17.7638 4.50121 15.4631 20.4661 14.845 26.0634C14.5119 29.08 11.5924 50.9287 4.66388 45.7323C0.668046 42.7355 8.29996 26.7572 10.8309 35.0403C12.079 39.1249 12.1933 44.4444 16.8155 46.2797C20.6616 47.8068 23.8317 46.3168 26.3033 43.4334" stroke="black" stroke-width="2" stroke-linecap="round"/>
<path d="M36.8129 4.02267C31.4083 10.4098 31.2956 19.8318 31.1202 27.8151C30.9976 33.3936 30.8736 40.1109 34.222 44.9661C39.8494 53.1258 44.8095 34.2023 45.7168 31.1723C47.4082 25.5236 50.7655 -4.84119 37.4697 4.02267" stroke="black" stroke-width="2" stroke-linecap="round"/>
<path d="M60.0963 20.8929C61.986 17.4823 63.8004 14.0407 65.57 10.5658C66.7481 8.25262 68.6925 1.17135 69.2557 3.70545C70.114 7.56778 69.2922 12.5171 69.2922 16.441C69.2922 22.7972 69.4735 29.0721 69.803 35.4165C69.9806 38.8345 69.5092 42.5631 70.6059 45.8531" stroke="black" stroke-width="2" stroke-linecap="round"/>
<path d="M81 5.49709C84.3422 5.49709 96.0476 1.43355 97.7881 3.67387C98.9381 5.15418 95.0509 13.5881 94.6708 15.1933C92.7437 23.3316 90.5308 31.3461 88.4363 39.4339C88.007 41.0917 86.4082 51.1906 86.4082 45.0278" stroke="black" stroke-width="2" stroke-linecap="round"/>
<path d="M82.4291 26.8045C88.798 26.2738 95.127 25.5396 101.478 24.834" stroke="black" stroke-width="2" stroke-linecap="round"/>
</svg>
