<svg width="80" height="20" viewBox="0 0 174 53" fill="none" xmlns="http://www.w3.org/2000/svg">
<path d="M2 6.43396C2 4.8161 28.9534 0.226681 28.439 5.37072C27.4945 14.8158 13.2179 19.9532 11.2147 29.6833C6.30979 53.507 31.6564 51.0897 47.9316 51.0897" stroke="black" stroke-width="3" stroke-linecap="round"/>
<path d="M69.8418 4.46655C58.8748 4.46655 61.3077 18.7845 61.3077 26.3505C61.3077 31.3694 61.01 36.5167 64.6265 40.5454C67.0935 43.2937 73.9328 50.3196 78.3759 49.1544C87.6258 46.7288 86.2877 23.1107 85.5554 16.3614C84.5072 6.69898 80.3325 3.28363 71.061 3.28363" stroke="black" stroke-width="3" stroke-linecap="round"/>
<path d="M124.961 3.96022C125.937 -0.297846 123.502 17.1991 123.503 19.3008C123.508 28.4155 123.959 37.5346 123.648 46.6459C123.549 49.5476 123.404 50.4232 124.818 48.1017" stroke="black" stroke-width="3" stroke-linecap="round"/>
<path d="M152 6.82995C156.002 5.16539 165.505 0.287343 170.076 2.62062C172.682 3.95083 171.904 9.9646 171.85 12.3119C171.556 25.0673 166.672 37.1096 166.672 50" stroke="black" stroke-width="3" stroke-linecap="round"/>
</svg>
