<svg width="180" height="40" viewBox="0 0 105 49" fill="none" xmlns="http://www.w3.org/2000/svg">
<path d="M2 10.1589C2 5.73253 4.10958 0.196983 10.0281 1.87537C17.7638 4.06908 15.4631 20.0339 14.845 25.6313C14.5119 28.6478 11.5924 50.4966 4.66388 45.3002C0.668046 42.3033 8.29996 26.325 10.8309 34.6082C12.079 38.6928 12.1933 44.0123 16.8155 45.8476C20.6616 47.3747 23.8317 45.8847 26.3033 43.0012" stroke="black" stroke-width="2" stroke-linecap="round"/>
<path d="M36.8129 3.59054C31.4083 9.97769 31.2956 19.3997 31.1202 27.383C30.9976 32.9615 30.8736 39.6788 34.222 44.5339C39.8494 52.6937 44.8095 33.7701 45.7168 30.7402C47.4082 25.0915 50.7655 -5.27332 37.4697 3.59054" stroke="black" stroke-width="2" stroke-linecap="round"/>
<path d="M60 19.7274C61.8897 16.3168 63.7041 12.8751 65.4737 9.40032C66.6517 7.08709 68.5962 0.00582635 69.1594 2.53992C70.0176 6.40225 69.1958 11.3515 69.1958 15.2754C69.1958 21.6317 69.3771 27.9066 69.7067 34.251C69.8843 37.669 69.4129 41.3976 70.5095 44.6875" stroke="black" stroke-width="2" stroke-linecap="round"/>
<path d="M88.4792 2.87994C81.1647 3.15432 79.2593 13.6286 82.5696 18.7942C86.8194 25.4257 95.3784 20.4846 98.2698 15.5253C100.827 11.14 103.59 3.263 96.4176 2.27778C91.2794 1.572 86.1895 1.92672 83.7163 6.75097" stroke="black" stroke-width="2" stroke-linecap="round"/>
<path d="M89.1192 22.8131C77.8425 22.8131 83.6757 50.149 94.3065 41.2006C98.3701 37.7801 106.452 26.6042 101.376 21.0418C96.7372 15.9582 91.3018 21.5391 88.3662 25.0904" stroke="black" stroke-width="2" stroke-linecap="round"/>
</svg>
