<svg width="80" height="20" viewBox="0 0 182 53" fill="none" xmlns="http://www.w3.org/2000/svg">
<path d="M2 5.15033C2 3.53246 28.9534 -1.05695 28.439 4.08709C27.4945 13.5322 13.2179 18.6696 11.2147 28.3997C6.30979 52.2233 31.6564 49.806 47.9316 49.806" stroke="black" stroke-width="3" stroke-linecap="round"/>
<path d="M69.8418 3.18291C58.8748 3.18291 61.3077 17.5009 61.3077 25.0668C61.3077 30.0858 61.01 35.2331 64.6265 39.2618C67.0935 42.0101 73.9328 49.0359 78.3759 47.8708C87.6258 45.4452 86.2877 21.8271 85.5554 15.0778C84.5072 5.41535 80.3325 2 71.061 2" stroke="black" stroke-width="3" stroke-linecap="round"/>
<path d="M124.961 2.67659C125.937 -1.58148 123.502 15.9154 123.503 18.0171C123.508 27.1319 123.959 36.2509 123.648 45.3623C123.549 48.264 123.404 49.1396 124.818 46.818" stroke="black" stroke-width="3" stroke-linecap="round"/>
<path d="M172.368 2.53829C178.973 -0.569787 182.4 10.5918 179.173 15.2971C174.048 22.7716 163.146 23.5461 158.334 30.8911C156.042 34.3894 150.284 45.191 154.506 49.1787C158.521 52.9703 176.434 48.767 178.748 43.7917C182.956 34.7441 176.923 31.9803 169.533 26.78C164.483 23.2265 162.38 20.9934 158.617 16.2894C155.838 12.8149 159.27 7.16999 161.594 5.09005C164.525 2.46812 171.162 3.81417 174.92 3.81417" stroke="black" stroke-width="3" stroke-linecap="round"/>
</svg>
