<svg width="80" height="40" viewBox="0 0 104 49" fill="none" xmlns="http://www.w3.org/2000/svg">
<path d="M2 10.5911C2 6.16466 4.10958 0.629112 10.0281 2.3075C17.7638 4.50121 15.4631 20.4661 14.845 26.0634C14.5119 29.08 11.5924 50.9287 4.66388 45.7323C0.668046 42.7355 8.29996 26.7572 10.8309 35.0403C12.079 39.1249 12.1933 44.4444 16.8155 46.2797C20.6616 47.8068 23.8317 46.3168 26.3033 43.4334" stroke="black" stroke-width="2" stroke-linecap="round"/>
<path d="M36.8129 4.02267C31.4083 10.4098 31.2956 19.8318 31.1202 27.8151C30.9976 33.3936 30.8736 40.1109 34.222 44.9661C39.8494 53.1258 44.8095 34.2023 45.7168 31.1723C47.4082 25.5236 50.7655 -4.84119 37.4697 4.02267" stroke="black" stroke-width="2" stroke-linecap="round"/>
<path d="M60 20.1595C61.8897 16.7489 63.7041 13.3073 65.4737 9.83244C66.6517 7.51922 68.5962 0.437955 69.1594 2.97205C70.0176 6.83438 69.1958 11.7837 69.1958 15.7076C69.1958 22.0638 69.3771 28.3387 69.7067 34.6831C69.8843 38.1011 69.4129 41.8297 70.5095 45.1197" stroke="black" stroke-width="2" stroke-linecap="round"/>
<path d="M102 4.587C94.3821 -5.22415 70.6573 15.5217 83.9892 22.7215C96.2786 29.3582 102 16.8437 102 6.83275C102 1.40815 102 1.45132 102 7.45033C102 19.6336 102 31.8168 102 44" stroke="black" stroke-width="2" stroke-linecap="round"/>
</svg>
