<svg width="80" height="20" viewBox="0 0 182 56" fill="none" xmlns="http://www.w3.org/2000/svg">
<path d="M2 9.15033C2 7.53246 28.9534 2.94305 28.439 8.08709C27.4945 17.5322 13.2179 22.6696 11.2147 32.3997C6.30979 56.2233 31.6564 53.806 47.9316 53.806" stroke="black" stroke-width="3" stroke-linecap="round"/>
<path d="M69.8418 7.18291C58.8748 7.18291 61.3077 21.5009 61.3077 29.0668C61.3077 34.0858 61.01 39.2331 64.6265 43.2618C67.0935 46.0101 73.9328 53.0359 78.3759 51.8708C87.6258 49.4452 86.2877 25.8271 85.5554 19.0778C84.5072 9.41535 80.3325 6 71.061 6" stroke="black" stroke-width="3" stroke-linecap="round"/>
<path d="M124.961 6.67659C125.937 2.41852 123.502 19.9154 123.503 22.0171C123.508 31.1319 123.959 40.2509 123.648 49.3623C123.549 52.264 123.404 53.1396 124.818 50.818" stroke="black" stroke-width="3" stroke-linecap="round"/>
<path d="M180 54C179.875 43.1926 177.782 33.2443 176.684 22.6162C176.081 16.77 176.819 11.3632 173.502 6.20202C171.224 2.65764 170.611 2 165.677 2C158.185 2 148.359 5.52972 149.033 14.5404C149.621 22.3962 156.288 24.4545 163.223 24.4545C169.678 24.4545 172.509 22.2027 176.419 17.3636" stroke="black" stroke-width="3" stroke-linecap="round"/>
</svg>
