<svg width="80" height="40" viewBox="0 0 107 49" fill="none" xmlns="http://www.w3.org/2000/svg">
<path d="M2 10.5911C2 6.16466 4.10958 0.629112 10.0281 2.3075C17.7638 4.50121 15.4631 20.4661 14.845 26.0634C14.5119 29.08 11.5924 50.9287 4.66388 45.7323C0.668046 42.7355 8.29996 26.7572 10.8309 35.0403C12.079 39.1249 12.1933 44.4444 16.8155 46.2797C20.6616 47.8068 23.8317 46.3168 26.3033 43.4334" stroke="black" stroke-width="2" stroke-linecap="round"/>
<path d="M60 10.5911C60 6.16466 62.1096 0.629112 68.0281 2.3075C75.7638 4.50121 73.4631 20.4661 72.845 26.0634C72.5119 29.08 69.5924 50.9287 62.6639 45.7323C58.668 42.7355 66.3 26.7572 68.8309 35.0403C70.079 39.1249 70.1933 44.4444 74.8155 46.2797C78.6616 47.8068 81.8317 46.3168 84.3033 43.4334" stroke="black" stroke-width="2" stroke-linecap="round"/>
<path d="M36.8129 4.02267C31.4083 10.4098 31.2956 19.8318 31.1202 27.8151C30.9976 33.3936 30.8736 40.1109 34.222 44.9661C39.8494 53.1258 44.8095 34.2023 45.7168 31.1723C47.4082 25.5236 50.7655 -4.84119 37.4697 4.02267" stroke="black" stroke-width="2" stroke-linecap="round"/>
<path d="M94.8129 4.02267C89.4083 10.4098 89.2956 19.8318 89.1202 27.8151C88.9976 33.3936 88.8736 40.1109 92.222 44.9661C97.8494 53.1258 102.809 34.2023 103.717 31.1723C105.408 25.5236 108.765 -4.84119 95.4697 4.02267" stroke="black" stroke-width="2" stroke-linecap="round"/>
</svg>
