<svg width="80" height="20" viewBox="0 0 185 53" fill="none" xmlns="http://www.w3.org/2000/svg">
<path d="M1.92212 6.15033C1.92212 4.53246 28.8755 -0.0569499 28.3611 5.08709C27.4166 14.5322 13.14 19.6696 11.1368 29.3997C6.23191 53.2233 31.5786 50.806 47.8537 50.806" stroke="black" stroke-width="3" stroke-linecap="round"/>
<path d="M69.7639 4.18291C58.7969 4.18291 61.2298 18.5009 61.2298 26.0668C61.2298 31.0858 60.9322 36.2331 64.5486 40.2618C67.0156 43.0101 73.8549 50.0359 78.298 48.8708C87.5479 46.4452 86.2098 22.8271 85.4776 16.0778C84.4293 6.41535 80.2546 3 70.9831 3" stroke="black" stroke-width="3" stroke-linecap="round"/>
<path d="M110 8.23502C111.498 -0.331019 130.042 1.51606 135.218 4.45832C148.392 11.9466 127.832 23.3792 123.504 27.529C118.788 32.0506 111.729 42.0431 119.192 47.3157C128.636 53.9873 141.224 50.2465 151 46.6589" stroke="black" stroke-width="3" stroke-linecap="round"/>
<path d="M174.961 5.67659C175.937 1.41852 173.502 18.9154 173.503 21.0171C173.508 30.1319 173.959 39.2509 173.648 48.3623C173.549 51.264 173.404 52.1396 174.818 49.818" stroke="black" stroke-width="3" stroke-linecap="round"/>
</svg>
