<svg width="80" height="20" viewBox="0 0 205 53" fill="none" xmlns="http://www.w3.org/2000/svg">
<path d="M2 6.15026C2 4.5324 28.9534 -0.0570109 28.439 5.08703C27.4945 14.5321 13.2179 19.6696 11.2147 29.3996C6.30979 53.2233 31.6564 50.806 47.9316 50.806" stroke="black" stroke-width="3" stroke-linecap="round"/>
<path d="M69.8418 4.18291C58.8748 4.18291 61.3077 18.5009 61.3077 26.0668C61.3077 31.0858 61.01 36.2331 64.6265 40.2618C67.0935 43.0101 73.9328 50.0359 78.3759 48.8708C87.6258 46.4452 86.2877 22.8271 85.5554 16.0778C84.5072 6.41535 80.3325 3 71.061 3" stroke="black" stroke-width="3" stroke-linecap="round"/>
<path d="M110.078 8.23502C111.576 -0.331019 130.12 1.51606 135.296 4.45832C148.47 11.9466 127.91 23.3792 123.582 27.529C118.866 32.0506 111.807 42.0431 119.27 47.3157C128.714 53.9873 141.302 50.2465 151.078 46.6589" stroke="black" stroke-width="3" stroke-linecap="round"/>
<path d="M162 8.23502C163.498 -0.331019 182.042 1.51606 187.218 4.45832C200.392 11.9466 179.832 23.3792 175.504 27.529C170.788 32.0506 163.729 42.0431 171.192 47.3157C180.636 53.9873 193.224 50.2465 203 46.6589" stroke="black" stroke-width="3" stroke-linecap="round"/>
</svg>
