<svg width="514" height="81" viewBox="0 0 514 81" fill="none" xmlns="http://www.w3.org/2000/svg">
<path d="M1.87622 71.1486C2.39531 72.9654 12.1136 65.5797 13.2174 64.9818C22.4202 59.9969 22.673 68.4692 27.3938 74.7635C36.0276 86.2753 54.5616 72.7336 62.2678 66.8956C65.3347 64.5722 69.2955 62.1085 73.3254 62.2174C78.2607 62.3508 80.9705 67.1008 85.3753 68.5968C95.1282 71.9091 105.79 69.2489 115.429 67.3209" stroke="black" stroke-width="3" stroke-linecap="round"/>
<path d="M139.671 64.7692C139.671 59.0255 129.691 60.2388 125.636 61.225C119.695 62.6703 121.64 69.2675 126.983 69.8018C136.238 70.7273 142.829 62.3592 151.225 62.3592C157.33 62.3592 163.452 66.7419 169.016 68.5968" stroke="black" stroke-width="3" stroke-linecap="round"/>
<path d="M202.189 8.63055C202.189 27.1522 202.831 46.5258 194.25 63.4933C190.891 70.1348 187.519 74.9762 179.861 74.9762C175.273 74.9762 175.396 68.7617 175.396 65.4071C175.396 57.0667 192.07 59.6657 197.085 59.6657" stroke="black" stroke-width="3" stroke-linecap="round"/>
<path d="M212.396 64.7692C212.708 67.2682 227.451 67.259 228.841 64.1312C230.759 59.8152 223.474 59.6656 221.327 59.6656C215.299 59.6656 208.008 67.3308 211.971 73.4168C219.098 84.3625 242.427 74.4466 250.672 71.1485" stroke="black" stroke-width="3" stroke-linecap="round"/>
<path d="M336.156 63.4933C342.438 64.2323 343.053 79.4328 351.538 75.8976C354.38 74.7132 368.152 57.0219 369.967 59.2404C373.24 63.241 371.428 74.8898 378.26 75.9685C385.965 77.1851 393.593 62.204 399.95 58.3898" stroke="black" stroke-width="3" stroke-linecap="round"/>
<path d="M408.881 60.9415C408.881 67.2716 409.789 70.1807 413.985 74.9762" stroke="black" stroke-width="3" stroke-linecap="round"/>
<path d="M443.33 2.25116C442.706 22.207 431.757 41.9141 435.958 62.2174C438.226 73.18 451.952 71.501 458.64 67.3209" stroke="black" stroke-width="3" stroke-linecap="round"/>
<path d="M420.364 46.9069C428.888 46.6129 437.323 45.6841 445.882 45.631C450.608 45.6016 455.917 46.355 459.916 44.3551" stroke="black" stroke-width="3" stroke-linecap="round"/>
<path d="M472.675 11.1823C472.675 27.3546 473.617 43.8377 472.037 59.9492C471.987 60.4571 470.697 69.9323 471.683 70.0144C473.051 70.1285 478.931 63.896 480.259 62.9971C491.932 55.1013 500.638 65.3893 512.227 67.3209" stroke="black" stroke-width="3" stroke-linecap="round"/>
<path d="M407.605 49.4586C407.605 51.2354 407.177 51.8709 408.881 50.7345" stroke="black" stroke-width="3" stroke-linecap="round"/>
</svg>
