<svg width="444" height="242" viewBox="0 0 444 242" fill="none" xmlns="http://www.w3.org/2000/svg">
<circle cx="261.589" cy="17.0571" r="7.64155" fill="black"/>
<circle cx="286.424" cy="17.0571" r="7.64155" fill="black"/>
<circle cx="311.259" cy="17.0571" r="7.64155" fill="black"/>
<circle cx="336.094" cy="17.0571" r="7.64155" fill="black"/>
<circle cx="360.929" cy="17.0571" r="7.64155" fill="black"/>
<circle cx="385.764" cy="17.0571" r="7.64155" fill="black"/>
<circle cx="410.599" cy="17.0571" r="7.14155" stroke="black"/>
<circle cx="435.434" cy="17.0571" r="7.14155" stroke="black"/>
<circle cx="261.589" cy="101.114" r="7.64155" fill="black"/>
<circle cx="286.424" cy="101.114" r="7.64155" fill="black"/>
<circle cx="311.259" cy="101.114" r="7.64155" fill="black"/>
<circle cx="336.094" cy="101.114" r="7.64155" fill="black"/>
<circle cx="360.929" cy="101.114" r="7.14155" stroke="black"/>
<circle cx="385.764" cy="101.114" r="7.14155" stroke="black"/>
<circle cx="410.599" cy="101.114" r="7.14155" stroke="black"/>
<circle cx="435.434" cy="101.114" r="7.14155" stroke="black"/>
<circle cx="261.589" cy="185.171" r="7.64155" fill="black"/>
<circle cx="286.424" cy="185.171" r="7.64155" fill="black"/>
<circle cx="311.259" cy="185.171" r="7.64155" fill="black"/>
<circle cx="336.094" cy="185.171" r="7.14155" stroke="black"/>
<circle cx="360.929" cy="185.171" r="7.14155" stroke="black"/>
<circle cx="385.764" cy="185.171" r="7.14155" stroke="black"/>
<circle cx="410.599" cy="185.171" r="7.14155" stroke="black"/>
<circle cx="435.434" cy="185.171" r="7.14155" stroke="black"/>
<circle cx="261.589" cy="59.0855" r="7.64155" fill="black"/>
<circle cx="286.424" cy="59.0855" r="7.64155" fill="black"/>
<circle cx="311.259" cy="59.0855" r="7.64155" fill="black"/>
<circle cx="336.094" cy="59.0855" r="7.64155" fill="black"/>
<circle cx="360.929" cy="59.0855" r="7.64155" fill="black"/>
<circle cx="385.764" cy="59.0855" r="7.64155" fill="black"/>
<circle cx="410.599" cy="59.0855" r="7.14155" stroke="black"/>
<circle cx="435.434" cy="59.0855" r="7.14155" stroke="black"/>
<circle cx="261.589" cy="143.143" r="7.64155" fill="black"/>
<circle cx="286.424" cy="143.143" r="7.64155" fill="black"/>
<circle cx="311.259" cy="143.143" r="7.64155" fill="black"/>
<circle cx="336.094" cy="143.143" r="7.64155" fill="black"/>
<circle cx="360.929" cy="143.143" r="7.64155" fill="black"/>
<circle cx="385.764" cy="143.143" r="7.64155" fill="black"/>
<circle cx="410.599" cy="143.143" r="7.14155" stroke="black"/>
<circle cx="435.434" cy="143.143" r="7.14155" stroke="black"/>
<circle cx="261.589" cy="227.2" r="7.64155" fill="black"/>
<circle cx="286.424" cy="227.2" r="7.64155" fill="black"/>
<circle cx="311.259" cy="227.2" r="7.64155" fill="black"/>
<circle cx="336.094" cy="227.2" r="7.64155" fill="black"/>
<circle cx="360.929" cy="227.2" r="7.64155" fill="black"/>
<circle cx="385.764" cy="227.2" r="7.64155" fill="black"/>
<circle cx="410.599" cy="227.2" r="7.14155" stroke="black"/>
<circle cx="435.434" cy="227.2" r="7.14155" stroke="black"/>
<path d="M9.954 18.634H2.934L1.422 22H0.036L5.796 9.4H7.11L12.87 22H11.466L9.954 18.634ZM9.468 17.554L6.444 10.786L3.42 17.554H9.468ZM14.9543 9.4H20.0843C21.4163 9.4 22.5923 9.67 23.6123 10.21C24.6323 10.738 25.4243 11.482 25.9883 12.442C26.5523 13.39 26.8343 14.476 26.8343 15.7C26.8343 16.924 26.5523 18.016 25.9883 18.976C25.4243 19.924 24.6323 20.668 23.6123 21.208C22.5923 21.736 21.4163 22 20.0843 22H14.9543V9.4ZM20.0123 20.848C21.1163 20.848 22.0823 20.632 22.9103 20.2C23.7383 19.756 24.3803 19.15 24.8363 18.382C25.2923 17.602 25.5203 16.708 25.5203 15.7C25.5203 14.692 25.2923 13.804 24.8363 13.036C24.3803 12.256 23.7383 11.65 22.9103 11.218C22.0823 10.774 21.1163 10.552 20.0123 10.552H16.2863V20.848H20.0123ZM35.3334 22.108C34.0854 22.108 32.9514 21.832 31.9314 21.28C30.9234 20.716 30.1314 19.948 29.5554 18.976C28.9914 18.004 28.7094 16.912 28.7094 15.7C28.7094 14.488 28.9914 13.396 29.5554 12.424C30.1314 11.452 30.9234 10.69 31.9314 10.138C32.9514 9.574 34.0854 9.292 35.3334 9.292C36.5814 9.292 37.7034 9.568 38.6994 10.12C39.7074 10.672 40.4994 11.44 41.0754 12.424C41.6514 13.396 41.9394 14.488 41.9394 15.7C41.9394 16.912 41.6514 18.01 41.0754 18.994C40.4994 19.966 39.7074 20.728 38.6994 21.28C37.7034 21.832 36.5814 22.108 35.3334 22.108ZM35.3334 20.92C36.3294 20.92 37.2294 20.698 38.0334 20.254C38.8374 19.798 39.4674 19.174 39.9234 18.382C40.3794 17.578 40.6074 16.684 40.6074 15.7C40.6074 14.716 40.3794 13.828 39.9234 13.036C39.4674 12.232 38.8374 11.608 38.0334 11.164C37.2294 10.708 36.3294 10.48 35.3334 10.48C34.3374 10.48 33.4314 10.708 32.6154 11.164C31.8114 11.608 31.1754 12.232 30.7074 13.036C30.2514 13.828 30.0234 14.716 30.0234 15.7C30.0234 16.684 30.2514 17.578 30.7074 18.382C31.1754 19.174 31.8114 19.798 32.6154 20.254C33.4314 20.698 34.3374 20.92 35.3334 20.92ZM52.863 15.502C53.691 15.682 54.327 16.042 54.771 16.582C55.227 17.11 55.455 17.794 55.455 18.634C55.455 19.714 55.053 20.548 54.249 21.136C53.457 21.712 52.281 22 50.721 22H44.925V9.4H50.361C51.765 9.4 52.851 9.682 53.619 10.246C54.399 10.81 54.789 11.608 54.789 12.64C54.789 13.336 54.615 13.93 54.267 14.422C53.931 14.902 53.463 15.262 52.863 15.502ZM46.257 10.498V15.07H50.271C51.291 15.07 52.077 14.878 52.629 14.494C53.181 14.098 53.457 13.528 53.457 12.784C53.457 12.04 53.181 11.476 52.629 11.092C52.077 10.696 51.291 10.498 50.271 10.498H46.257ZM50.703 20.902C51.831 20.902 52.683 20.71 53.259 20.326C53.835 19.942 54.123 19.342 54.123 18.526C54.123 16.954 52.983 16.168 50.703 16.168H46.257V20.902H50.703ZM67.4054 20.848V22H58.4954V9.4H67.1354V10.552H59.8274V15.034H66.3434V16.168H59.8274V20.848H67.4054ZM75.2473 9.4H76.5793V22H75.2473V9.4ZM80.679 9.4H82.011V20.848H89.067V22H80.679V9.4ZM91.2786 9.4H92.6106V20.848H99.6666V22H91.2786V9.4ZM106.726 22.108C105.094 22.108 103.822 21.64 102.91 20.704C101.998 19.768 101.542 18.406 101.542 16.618V9.4H102.874V16.564C102.874 18.028 103.204 19.12 103.864 19.84C104.524 20.56 105.478 20.92 106.726 20.92C107.986 20.92 108.946 20.56 109.606 19.84C110.266 19.12 110.596 18.028 110.596 16.564V9.4H111.892V16.618C111.892 18.406 111.436 19.768 110.524 20.704C109.624 21.64 108.358 22.108 106.726 22.108ZM119.38 22.108C118.444 22.108 117.544 21.958 116.68 21.658C115.828 21.358 115.168 20.962 114.7 20.47L115.222 19.444C115.678 19.9 116.284 20.272 117.04 20.56C117.796 20.836 118.576 20.974 119.38 20.974C120.508 20.974 121.354 20.77 121.918 20.362C122.482 19.942 122.764 19.402 122.764 18.742C122.764 18.238 122.608 17.836 122.296 17.536C121.996 17.236 121.624 17.008 121.18 16.852C120.736 16.684 120.118 16.504 119.326 16.312C118.378 16.072 117.622 15.844 117.058 15.628C116.494 15.4 116.008 15.058 115.6 14.602C115.204 14.146 115.006 13.528 115.006 12.748C115.006 12.112 115.174 11.536 115.51 11.02C115.846 10.492 116.362 10.072 117.058 9.76C117.754 9.448 118.618 9.292 119.65 9.292C120.37 9.292 121.072 9.394 121.756 9.598C122.452 9.79 123.052 10.06 123.556 10.408L123.106 11.47C122.578 11.122 122.014 10.864 121.414 10.696C120.814 10.516 120.226 10.426 119.65 10.426C118.546 10.426 117.712 10.642 117.148 11.074C116.596 11.494 116.32 12.04 116.32 12.712C116.32 13.216 116.47 13.624 116.77 13.936C117.082 14.236 117.466 14.47 117.922 14.638C118.39 14.794 119.014 14.968 119.794 15.16C120.718 15.388 121.462 15.616 122.026 15.844C122.602 16.06 123.088 16.396 123.484 16.852C123.88 17.296 124.078 17.902 124.078 18.67C124.078 19.306 123.904 19.888 123.556 20.416C123.22 20.932 122.698 21.346 121.99 21.658C121.282 21.958 120.412 22.108 119.38 22.108ZM129.252 10.552H124.824V9.4H135.012V10.552H130.584V22H129.252V10.552ZM145.744 22L142.864 17.95C142.54 17.986 142.204 18.004 141.856 18.004H138.472V22H137.14V9.4H141.856C143.464 9.4 144.724 9.784 145.636 10.552C146.548 11.32 147.004 12.376 147.004 13.72C147.004 14.704 146.752 15.538 146.248 16.222C145.756 16.894 145.048 17.38 144.124 17.68L147.202 22H145.744ZM141.82 16.87C143.068 16.87 144.022 16.594 144.682 16.042C145.342 15.49 145.672 14.716 145.672 13.72C145.672 12.7 145.342 11.92 144.682 11.38C144.022 10.828 143.068 10.552 141.82 10.552H138.472V16.87H141.82ZM158.05 18.634H151.03L149.518 22H148.132L153.892 9.4H155.206L160.966 22H159.562L158.05 18.634ZM157.564 17.554L154.54 10.786L151.516 17.554H157.564ZM164.865 10.552H160.437V9.4H170.625V10.552H166.197V22H164.865V10.552ZM178.085 22.108C176.837 22.108 175.703 21.832 174.683 21.28C173.675 20.716 172.883 19.948 172.307 18.976C171.743 18.004 171.461 16.912 171.461 15.7C171.461 14.488 171.743 13.396 172.307 12.424C172.883 11.452 173.675 10.69 174.683 10.138C175.703 9.574 176.837 9.292 178.085 9.292C179.333 9.292 180.455 9.568 181.451 10.12C182.459 10.672 183.251 11.44 183.827 12.424C184.403 13.396 184.691 14.488 184.691 15.7C184.691 16.912 184.403 18.01 183.827 18.994C183.251 19.966 182.459 20.728 181.451 21.28C180.455 21.832 179.333 22.108 178.085 22.108ZM178.085 20.92C179.081 20.92 179.981 20.698 180.785 20.254C181.589 19.798 182.219 19.174 182.675 18.382C183.131 17.578 183.359 16.684 183.359 15.7C183.359 14.716 183.131 13.828 182.675 13.036C182.219 12.232 181.589 11.608 180.785 11.164C179.981 10.708 179.081 10.48 178.085 10.48C177.089 10.48 176.183 10.708 175.367 11.164C174.563 11.608 173.927 12.232 173.459 13.036C173.003 13.828 172.775 14.716 172.775 15.7C172.775 16.684 173.003 17.578 173.459 18.382C173.927 19.174 174.563 19.798 175.367 20.254C176.183 20.698 177.089 20.92 178.085 20.92ZM196.281 22L193.401 17.95C193.077 17.986 192.741 18.004 192.393 18.004H189.009V22H187.677V9.4H192.393C194.001 9.4 195.261 9.784 196.173 10.552C197.085 11.32 197.541 12.376 197.541 13.72C197.541 14.704 197.289 15.538 196.785 16.222C196.293 16.894 195.585 17.38 194.661 17.68L197.739 22H196.281ZM192.357 16.87C193.605 16.87 194.559 16.594 195.219 16.042C195.879 15.49 196.209 14.716 196.209 13.72C196.209 12.7 195.879 11.92 195.219 11.38C194.559 10.828 193.605 10.552 192.357 10.552H189.009V16.87H192.357Z" fill="black"/>
<path d="M9.954 102.634H2.934L1.422 106H0.036L5.796 93.4H7.11L12.87 106H11.466L9.954 102.634ZM9.468 101.554L6.444 94.786L3.42 101.554H9.468ZM14.9543 93.4H20.0843C21.4163 93.4 22.5923 93.67 23.6123 94.21C24.6323 94.738 25.4243 95.482 25.9883 96.442C26.5523 97.39 26.8343 98.476 26.8343 99.7C26.8343 100.924 26.5523 102.016 25.9883 102.976C25.4243 103.924 24.6323 104.668 23.6123 105.208C22.5923 105.736 21.4163 106 20.0843 106H14.9543V93.4ZM20.0123 104.848C21.1163 104.848 22.0823 104.632 22.9103 104.2C23.7383 103.756 24.3803 103.15 24.8363 102.382C25.2923 101.602 25.5203 100.708 25.5203 99.7C25.5203 98.692 25.2923 97.804 24.8363 97.036C24.3803 96.256 23.7383 95.65 22.9103 95.218C22.0823 94.774 21.1163 94.552 20.0123 94.552H16.2863V104.848H20.0123ZM35.3334 106.108C34.0854 106.108 32.9514 105.832 31.9314 105.28C30.9234 104.716 30.1314 103.948 29.5554 102.976C28.9914 102.004 28.7094 100.912 28.7094 99.7C28.7094 98.488 28.9914 97.396 29.5554 96.424C30.1314 95.452 30.9234 94.69 31.9314 94.138C32.9514 93.574 34.0854 93.292 35.3334 93.292C36.5814 93.292 37.7034 93.568 38.6994 94.12C39.7074 94.672 40.4994 95.44 41.0754 96.424C41.6514 97.396 41.9394 98.488 41.9394 99.7C41.9394 100.912 41.6514 102.01 41.0754 102.994C40.4994 103.966 39.7074 104.728 38.6994 105.28C37.7034 105.832 36.5814 106.108 35.3334 106.108ZM35.3334 104.92C36.3294 104.92 37.2294 104.698 38.0334 104.254C38.8374 103.798 39.4674 103.174 39.9234 102.382C40.3794 101.578 40.6074 100.684 40.6074 99.7C40.6074 98.716 40.3794 97.828 39.9234 97.036C39.4674 96.232 38.8374 95.608 38.0334 95.164C37.2294 94.708 36.3294 94.48 35.3334 94.48C34.3374 94.48 33.4314 94.708 32.6154 95.164C31.8114 95.608 31.1754 96.232 30.7074 97.036C30.2514 97.828 30.0234 98.716 30.0234 99.7C30.0234 100.684 30.2514 101.578 30.7074 102.382C31.1754 103.174 31.8114 103.798 32.6154 104.254C33.4314 104.698 34.3374 104.92 35.3334 104.92ZM52.863 99.502C53.691 99.682 54.327 100.042 54.771 100.582C55.227 101.11 55.455 101.794 55.455 102.634C55.455 103.714 55.053 104.548 54.249 105.136C53.457 105.712 52.281 106 50.721 106H44.925V93.4H50.361C51.765 93.4 52.851 93.682 53.619 94.246C54.399 94.81 54.789 95.608 54.789 96.64C54.789 97.336 54.615 97.93 54.267 98.422C53.931 98.902 53.463 99.262 52.863 99.502ZM46.257 94.498V99.07H50.271C51.291 99.07 52.077 98.878 52.629 98.494C53.181 98.098 53.457 97.528 53.457 96.784C53.457 96.04 53.181 95.476 52.629 95.092C52.077 94.696 51.291 94.498 50.271 94.498H46.257ZM50.703 104.902C51.831 104.902 52.683 104.71 53.259 104.326C53.835 103.942 54.123 103.342 54.123 102.526C54.123 100.954 52.983 100.168 50.703 100.168H46.257V104.902H50.703ZM67.4054 104.848V106H58.4954V93.4H67.1354V94.552H59.8274V99.034H66.3434V100.168H59.8274V104.848H67.4054ZM83.1493 102.634H76.1293L74.6173 106H73.2313L78.9913 93.4H80.3053L86.0653 106H84.6613L83.1493 102.634ZM82.6633 101.554L79.6393 94.786L76.6153 101.554H82.6633ZM89.4817 94.552V99.502H95.9977V100.654H89.4817V106H88.1497V93.4H96.7897V94.552H89.4817ZM102.076 94.552H97.6482V93.4H107.836V94.552H103.408V106H102.076V94.552ZM118.874 104.848V106H109.964V93.4H118.604V94.552H111.296V99.034H117.812V100.168H111.296V104.848H118.874ZM130.609 106L127.729 101.95C127.405 101.986 127.069 102.004 126.721 102.004H123.337V106H122.005V93.4H126.721C128.329 93.4 129.589 93.784 130.501 94.552C131.413 95.32 131.869 96.376 131.869 97.72C131.869 98.704 131.617 99.538 131.113 100.222C130.621 100.894 129.913 101.38 128.989 101.68L132.067 106H130.609ZM126.685 100.87C127.933 100.87 128.887 100.594 129.547 100.042C130.207 99.49 130.537 98.716 130.537 97.72C130.537 96.7 130.207 95.92 129.547 95.38C128.887 94.828 127.933 94.552 126.685 94.552H123.337V100.87H126.685ZM148.634 104.848V106H139.724V93.4H148.364V94.552H141.056V99.034H147.572V100.168H141.056V104.848H148.634ZM153.097 94.552V99.502H159.613V100.654H153.097V106H151.765V93.4H160.405V94.552H153.097ZM164.488 94.552V99.502H171.004V100.654H164.488V106H163.156V93.4H171.796V94.552H164.488ZM183.456 104.848V106H174.546V93.4H183.186V94.552H175.878V99.034H182.394V100.168H175.878V104.848H183.456ZM191.989 106.108C190.741 106.108 189.613 105.832 188.605 105.28C187.609 104.728 186.823 103.966 186.247 102.994C185.683 102.01 185.401 100.912 185.401 99.7C185.401 98.488 185.683 97.396 186.247 96.424C186.823 95.44 187.615 94.672 188.623 94.12C189.631 93.568 190.759 93.292 192.007 93.292C192.943 93.292 193.807 93.448 194.599 93.76C195.391 94.072 196.063 94.528 196.615 95.128L195.769 95.974C194.785 94.978 193.543 94.48 192.043 94.48C191.047 94.48 190.141 94.708 189.325 95.164C188.509 95.62 187.867 96.244 187.399 97.036C186.943 97.828 186.715 98.716 186.715 99.7C186.715 100.684 186.943 101.572 187.399 102.364C187.867 103.156 188.509 103.78 189.325 104.236C190.141 104.692 191.047 104.92 192.043 104.92C193.555 104.92 194.797 104.416 195.769 103.408L196.615 104.254C196.063 104.854 195.385 105.316 194.581 105.64C193.789 105.952 192.925 106.108 191.989 106.108ZM201.744 94.552H197.316V93.4H207.504V94.552H203.076V106H201.744V94.552ZM212.913 106.108C211.977 106.108 211.077 105.958 210.213 105.658C209.361 105.358 208.701 104.962 208.233 104.47L208.755 103.444C209.211 103.9 209.817 104.272 210.573 104.56C211.329 104.836 212.109 104.974 212.913 104.974C214.041 104.974 214.887 104.77 215.451 104.362C216.015 103.942 216.297 103.402 216.297 102.742C216.297 102.238 216.141 101.836 215.829 101.536C215.529 101.236 215.157 101.008 214.713 100.852C214.269 100.684 213.651 100.504 212.859 100.312C211.911 100.072 211.155 99.844 210.591 99.628C210.027 99.4 209.541 99.058 209.133 98.602C208.737 98.146 208.539 97.528 208.539 96.748C208.539 96.112 208.707 95.536 209.043 95.02C209.379 94.492 209.895 94.072 210.591 93.76C211.287 93.448 212.151 93.292 213.183 93.292C213.903 93.292 214.605 93.394 215.289 93.598C215.985 93.79 216.585 94.06 217.089 94.408L216.639 95.47C216.111 95.122 215.547 94.864 214.947 94.696C214.347 94.516 213.759 94.426 213.183 94.426C212.079 94.426 211.245 94.642 210.681 95.074C210.129 95.494 209.853 96.04 209.853 96.712C209.853 97.216 210.003 97.624 210.303 97.936C210.615 98.236 210.999 98.47 211.455 98.638C211.923 98.794 212.547 98.968 213.327 99.16C214.251 99.388 214.995 99.616 215.559 99.844C216.135 100.06 216.621 100.396 217.017 100.852C217.413 101.296 217.611 101.902 217.611 102.67C217.611 103.306 217.437 103.888 217.089 104.416C216.753 104.932 216.231 105.346 215.523 105.658C214.815 105.958 213.945 106.108 212.913 106.108Z" fill="black"/>
<path d="M9.954 186.634H2.934L1.422 190H0.036L5.796 177.4H7.11L12.87 190H11.466L9.954 186.634ZM9.468 185.554L6.444 178.786L3.42 185.554H9.468ZM14.9543 177.4H20.0843C21.4163 177.4 22.5923 177.67 23.6123 178.21C24.6323 178.738 25.4243 179.482 25.9883 180.442C26.5523 181.39 26.8343 182.476 26.8343 183.7C26.8343 184.924 26.5523 186.016 25.9883 186.976C25.4243 187.924 24.6323 188.668 23.6123 189.208C22.5923 189.736 21.4163 190 20.0843 190H14.9543V177.4ZM20.0123 188.848C21.1163 188.848 22.0823 188.632 22.9103 188.2C23.7383 187.756 24.3803 187.15 24.8363 186.382C25.2923 185.602 25.5203 184.708 25.5203 183.7C25.5203 182.692 25.2923 181.804 24.8363 181.036C24.3803 180.256 23.7383 179.65 22.9103 179.218C22.0823 178.774 21.1163 178.552 20.0123 178.552H16.2863V188.848H20.0123ZM35.3334 190.108C34.0854 190.108 32.9514 189.832 31.9314 189.28C30.9234 188.716 30.1314 187.948 29.5554 186.976C28.9914 186.004 28.7094 184.912 28.7094 183.7C28.7094 182.488 28.9914 181.396 29.5554 180.424C30.1314 179.452 30.9234 178.69 31.9314 178.138C32.9514 177.574 34.0854 177.292 35.3334 177.292C36.5814 177.292 37.7034 177.568 38.6994 178.12C39.7074 178.672 40.4994 179.44 41.0754 180.424C41.6514 181.396 41.9394 182.488 41.9394 183.7C41.9394 184.912 41.6514 186.01 41.0754 186.994C40.4994 187.966 39.7074 188.728 38.6994 189.28C37.7034 189.832 36.5814 190.108 35.3334 190.108ZM35.3334 188.92C36.3294 188.92 37.2294 188.698 38.0334 188.254C38.8374 187.798 39.4674 187.174 39.9234 186.382C40.3794 185.578 40.6074 184.684 40.6074 183.7C40.6074 182.716 40.3794 181.828 39.9234 181.036C39.4674 180.232 38.8374 179.608 38.0334 179.164C37.2294 178.708 36.3294 178.48 35.3334 178.48C34.3374 178.48 33.4314 178.708 32.6154 179.164C31.8114 179.608 31.1754 180.232 30.7074 181.036C30.2514 181.828 30.0234 182.716 30.0234 183.7C30.0234 184.684 30.2514 185.578 30.7074 186.382C31.1754 187.174 31.8114 187.798 32.6154 188.254C33.4314 188.698 34.3374 188.92 35.3334 188.92ZM52.863 183.502C53.691 183.682 54.327 184.042 54.771 184.582C55.227 185.11 55.455 185.794 55.455 186.634C55.455 187.714 55.053 188.548 54.249 189.136C53.457 189.712 52.281 190 50.721 190H44.925V177.4H50.361C51.765 177.4 52.851 177.682 53.619 178.246C54.399 178.81 54.789 179.608 54.789 180.64C54.789 181.336 54.615 181.93 54.267 182.422C53.931 182.902 53.463 183.262 52.863 183.502ZM46.257 178.498V183.07H50.271C51.291 183.07 52.077 182.878 52.629 182.494C53.181 182.098 53.457 181.528 53.457 180.784C53.457 180.04 53.181 179.476 52.629 179.092C52.077 178.696 51.291 178.498 50.271 178.498H46.257ZM50.703 188.902C51.831 188.902 52.683 188.71 53.259 188.326C53.835 187.942 54.123 187.342 54.123 186.526C54.123 184.954 52.983 184.168 50.703 184.168H46.257V188.902H50.703ZM67.4054 188.848V190H58.4954V177.4H67.1354V178.552H59.8274V183.034H66.3434V184.168H59.8274V188.848H67.4054ZM79.9633 177.4C81.5713 177.4 82.8313 177.784 83.7433 178.552C84.6553 179.32 85.1113 180.376 85.1113 181.72C85.1113 183.064 84.6553 184.12 83.7433 184.888C82.8313 185.644 81.5713 186.022 79.9633 186.022H76.5793V190H75.2473V177.4H79.9633ZM79.9273 184.852C81.1753 184.852 82.1293 184.582 82.7893 184.042C83.4493 183.49 83.7793 182.716 83.7793 181.72C83.7793 180.7 83.4493 179.92 82.7893 179.38C82.1293 178.828 81.1753 178.552 79.9273 178.552H76.5793V184.852H79.9273ZM98.5215 177.4V190H97.2075V184.186H89.3235V190H87.9915V177.4H89.3235V183.016H97.2075V177.4H98.5215ZM108.142 190.108C106.894 190.108 105.76 189.832 104.74 189.28C103.732 188.716 102.94 187.948 102.364 186.976C101.8 186.004 101.518 184.912 101.518 183.7C101.518 182.488 101.8 181.396 102.364 180.424C102.94 179.452 103.732 178.69 104.74 178.138C105.76 177.574 106.894 177.292 108.142 177.292C109.39 177.292 110.512 177.568 111.508 178.12C112.516 178.672 113.308 179.44 113.884 180.424C114.46 181.396 114.748 182.488 114.748 183.7C114.748 184.912 114.46 186.01 113.884 186.994C113.308 187.966 112.516 188.728 111.508 189.28C110.512 189.832 109.39 190.108 108.142 190.108ZM108.142 188.92C109.138 188.92 110.038 188.698 110.842 188.254C111.646 187.798 112.276 187.174 112.732 186.382C113.188 185.578 113.416 184.684 113.416 183.7C113.416 182.716 113.188 181.828 112.732 181.036C112.276 180.232 111.646 179.608 110.842 179.164C110.038 178.708 109.138 178.48 108.142 178.48C107.146 178.48 106.24 178.708 105.424 179.164C104.62 179.608 103.984 180.232 103.516 181.036C103.06 181.828 102.832 182.716 102.832 183.7C102.832 184.684 103.06 185.578 103.516 186.382C103.984 187.174 104.62 187.798 105.424 188.254C106.24 188.698 107.146 188.92 108.142 188.92ZM120.006 178.552H115.578V177.4H125.766V178.552H121.338V190H120.006V178.552ZM133.226 190.108C131.978 190.108 130.844 189.832 129.824 189.28C128.816 188.716 128.024 187.948 127.448 186.976C126.884 186.004 126.602 184.912 126.602 183.7C126.602 182.488 126.884 181.396 127.448 180.424C128.024 179.452 128.816 178.69 129.824 178.138C130.844 177.574 131.978 177.292 133.226 177.292C134.474 177.292 135.596 177.568 136.592 178.12C137.6 178.672 138.392 179.44 138.968 180.424C139.544 181.396 139.832 182.488 139.832 183.7C139.832 184.912 139.544 186.01 138.968 186.994C138.392 187.966 137.6 188.728 136.592 189.28C135.596 189.832 134.474 190.108 133.226 190.108ZM133.226 188.92C134.222 188.92 135.122 188.698 135.926 188.254C136.73 187.798 137.36 187.174 137.816 186.382C138.272 185.578 138.5 184.684 138.5 183.7C138.5 182.716 138.272 181.828 137.816 181.036C137.36 180.232 136.73 179.608 135.926 179.164C135.122 178.708 134.222 178.48 133.226 178.48C132.23 178.48 131.324 178.708 130.508 179.164C129.704 179.608 129.068 180.232 128.6 181.036C128.144 181.828 127.916 182.716 127.916 183.7C127.916 184.684 128.144 185.578 128.6 186.382C129.068 187.174 129.704 187.798 130.508 188.254C131.324 188.698 132.23 188.92 133.226 188.92ZM146.292 190.108C145.356 190.108 144.456 189.958 143.592 189.658C142.74 189.358 142.08 188.962 141.612 188.47L142.134 187.444C142.59 187.9 143.196 188.272 143.952 188.56C144.708 188.836 145.488 188.974 146.292 188.974C147.42 188.974 148.266 188.77 148.83 188.362C149.394 187.942 149.676 187.402 149.676 186.742C149.676 186.238 149.52 185.836 149.208 185.536C148.908 185.236 148.536 185.008 148.092 184.852C147.648 184.684 147.03 184.504 146.238 184.312C145.29 184.072 144.534 183.844 143.97 183.628C143.406 183.4 142.92 183.058 142.512 182.602C142.116 182.146 141.918 181.528 141.918 180.748C141.918 180.112 142.086 179.536 142.422 179.02C142.758 178.492 143.274 178.072 143.97 177.76C144.666 177.448 145.53 177.292 146.562 177.292C147.282 177.292 147.984 177.394 148.668 177.598C149.364 177.79 149.964 178.06 150.468 178.408L150.018 179.47C149.49 179.122 148.926 178.864 148.326 178.696C147.726 178.516 147.138 178.426 146.562 178.426C145.458 178.426 144.624 178.642 144.06 179.074C143.508 179.494 143.232 180.04 143.232 180.712C143.232 181.216 143.382 181.624 143.682 181.936C143.994 182.236 144.378 182.47 144.834 182.638C145.302 182.794 145.926 182.968 146.706 183.16C147.63 183.388 148.374 183.616 148.938 183.844C149.514 184.06 150 184.396 150.396 184.852C150.792 185.296 150.99 185.902 150.99 186.67C150.99 187.306 150.816 187.888 150.468 188.416C150.132 188.932 149.61 189.346 148.902 189.658C148.194 189.958 147.324 190.108 146.292 190.108ZM164.422 177.4V190H163.108V184.186H155.224V190H153.892V177.4H155.224V183.016H163.108V177.4H164.422ZM174.042 190.108C172.794 190.108 171.66 189.832 170.64 189.28C169.632 188.716 168.84 187.948 168.264 186.976C167.7 186.004 167.418 184.912 167.418 183.7C167.418 182.488 167.7 181.396 168.264 180.424C168.84 179.452 169.632 178.69 170.64 178.138C171.66 177.574 172.794 177.292 174.042 177.292C175.29 177.292 176.412 177.568 177.408 178.12C178.416 178.672 179.208 179.44 179.784 180.424C180.36 181.396 180.648 182.488 180.648 183.7C180.648 184.912 180.36 186.01 179.784 186.994C179.208 187.966 178.416 188.728 177.408 189.28C176.412 189.832 175.29 190.108 174.042 190.108ZM174.042 188.92C175.038 188.92 175.938 188.698 176.742 188.254C177.546 187.798 178.176 187.174 178.632 186.382C179.088 185.578 179.316 184.684 179.316 183.7C179.316 182.716 179.088 181.828 178.632 181.036C178.176 180.232 177.546 179.608 176.742 179.164C175.938 178.708 175.038 178.48 174.042 178.48C173.046 178.48 172.14 178.708 171.324 179.164C170.52 179.608 169.884 180.232 169.416 181.036C168.96 181.828 168.732 182.716 168.732 183.7C168.732 184.684 168.96 185.578 169.416 186.382C169.884 187.174 170.52 187.798 171.324 188.254C172.14 188.698 173.046 188.92 174.042 188.92ZM188.35 177.4C189.958 177.4 191.218 177.784 192.13 178.552C193.042 179.32 193.498 180.376 193.498 181.72C193.498 183.064 193.042 184.12 192.13 184.888C191.218 185.644 189.958 186.022 188.35 186.022H184.966V190H183.634V177.4H188.35ZM188.314 184.852C189.562 184.852 190.516 184.582 191.176 184.042C191.836 183.49 192.166 182.716 192.166 181.72C192.166 180.7 191.836 179.92 191.176 179.38C190.516 178.828 189.562 178.552 188.314 178.552H184.966V184.852H188.314Z" fill="black"/>
<path d="M9.954 60.634H2.934L1.422 64H0.036L5.796 51.4H7.11L12.87 64H11.466L9.954 60.634ZM9.468 59.554L6.444 52.786L3.42 59.554H9.468ZM14.9543 51.4H20.0843C21.4163 51.4 22.5923 51.67 23.6123 52.21C24.6323 52.738 25.4243 53.482 25.9883 54.442C26.5523 55.39 26.8343 56.476 26.8343 57.7C26.8343 58.924 26.5523 60.016 25.9883 60.976C25.4243 61.924 24.6323 62.668 23.6123 63.208C22.5923 63.736 21.4163 64 20.0843 64H14.9543V51.4ZM20.0123 62.848C21.1163 62.848 22.0823 62.632 22.9103 62.2C23.7383 61.756 24.3803 61.15 24.8363 60.382C25.2923 59.602 25.5203 58.708 25.5203 57.7C25.5203 56.692 25.2923 55.804 24.8363 55.036C24.3803 54.256 23.7383 53.65 22.9103 53.218C22.0823 52.774 21.1163 52.552 20.0123 52.552H16.2863V62.848H20.0123ZM35.3334 64.108C34.0854 64.108 32.9514 63.832 31.9314 63.28C30.9234 62.716 30.1314 61.948 29.5554 60.976C28.9914 60.004 28.7094 58.912 28.7094 57.7C28.7094 56.488 28.9914 55.396 29.5554 54.424C30.1314 53.452 30.9234 52.69 31.9314 52.138C32.9514 51.574 34.0854 51.292 35.3334 51.292C36.5814 51.292 37.7034 51.568 38.6994 52.12C39.7074 52.672 40.4994 53.44 41.0754 54.424C41.6514 55.396 41.9394 56.488 41.9394 57.7C41.9394 58.912 41.6514 60.01 41.0754 60.994C40.4994 61.966 39.7074 62.728 38.6994 63.28C37.7034 63.832 36.5814 64.108 35.3334 64.108ZM35.3334 62.92C36.3294 62.92 37.2294 62.698 38.0334 62.254C38.8374 61.798 39.4674 61.174 39.9234 60.382C40.3794 59.578 40.6074 58.684 40.6074 57.7C40.6074 56.716 40.3794 55.828 39.9234 55.036C39.4674 54.232 38.8374 53.608 38.0334 53.164C37.2294 52.708 36.3294 52.48 35.3334 52.48C34.3374 52.48 33.4314 52.708 32.6154 53.164C31.8114 53.608 31.1754 54.232 30.7074 55.036C30.2514 55.828 30.0234 56.716 30.0234 57.7C30.0234 58.684 30.2514 59.578 30.7074 60.382C31.1754 61.174 31.8114 61.798 32.6154 62.254C33.4314 62.698 34.3374 62.92 35.3334 62.92ZM52.863 57.502C53.691 57.682 54.327 58.042 54.771 58.582C55.227 59.11 55.455 59.794 55.455 60.634C55.455 61.714 55.053 62.548 54.249 63.136C53.457 63.712 52.281 64 50.721 64H44.925V51.4H50.361C51.765 51.4 52.851 51.682 53.619 52.246C54.399 52.81 54.789 53.608 54.789 54.64C54.789 55.336 54.615 55.93 54.267 56.422C53.931 56.902 53.463 57.262 52.863 57.502ZM46.257 52.498V57.07H50.271C51.291 57.07 52.077 56.878 52.629 56.494C53.181 56.098 53.457 55.528 53.457 54.784C53.457 54.04 53.181 53.476 52.629 53.092C52.077 52.696 51.291 52.498 50.271 52.498H46.257ZM50.703 62.902C51.831 62.902 52.683 62.71 53.259 62.326C53.835 61.942 54.123 61.342 54.123 60.526C54.123 58.954 52.983 58.168 50.703 58.168H46.257V62.902H50.703ZM67.4054 62.848V64H58.4954V51.4H67.1354V52.552H59.8274V57.034H66.3434V58.168H59.8274V62.848H67.4054ZM79.9633 51.4C81.5713 51.4 82.8313 51.784 83.7433 52.552C84.6553 53.32 85.1113 54.376 85.1113 55.72C85.1113 57.064 84.6553 58.12 83.7433 58.888C82.8313 59.644 81.5713 60.022 79.9633 60.022H76.5793V64H75.2473V51.4H79.9633ZM79.9273 58.852C81.1753 58.852 82.1293 58.582 82.7893 58.042C83.4493 57.49 83.7793 56.716 83.7793 55.72C83.7793 54.7 83.4493 53.92 82.7893 53.38C82.1293 52.828 81.1753 52.552 79.9273 52.552H76.5793V58.852H79.9273ZM96.5955 64L93.7155 59.95C93.3915 59.986 93.0555 60.004 92.7075 60.004H89.3235V64H87.9915V51.4H92.7075C94.3155 51.4 95.5755 51.784 96.4875 52.552C97.3995 53.32 97.8555 54.376 97.8555 55.72C97.8555 56.704 97.6035 57.538 97.0995 58.222C96.6075 58.894 95.8995 59.38 94.9755 59.68L98.0535 64H96.5955ZM92.6715 58.87C93.9195 58.87 94.8735 58.594 95.5335 58.042C96.1935 57.49 96.5235 56.716 96.5235 55.72C96.5235 54.7 96.1935 53.92 95.5335 53.38C94.8735 52.828 93.9195 52.552 92.6715 52.552H89.3235V58.87H92.6715ZM109.909 62.848V64H100.999V51.4H109.639V52.552H102.331V57.034H108.847V58.168H102.331V62.848H109.909ZM126.126 51.4V64H124.848V53.92L119.898 62.398H119.268L114.318 53.974V64H113.04V51.4H114.138L119.61 60.742L125.028 51.4H126.126ZM130.232 51.4H131.564V64H130.232V51.4ZM144.573 62.848V64H135.663V51.4H144.303V52.552H136.995V57.034H143.511V58.168H136.995V62.848H144.573ZM156.308 64L153.428 59.95C153.104 59.986 152.768 60.004 152.42 60.004H149.036V64H147.704V51.4H152.42C154.028 51.4 155.288 51.784 156.2 52.552C157.112 53.32 157.568 54.376 157.568 55.72C157.568 56.704 157.316 57.538 156.812 58.222C156.32 58.894 155.612 59.38 154.688 59.68L157.766 64H156.308ZM152.384 58.87C153.632 58.87 154.586 58.594 155.246 58.042C155.906 57.49 156.236 56.716 156.236 55.72C156.236 54.7 155.906 53.92 155.246 53.38C154.586 52.828 153.632 52.552 152.384 52.552H149.036V58.87H152.384ZM169.622 62.848V64H160.712V51.4H169.352V52.552H162.044V57.034H168.56V58.168H162.044V62.848H169.622ZM182.18 51.4C183.788 51.4 185.048 51.784 185.96 52.552C186.872 53.32 187.328 54.376 187.328 55.72C187.328 57.064 186.872 58.12 185.96 58.888C185.048 59.644 183.788 60.022 182.18 60.022H178.796V64H177.464V51.4H182.18ZM182.144 58.852C183.392 58.852 184.346 58.582 185.006 58.042C185.666 57.49 185.996 56.716 185.996 55.72C185.996 54.7 185.666 53.92 185.006 53.38C184.346 52.828 183.392 52.552 182.144 52.552H178.796V58.852H182.144ZM198.812 64L195.932 59.95C195.608 59.986 195.272 60.004 194.924 60.004H191.54V64H190.208V51.4H194.924C196.532 51.4 197.792 51.784 198.704 52.552C199.616 53.32 200.072 54.376 200.072 55.72C200.072 56.704 199.82 57.538 199.316 58.222C198.824 58.894 198.116 59.38 197.192 59.68L200.27 64H198.812ZM194.888 58.87C196.136 58.87 197.09 58.594 197.75 58.042C198.41 57.49 198.74 56.716 198.74 55.72C198.74 54.7 198.41 53.92 197.75 53.38C197.09 52.828 196.136 52.552 194.888 52.552H191.54V58.87H194.888ZM208.724 64.108C207.476 64.108 206.342 63.832 205.322 63.28C204.314 62.716 203.522 61.948 202.946 60.976C202.382 60.004 202.1 58.912 202.1 57.7C202.1 56.488 202.382 55.396 202.946 54.424C203.522 53.452 204.314 52.69 205.322 52.138C206.342 51.574 207.476 51.292 208.724 51.292C209.972 51.292 211.094 51.568 212.09 52.12C213.098 52.672 213.89 53.44 214.466 54.424C215.042 55.396 215.33 56.488 215.33 57.7C215.33 58.912 215.042 60.01 214.466 60.994C213.89 61.966 213.098 62.728 212.09 63.28C211.094 63.832 209.972 64.108 208.724 64.108ZM208.724 62.92C209.72 62.92 210.62 62.698 211.424 62.254C212.228 61.798 212.858 61.174 213.314 60.382C213.77 59.578 213.998 58.684 213.998 57.7C213.998 56.716 213.77 55.828 213.314 55.036C212.858 54.232 212.228 53.608 211.424 53.164C210.62 52.708 209.72 52.48 208.724 52.48C207.728 52.48 206.822 52.708 206.006 53.164C205.202 53.608 204.566 54.232 204.098 55.036C203.642 55.828 203.414 56.716 203.414 57.7C203.414 58.684 203.642 59.578 204.098 60.382C204.566 61.174 205.202 61.798 206.006 62.254C206.822 62.698 207.728 62.92 208.724 62.92Z" fill="black"/>
<path d="M9.954 144.634H2.934L1.422 148H0.036L5.796 135.4H7.11L12.87 148H11.466L9.954 144.634ZM9.468 143.554L6.444 136.786L3.42 143.554H9.468ZM14.9543 135.4H20.0843C21.4163 135.4 22.5923 135.67 23.6123 136.21C24.6323 136.738 25.4243 137.482 25.9883 138.442C26.5523 139.39 26.8343 140.476 26.8343 141.7C26.8343 142.924 26.5523 144.016 25.9883 144.976C25.4243 145.924 24.6323 146.668 23.6123 147.208C22.5923 147.736 21.4163 148 20.0843 148H14.9543V135.4ZM20.0123 146.848C21.1163 146.848 22.0823 146.632 22.9103 146.2C23.7383 145.756 24.3803 145.15 24.8363 144.382C25.2923 143.602 25.5203 142.708 25.5203 141.7C25.5203 140.692 25.2923 139.804 24.8363 139.036C24.3803 138.256 23.7383 137.65 22.9103 137.218C22.0823 136.774 21.1163 136.552 20.0123 136.552H16.2863V146.848H20.0123ZM35.3334 148.108C34.0854 148.108 32.9514 147.832 31.9314 147.28C30.9234 146.716 30.1314 145.948 29.5554 144.976C28.9914 144.004 28.7094 142.912 28.7094 141.7C28.7094 140.488 28.9914 139.396 29.5554 138.424C30.1314 137.452 30.9234 136.69 31.9314 136.138C32.9514 135.574 34.0854 135.292 35.3334 135.292C36.5814 135.292 37.7034 135.568 38.6994 136.12C39.7074 136.672 40.4994 137.44 41.0754 138.424C41.6514 139.396 41.9394 140.488 41.9394 141.7C41.9394 142.912 41.6514 144.01 41.0754 144.994C40.4994 145.966 39.7074 146.728 38.6994 147.28C37.7034 147.832 36.5814 148.108 35.3334 148.108ZM35.3334 146.92C36.3294 146.92 37.2294 146.698 38.0334 146.254C38.8374 145.798 39.4674 145.174 39.9234 144.382C40.3794 143.578 40.6074 142.684 40.6074 141.7C40.6074 140.716 40.3794 139.828 39.9234 139.036C39.4674 138.232 38.8374 137.608 38.0334 137.164C37.2294 136.708 36.3294 136.48 35.3334 136.48C34.3374 136.48 33.4314 136.708 32.6154 137.164C31.8114 137.608 31.1754 138.232 30.7074 139.036C30.2514 139.828 30.0234 140.716 30.0234 141.7C30.0234 142.684 30.2514 143.578 30.7074 144.382C31.1754 145.174 31.8114 145.798 32.6154 146.254C33.4314 146.698 34.3374 146.92 35.3334 146.92ZM52.863 141.502C53.691 141.682 54.327 142.042 54.771 142.582C55.227 143.11 55.455 143.794 55.455 144.634C55.455 145.714 55.053 146.548 54.249 147.136C53.457 147.712 52.281 148 50.721 148H44.925V135.4H50.361C51.765 135.4 52.851 135.682 53.619 136.246C54.399 136.81 54.789 137.608 54.789 138.64C54.789 139.336 54.615 139.93 54.267 140.422C53.931 140.902 53.463 141.262 52.863 141.502ZM46.257 136.498V141.07H50.271C51.291 141.07 52.077 140.878 52.629 140.494C53.181 140.098 53.457 139.528 53.457 138.784C53.457 138.04 53.181 137.476 52.629 137.092C52.077 136.696 51.291 136.498 50.271 136.498H46.257ZM50.703 146.902C51.831 146.902 52.683 146.71 53.259 146.326C53.835 145.942 54.123 145.342 54.123 144.526C54.123 142.954 52.983 142.168 50.703 142.168H46.257V146.902H50.703ZM67.4054 146.848V148H58.4954V135.4H67.1354V136.552H59.8274V141.034H66.3434V142.168H59.8274V146.848H67.4054ZM75.2473 135.4H76.5793V148H75.2473V135.4ZM91.209 135.4V148H90.111L82.011 137.776V148H80.679V135.4H81.777L89.895 145.624V135.4H91.209ZM100.032 135.4H105.162C106.494 135.4 107.67 135.67 108.69 136.21C109.71 136.738 110.502 137.482 111.066 138.442C111.63 139.39 111.912 140.476 111.912 141.7C111.912 142.924 111.63 144.016 111.066 144.976C110.502 145.924 109.71 146.668 108.69 147.208C107.67 147.736 106.494 148 105.162 148H100.032V135.4ZM105.09 146.848C106.194 146.848 107.16 146.632 107.988 146.2C108.816 145.756 109.458 145.15 109.914 144.382C110.37 143.602 110.598 142.708 110.598 141.7C110.598 140.692 110.37 139.804 109.914 139.036C109.458 138.256 108.816 137.65 107.988 137.218C107.16 136.774 106.194 136.552 105.09 136.552H101.364V146.848H105.09ZM123.814 146.848V148H114.904V135.4H123.544V136.552H116.236V141.034H122.752V142.168H116.236V146.848H123.814ZM130.419 148.108C129.483 148.108 128.583 147.958 127.719 147.658C126.867 147.358 126.207 146.962 125.739 146.47L126.261 145.444C126.717 145.9 127.323 146.272 128.079 146.56C128.835 146.836 129.615 146.974 130.419 146.974C131.547 146.974 132.393 146.77 132.957 146.362C133.521 145.942 133.803 145.402 133.803 144.742C133.803 144.238 133.647 143.836 133.335 143.536C133.035 143.236 132.663 143.008 132.219 142.852C131.775 142.684 131.157 142.504 130.365 142.312C129.417 142.072 128.661 141.844 128.097 141.628C127.533 141.4 127.047 141.058 126.639 140.602C126.243 140.146 126.045 139.528 126.045 138.748C126.045 138.112 126.213 137.536 126.549 137.02C126.885 136.492 127.401 136.072 128.097 135.76C128.793 135.448 129.657 135.292 130.689 135.292C131.409 135.292 132.111 135.394 132.795 135.598C133.491 135.79 134.091 136.06 134.595 136.408L134.145 137.47C133.617 137.122 133.053 136.864 132.453 136.696C131.853 136.516 131.265 136.426 130.689 136.426C129.585 136.426 128.751 136.642 128.187 137.074C127.635 137.494 127.359 138.04 127.359 138.712C127.359 139.216 127.509 139.624 127.809 139.936C128.121 140.236 128.505 140.47 128.961 140.638C129.429 140.794 130.053 140.968 130.833 141.16C131.757 141.388 132.501 141.616 133.065 141.844C133.641 142.06 134.127 142.396 134.523 142.852C134.919 143.296 135.117 143.902 135.117 144.67C135.117 145.306 134.943 145.888 134.595 146.416C134.259 146.932 133.737 147.346 133.029 147.658C132.321 147.958 131.451 148.108 130.419 148.108ZM138.019 135.4H139.351V148H138.019V135.4ZM152.324 141.7H153.602V146.506C153.014 147.022 152.318 147.418 151.514 147.694C150.71 147.97 149.864 148.108 148.976 148.108C147.716 148.108 146.582 147.832 145.574 147.28C144.566 146.728 143.774 145.966 143.198 144.994C142.622 144.01 142.334 142.912 142.334 141.7C142.334 140.488 142.622 139.396 143.198 138.424C143.774 137.44 144.566 136.672 145.574 136.12C146.582 135.568 147.722 135.292 148.994 135.292C149.954 135.292 150.836 135.448 151.64 135.76C152.444 136.06 153.122 136.51 153.674 137.11L152.846 137.956C151.85 136.972 150.584 136.48 149.048 136.48C148.028 136.48 147.104 136.708 146.276 137.164C145.46 137.608 144.818 138.232 144.35 139.036C143.882 139.828 143.648 140.716 143.648 141.7C143.648 142.684 143.882 143.572 144.35 144.364C144.818 145.156 145.46 145.78 146.276 146.236C147.092 146.692 148.01 146.92 149.03 146.92C150.326 146.92 151.424 146.596 152.324 145.948V141.7ZM167.902 135.4V148H166.804L158.704 137.776V148H157.372V135.4H158.47L166.588 145.624V135.4H167.902Z" fill="black"/>
<path d="M9.954 228.634H2.934L1.422 232H0.036L5.796 219.4H7.11L12.87 232H11.466L9.954 228.634ZM9.468 227.554L6.444 220.786L3.42 227.554H9.468ZM14.9543 219.4H20.0843C21.4163 219.4 22.5923 219.67 23.6123 220.21C24.6323 220.738 25.4243 221.482 25.9883 222.442C26.5523 223.39 26.8343 224.476 26.8343 225.7C26.8343 226.924 26.5523 228.016 25.9883 228.976C25.4243 229.924 24.6323 230.668 23.6123 231.208C22.5923 231.736 21.4163 232 20.0843 232H14.9543V219.4ZM20.0123 230.848C21.1163 230.848 22.0823 230.632 22.9103 230.2C23.7383 229.756 24.3803 229.15 24.8363 228.382C25.2923 227.602 25.5203 226.708 25.5203 225.7C25.5203 224.692 25.2923 223.804 24.8363 223.036C24.3803 222.256 23.7383 221.65 22.9103 221.218C22.0823 220.774 21.1163 220.552 20.0123 220.552H16.2863V230.848H20.0123ZM35.3334 232.108C34.0854 232.108 32.9514 231.832 31.9314 231.28C30.9234 230.716 30.1314 229.948 29.5554 228.976C28.9914 228.004 28.7094 226.912 28.7094 225.7C28.7094 224.488 28.9914 223.396 29.5554 222.424C30.1314 221.452 30.9234 220.69 31.9314 220.138C32.9514 219.574 34.0854 219.292 35.3334 219.292C36.5814 219.292 37.7034 219.568 38.6994 220.12C39.7074 220.672 40.4994 221.44 41.0754 222.424C41.6514 223.396 41.9394 224.488 41.9394 225.7C41.9394 226.912 41.6514 228.01 41.0754 228.994C40.4994 229.966 39.7074 230.728 38.6994 231.28C37.7034 231.832 36.5814 232.108 35.3334 232.108ZM35.3334 230.92C36.3294 230.92 37.2294 230.698 38.0334 230.254C38.8374 229.798 39.4674 229.174 39.9234 228.382C40.3794 227.578 40.6074 226.684 40.6074 225.7C40.6074 224.716 40.3794 223.828 39.9234 223.036C39.4674 222.232 38.8374 221.608 38.0334 221.164C37.2294 220.708 36.3294 220.48 35.3334 220.48C34.3374 220.48 33.4314 220.708 32.6154 221.164C31.8114 221.608 31.1754 222.232 30.7074 223.036C30.2514 223.828 30.0234 224.716 30.0234 225.7C30.0234 226.684 30.2514 227.578 30.7074 228.382C31.1754 229.174 31.8114 229.798 32.6154 230.254C33.4314 230.698 34.3374 230.92 35.3334 230.92ZM52.863 225.502C53.691 225.682 54.327 226.042 54.771 226.582C55.227 227.11 55.455 227.794 55.455 228.634C55.455 229.714 55.053 230.548 54.249 231.136C53.457 231.712 52.281 232 50.721 232H44.925V219.4H50.361C51.765 219.4 52.851 219.682 53.619 220.246C54.399 220.81 54.789 221.608 54.789 222.64C54.789 223.336 54.615 223.93 54.267 224.422C53.931 224.902 53.463 225.262 52.863 225.502ZM46.257 220.498V225.07H50.271C51.291 225.07 52.077 224.878 52.629 224.494C53.181 224.098 53.457 223.528 53.457 222.784C53.457 222.04 53.181 221.476 52.629 221.092C52.077 220.696 51.291 220.498 50.271 220.498H46.257ZM50.703 230.902C51.831 230.902 52.683 230.71 53.259 230.326C53.835 229.942 54.123 229.342 54.123 228.526C54.123 226.954 52.983 226.168 50.703 226.168H46.257V230.902H50.703ZM67.4054 230.848V232H58.4954V219.4H67.1354V220.552H59.8274V225.034H66.3434V226.168H59.8274V230.848H67.4054ZM83.1493 232L79.0813 226.456L75.0313 232H73.5013L78.2893 225.52L73.8073 219.4H75.3373L79.1353 224.548L82.9153 219.4H84.3553L79.8913 225.484L84.6973 232H83.1493ZM86.6204 219.4H91.7504C93.0824 219.4 94.2584 219.67 95.2784 220.21C96.2984 220.738 97.0904 221.482 97.6544 222.442C98.2184 223.39 98.5004 224.476 98.5004 225.7C98.5004 226.924 98.2184 228.016 97.6544 228.976C97.0904 229.924 96.2984 230.668 95.2784 231.208C94.2584 231.736 93.0824 232 91.7504 232H86.6204V219.4ZM91.6784 230.848C92.7824 230.848 93.7484 230.632 94.5764 230.2C95.4044 229.756 96.0464 229.15 96.5024 228.382C96.9584 227.602 97.1864 226.708 97.1864 225.7C97.1864 224.692 96.9584 223.804 96.5024 223.036C96.0464 222.256 95.4044 221.65 94.5764 221.218C93.7484 220.774 92.7824 220.552 91.6784 220.552H87.9524V230.848H91.6784Z" fill="black"/>
</svg>
