<svg width="447" height="242" viewBox="0 0 447 242" fill="none" xmlns="http://www.w3.org/2000/svg">
<circle cx="264.633" cy="17.0571" r="7.64155" fill="black"/>
<circle cx="289.469" cy="17.0571" r="7.64155" fill="black"/>
<circle cx="314.304" cy="17.0571" r="7.64155" fill="black"/>
<circle cx="339.139" cy="17.0571" r="7.64155" fill="black"/>
<circle cx="363.974" cy="17.0571" r="7.64155" fill="black"/>
<circle cx="388.809" cy="17.0571" r="7.64155" fill="black"/>
<circle cx="413.644" cy="17.0571" r="7.64155" fill="black"/>
<circle cx="438.479" cy="17.0571" r="7.14155" stroke="black"/>
<circle cx="264.633" cy="101.114" r="7.64155" fill="black"/>
<circle cx="289.469" cy="101.114" r="7.64155" fill="black"/>
<circle cx="314.304" cy="101.114" r="7.64155" fill="black"/>
<circle cx="339.139" cy="101.114" r="7.64155" fill="black"/>
<circle cx="363.974" cy="101.114" r="7.64155" fill="black"/>
<circle cx="388.809" cy="101.114" r="7.64155" fill="black"/>
<circle cx="413.644" cy="101.114" r="7.14155" stroke="black"/>
<circle cx="438.479" cy="101.114" r="7.14155" stroke="black"/>
<circle cx="264.633" cy="185.171" r="7.64155" fill="black"/>
<circle cx="289.469" cy="185.171" r="7.64155" fill="black"/>
<circle cx="314.304" cy="185.171" r="7.64155" fill="black"/>
<circle cx="339.139" cy="185.171" r="7.64155" fill="black"/>
<circle cx="363.974" cy="185.171" r="7.14155" stroke="black"/>
<circle cx="388.809" cy="185.171" r="7.14155" stroke="black"/>
<circle cx="413.644" cy="185.171" r="7.14155" stroke="black"/>
<circle cx="438.479" cy="185.171" r="7.14155" stroke="black"/>
<circle cx="264.633" cy="59.0855" r="7.64155" fill="black"/>
<circle cx="289.469" cy="59.0855" r="7.64155" fill="black"/>
<circle cx="314.304" cy="59.0855" r="7.64155" fill="black"/>
<circle cx="339.139" cy="59.0855" r="7.64155" fill="black"/>
<circle cx="363.974" cy="59.0855" r="7.64155" fill="black"/>
<circle cx="388.809" cy="59.0855" r="7.14155" stroke="black"/>
<circle cx="413.644" cy="59.0855" r="7.14155" stroke="black"/>
<circle cx="438.479" cy="59.0855" r="7.14155" stroke="black"/>
<circle cx="264.633" cy="143.143" r="7.64155" fill="black"/>
<circle cx="289.469" cy="143.143" r="7.64155" fill="black"/>
<circle cx="314.304" cy="143.143" r="7.64155" fill="black"/>
<circle cx="339.139" cy="143.143" r="7.64155" fill="black"/>
<circle cx="363.974" cy="143.143" r="7.64155" fill="black"/>
<circle cx="388.809" cy="143.143" r="7.14155" stroke="black"/>
<circle cx="413.644" cy="143.143" r="7.14155" stroke="black"/>
<circle cx="438.479" cy="143.143" r="7.14155" stroke="black"/>
<circle cx="264.633" cy="227.2" r="7.64155" fill="black"/>
<circle cx="289.469" cy="227.2" r="7.64155" fill="black"/>
<circle cx="314.304" cy="227.2" r="7.64155" fill="black"/>
<circle cx="339.139" cy="227.2" r="7.64155" fill="black"/>
<circle cx="363.974" cy="227.2" r="7.64155" fill="black"/>
<circle cx="388.809" cy="227.2" r="7.64155" fill="black"/>
<circle cx="413.644" cy="227.2" r="7.14155" stroke="black"/>
<circle cx="438.479" cy="227.2" r="7.14155" stroke="black"/>
<path d="M4.384 10.552V15.502H10.9V16.654H4.384V22H3.052V9.4H11.692V10.552H4.384ZM14.4426 9.4H15.7746V22H14.4426V9.4ZM28.7483 15.7H30.0263V20.506C29.4383 21.022 28.7423 21.418 27.9383 21.694C27.1343 21.97 26.2883 22.108 25.4003 22.108C24.1403 22.108 23.0063 21.832 21.9983 21.28C20.9903 20.728 20.1983 19.966 19.6223 18.994C19.0463 18.01 18.7583 16.912 18.7583 15.7C18.7583 14.488 19.0463 13.396 19.6223 12.424C20.1983 11.44 20.9903 10.672 21.9983 10.12C23.0063 9.568 24.1463 9.292 25.4183 9.292C26.3783 9.292 27.2603 9.448 28.0643 9.76C28.8683 10.06 29.5463 10.51 30.0983 11.11L29.2703 11.956C28.2743 10.972 27.0083 10.48 25.4723 10.48C24.4523 10.48 23.5283 10.708 22.7003 11.164C21.8843 11.608 21.2423 12.232 20.7743 13.036C20.3063 13.828 20.0723 14.716 20.0723 15.7C20.0723 16.684 20.3063 17.572 20.7743 18.364C21.2423 19.156 21.8843 19.78 22.7003 20.236C23.5163 20.692 24.4343 20.92 25.4543 20.92C26.7503 20.92 27.8483 20.596 28.7483 19.948V15.7ZM46.8821 9.4V22H45.6041V11.92L40.6541 20.398H40.0241L35.0741 11.974V22H33.7961V9.4H34.8941L40.3661 18.742L45.7841 9.4H46.8821ZM58.8895 18.634H51.8695L50.3575 22H48.9715L54.7315 9.4H56.0455L61.8055 22H60.4015L58.8895 18.634ZM58.4035 17.554L55.3795 10.786L52.3555 17.554H58.4035Z" fill="black"/>
<path d="M13.582 93.4V106H12.268V100.186H4.384V106H3.052V93.4H4.384V99.016H12.268V93.4H13.582ZM20.1426 94.552H15.7146V93.4H25.9026V94.552H21.4746V106H20.1426V94.552ZM41.1165 93.4V106H39.8385V95.92L34.8885 104.398H34.2585L29.3085 95.974V106H28.0305V93.4H29.1285L34.6005 102.742L40.0185 93.4H41.1165ZM45.2219 93.4H46.5539V104.848H53.6099V106H45.2219V93.4ZM59.7166 90.844H60.8866L54.9466 107.8H53.7766L59.7166 90.844ZM67.4283 106.108C66.1803 106.108 65.0523 105.832 64.0443 105.28C63.0483 104.728 62.2623 103.966 61.6863 102.994C61.1223 102.01 60.8403 100.912 60.8403 99.7C60.8403 98.488 61.1223 97.396 61.6863 96.424C62.2623 95.44 63.0543 94.672 64.0623 94.12C65.0703 93.568 66.1983 93.292 67.4463 93.292C68.3823 93.292 69.2463 93.448 70.0383 93.76C70.8303 94.072 71.5023 94.528 72.0543 95.128L71.2083 95.974C70.2243 94.978 68.9823 94.48 67.4823 94.48C66.4863 94.48 65.5803 94.708 64.7643 95.164C63.9483 95.62 63.3063 96.244 62.8383 97.036C62.3823 97.828 62.1543 98.716 62.1543 99.7C62.1543 100.684 62.3823 101.572 62.8383 102.364C63.3063 103.156 63.9483 103.78 64.7643 104.236C65.5803 104.692 66.4863 104.92 67.4823 104.92C68.9943 104.92 70.2363 104.416 71.2083 103.408L72.0543 104.254C71.5023 104.854 70.8243 105.316 70.0203 105.64C69.2283 105.952 68.3643 106.108 67.4283 106.108ZM78.2975 106.108C77.3615 106.108 76.4615 105.958 75.5975 105.658C74.7455 105.358 74.0855 104.962 73.6175 104.47L74.1395 103.444C74.5955 103.9 75.2015 104.272 75.9575 104.56C76.7135 104.836 77.4935 104.974 78.2975 104.974C79.4255 104.974 80.2715 104.77 80.8355 104.362C81.3995 103.942 81.6815 103.402 81.6815 102.742C81.6815 102.238 81.5255 101.836 81.2135 101.536C80.9135 101.236 80.5415 101.008 80.0975 100.852C79.6535 100.684 79.0355 100.504 78.2435 100.312C77.2955 100.072 76.5395 99.844 75.9755 99.628C75.4115 99.4 74.9255 99.058 74.5175 98.602C74.1215 98.146 73.9235 97.528 73.9235 96.748C73.9235 96.112 74.0915 95.536 74.4275 95.02C74.7635 94.492 75.2795 94.072 75.9755 93.76C76.6715 93.448 77.5355 93.292 78.5675 93.292C79.2875 93.292 79.9895 93.394 80.6735 93.598C81.3695 93.79 81.9695 94.06 82.4735 94.408L82.0235 95.47C81.4955 95.122 80.9315 94.864 80.3315 94.696C79.7315 94.516 79.1435 94.426 78.5675 94.426C77.4635 94.426 76.6295 94.642 76.0655 95.074C75.5135 95.494 75.2375 96.04 75.2375 96.712C75.2375 97.216 75.3875 97.624 75.6875 97.936C75.9995 98.236 76.3835 98.47 76.8395 98.638C77.3075 98.794 77.9315 98.968 78.7115 99.16C79.6355 99.388 80.3795 99.616 80.9435 99.844C81.5195 100.06 82.0055 100.396 82.4015 100.852C82.7975 101.296 82.9955 101.902 82.9955 102.67C82.9955 103.306 82.8215 103.888 82.4735 104.416C82.1375 104.932 81.6155 105.346 80.9075 105.658C80.1995 105.958 79.3295 106.108 78.2975 106.108ZM89.3717 106.108C88.4357 106.108 87.5357 105.958 86.6717 105.658C85.8197 105.358 85.1597 104.962 84.6917 104.47L85.2137 103.444C85.6697 103.9 86.2757 104.272 87.0317 104.56C87.7877 104.836 88.5677 104.974 89.3717 104.974C90.4997 104.974 91.3457 104.77 91.9097 104.362C92.4737 103.942 92.7557 103.402 92.7557 102.742C92.7557 102.238 92.5997 101.836 92.2877 101.536C91.9877 101.236 91.6157 101.008 91.1717 100.852C90.7277 100.684 90.1097 100.504 89.3177 100.312C88.3697 100.072 87.6137 99.844 87.0497 99.628C86.4857 99.4 85.9997 99.058 85.5917 98.602C85.1957 98.146 84.9977 97.528 84.9977 96.748C84.9977 96.112 85.1657 95.536 85.5017 95.02C85.8377 94.492 86.3537 94.072 87.0497 93.76C87.7457 93.448 88.6097 93.292 89.6417 93.292C90.3617 93.292 91.0637 93.394 91.7477 93.598C92.4437 93.79 93.0437 94.06 93.5477 94.408L93.0977 95.47C92.5697 95.122 92.0057 94.864 91.4057 94.696C90.8057 94.516 90.2177 94.426 89.6417 94.426C88.5377 94.426 87.7037 94.642 87.1397 95.074C86.5877 95.494 86.3117 96.04 86.3117 96.712C86.3117 97.216 86.4617 97.624 86.7617 97.936C87.0737 98.236 87.4577 98.47 87.9137 98.638C88.3817 98.794 89.0057 98.968 89.7857 99.16C90.7097 99.388 91.4537 99.616 92.0177 99.844C92.5937 100.06 93.0797 100.396 93.4757 100.852C93.8717 101.296 94.0697 101.902 94.0697 102.67C94.0697 103.306 93.8957 103.888 93.5477 104.416C93.2117 104.932 92.6897 105.346 91.9817 105.658C91.2737 105.958 90.4037 106.108 89.3717 106.108Z" fill="black"/>
<path d="M7.768 177.4C9.376 177.4 10.636 177.784 11.548 178.552C12.46 179.32 12.916 180.376 12.916 181.72C12.916 183.064 12.46 184.12 11.548 184.888C10.636 185.644 9.376 186.022 7.768 186.022H4.384V190H3.052V177.4H7.768ZM7.732 184.852C8.98 184.852 9.934 184.582 10.594 184.042C11.254 183.49 11.584 182.716 11.584 181.72C11.584 180.7 11.254 179.92 10.594 179.38C9.934 178.828 8.98 178.552 7.732 178.552H4.384V184.852H7.732ZM26.3261 177.4V190H25.0121V184.186H17.1281V190H15.7961V177.4H17.1281V183.016H25.0121V177.4H26.3261ZM35.1547 177.4C36.7627 177.4 38.0227 177.784 38.9347 178.552C39.8467 179.32 40.3027 180.376 40.3027 181.72C40.3027 183.064 39.8467 184.12 38.9347 184.888C38.0227 185.644 36.7627 186.022 35.1547 186.022H31.7707V190H30.4387V177.4H35.1547ZM35.1187 184.852C36.3667 184.852 37.3207 184.582 37.9807 184.042C38.6407 183.49 38.9707 182.716 38.9707 181.72C38.9707 180.7 38.6407 179.92 37.9807 179.38C37.3207 178.828 36.3667 178.552 35.1187 178.552H31.7707V184.852H35.1187ZM45.9353 174.844H47.1053L41.1653 191.8H39.9953L45.9353 174.844ZM51.649 190.108C50.713 190.108 49.813 189.958 48.949 189.658C48.097 189.358 47.437 188.962 46.969 188.47L47.491 187.444C47.947 187.9 48.553 188.272 49.309 188.56C50.065 188.836 50.845 188.974 51.649 188.974C52.777 188.974 53.623 188.77 54.187 188.362C54.751 187.942 55.033 187.402 55.033 186.742C55.033 186.238 54.877 185.836 54.565 185.536C54.265 185.236 53.893 185.008 53.449 184.852C53.005 184.684 52.387 184.504 51.595 184.312C50.647 184.072 49.891 183.844 49.327 183.628C48.763 183.4 48.277 183.058 47.869 182.602C47.473 182.146 47.275 181.528 47.275 180.748C47.275 180.112 47.443 179.536 47.779 179.02C48.115 178.492 48.631 178.072 49.327 177.76C50.023 177.448 50.887 177.292 51.919 177.292C52.639 177.292 53.341 177.394 54.025 177.598C54.721 177.79 55.321 178.06 55.825 178.408L55.375 179.47C54.847 179.122 54.283 178.864 53.683 178.696C53.083 178.516 52.495 178.426 51.919 178.426C50.815 178.426 49.981 178.642 49.417 179.074C48.865 179.494 48.589 180.04 48.589 180.712C48.589 181.216 48.739 181.624 49.039 181.936C49.351 182.236 49.735 182.47 50.191 182.638C50.659 182.794 51.283 182.968 52.063 183.16C52.987 183.388 53.731 183.616 54.295 183.844C54.871 184.06 55.357 184.396 55.753 184.852C56.149 185.296 56.347 185.902 56.347 186.67C56.347 187.306 56.173 187.888 55.825 188.416C55.489 188.932 54.967 189.346 54.259 189.658C53.551 189.958 52.681 190.108 51.649 190.108ZM71.9393 191.062C71.5553 191.53 71.0993 191.884 70.5713 192.124C70.0553 192.376 69.4913 192.502 68.8793 192.502C68.1353 192.502 67.4273 192.316 66.7553 191.944C66.0953 191.584 65.3513 190.972 64.5233 190.108C63.3113 190.072 62.2193 189.772 61.2473 189.208C60.2753 188.644 59.5133 187.882 58.9613 186.922C58.4093 185.962 58.1333 184.888 58.1333 183.7C58.1333 182.488 58.4153 181.396 58.9793 180.424C59.5553 179.452 60.3473 178.69 61.3553 178.138C62.3753 177.574 63.5093 177.292 64.7573 177.292C66.0053 177.292 67.1273 177.568 68.1233 178.12C69.1313 178.672 69.9233 179.44 70.4993 180.424C71.0753 181.396 71.3633 182.488 71.3633 183.7C71.3633 184.756 71.1413 185.728 70.6973 186.616C70.2653 187.492 69.6533 188.224 68.8613 188.812C68.0813 189.4 67.1813 189.79 66.1613 189.982C67.0853 190.954 67.9973 191.44 68.8973 191.44C69.8333 191.44 70.6313 191.056 71.2913 190.288L71.9393 191.062ZM59.4473 183.7C59.4473 184.684 59.6753 185.572 60.1313 186.364C60.5993 187.156 61.2353 187.78 62.0393 188.236C62.8553 188.692 63.7613 188.92 64.7573 188.92C65.7533 188.92 66.6533 188.692 67.4573 188.236C68.2613 187.78 68.8913 187.156 69.3473 186.364C69.8033 185.572 70.0313 184.684 70.0313 183.7C70.0313 182.716 69.8033 181.828 69.3473 181.036C68.8913 180.244 68.2613 179.62 67.4573 179.164C66.6533 178.708 65.7533 178.48 64.7573 178.48C63.7613 178.48 62.8553 178.708 62.0393 179.164C61.2353 179.62 60.5993 180.244 60.1313 181.036C59.6753 181.828 59.4473 182.716 59.4473 183.7ZM74.3489 177.4H75.6809V188.848H82.7369V190H74.3489V177.4Z" fill="black"/>
<path d="M8.128 64.108C6.496 64.108 5.224 63.64 4.312 62.704C3.4 61.768 2.944 60.406 2.944 58.618V51.4H4.276V58.564C4.276 60.028 4.606 61.12 5.266 61.84C5.926 62.56 6.88 62.92 8.128 62.92C9.388 62.92 10.348 62.56 11.008 61.84C11.668 61.12 11.998 60.028 11.998 58.564V51.4H13.294V58.618C13.294 60.406 12.838 61.768 11.926 62.704C11.026 63.64 9.76 64.108 8.128 64.108ZM27.8379 51.4V64H26.7399L18.6399 53.776V64H17.3079V51.4H18.4059L26.5239 61.624V51.4H27.8379ZM31.9504 51.4H33.2824V64H31.9504V51.4ZM39.8301 52.552H35.4021V51.4H45.5901V52.552H41.1621V64H39.8301V52.552ZM51.9501 59.644V64H50.6361V59.644L45.5961 51.4H47.0181L51.3381 58.474L55.6581 51.4H56.9901L51.9501 59.644Z" fill="black"/>
<path d="M4.402 148.108C3.682 148.108 3.016 147.952 2.404 147.64C1.792 147.328 1.294 146.884 0.91 146.308L1.702 145.408C2.398 146.44 3.304 146.956 4.42 146.956C5.98 146.956 6.76 146.032 6.76 144.184V136.552H2.152V135.4H8.074V144.13C8.074 145.45 7.762 146.446 7.138 147.118C6.526 147.778 5.614 148.108 4.402 148.108ZM19.7079 144.634H12.6879L11.1759 148H9.78991L15.5499 135.4H16.8639L22.6239 148H21.2199L19.7079 144.634ZM19.2219 143.554L16.1979 136.786L13.1739 143.554H19.2219ZM34.5339 135.4L28.9539 148H27.6399L22.0599 135.4H23.4999L28.3239 146.344L33.1839 135.4H34.5339ZM43.8778 144.634H36.8578L35.3458 148H33.9598L39.7198 135.4H41.0338L46.7938 148H45.3898L43.8778 144.634ZM43.3918 143.554L40.3678 136.786L37.3438 143.554H43.3918ZM52.3522 148.108C51.4162 148.108 50.5162 147.958 49.6522 147.658C48.8002 147.358 48.1402 146.962 47.6722 146.47L48.1942 145.444C48.6502 145.9 49.2562 146.272 50.0122 146.56C50.7682 146.836 51.5482 146.974 52.3522 146.974C53.4802 146.974 54.3262 146.77 54.8902 146.362C55.4542 145.942 55.7362 145.402 55.7362 144.742C55.7362 144.238 55.5802 143.836 55.2682 143.536C54.9682 143.236 54.5962 143.008 54.1522 142.852C53.7082 142.684 53.0902 142.504 52.2982 142.312C51.3502 142.072 50.5942 141.844 50.0302 141.628C49.4662 141.4 48.9802 141.058 48.5722 140.602C48.1762 140.146 47.9782 139.528 47.9782 138.748C47.9782 138.112 48.1462 137.536 48.4822 137.02C48.8182 136.492 49.3342 136.072 50.0302 135.76C50.7262 135.448 51.5902 135.292 52.6222 135.292C53.3422 135.292 54.0442 135.394 54.7282 135.598C55.4242 135.79 56.0242 136.06 56.5282 136.408L56.0782 137.47C55.5502 137.122 54.9862 136.864 54.3862 136.696C53.7862 136.516 53.1982 136.426 52.6222 136.426C51.5182 136.426 50.6842 136.642 50.1202 137.074C49.5682 137.494 49.2922 138.04 49.2922 138.712C49.2922 139.216 49.4422 139.624 49.7422 139.936C50.0542 140.236 50.4382 140.47 50.8942 140.638C51.3622 140.794 51.9862 140.968 52.7662 141.16C53.6902 141.388 54.4342 141.616 54.9982 141.844C55.5742 142.06 56.0602 142.396 56.4562 142.852C56.8522 143.296 57.0502 143.902 57.0502 144.67C57.0502 145.306 56.8762 145.888 56.5282 146.416C56.1922 146.932 55.6702 147.346 54.9622 147.658C54.2542 147.958 53.3842 148.108 52.3522 148.108ZM65.4244 148.108C64.1764 148.108 63.0484 147.832 62.0404 147.28C61.0444 146.728 60.2584 145.966 59.6824 144.994C59.1184 144.01 58.8364 142.912 58.8364 141.7C58.8364 140.488 59.1184 139.396 59.6824 138.424C60.2584 137.44 61.0504 136.672 62.0584 136.12C63.0664 135.568 64.1944 135.292 65.4424 135.292C66.3784 135.292 67.2424 135.448 68.0344 135.76C68.8264 136.072 69.4984 136.528 70.0504 137.128L69.2044 137.974C68.2204 136.978 66.9784 136.48 65.4784 136.48C64.4824 136.48 63.5764 136.708 62.7604 137.164C61.9444 137.62 61.3024 138.244 60.8344 139.036C60.3784 139.828 60.1504 140.716 60.1504 141.7C60.1504 142.684 60.3784 143.572 60.8344 144.364C61.3024 145.156 61.9444 145.78 62.7604 146.236C63.5764 146.692 64.4824 146.92 65.4784 146.92C66.9904 146.92 68.2324 146.416 69.2044 145.408L70.0504 146.254C69.4984 146.854 68.8204 147.316 68.0164 147.64C67.2244 147.952 66.3604 148.108 65.4244 148.108ZM81.4939 148L78.6139 143.95C78.2899 143.986 77.9539 144.004 77.6059 144.004H74.2219V148H72.8899V135.4H77.6059C79.2139 135.4 80.4739 135.784 81.3859 136.552C82.2979 137.32 82.7539 138.376 82.7539 139.72C82.7539 140.704 82.5019 141.538 81.9979 142.222C81.5059 142.894 80.7979 143.38 79.8739 143.68L82.9519 148H81.4939ZM77.5699 142.87C78.8179 142.87 79.7719 142.594 80.4319 142.042C81.0919 141.49 81.4219 140.716 81.4219 139.72C81.4219 138.7 81.0919 137.92 80.4319 137.38C79.7719 136.828 78.8179 136.552 77.5699 136.552H74.2219V142.87H77.5699ZM85.8977 135.4H87.2297V148H85.8977V135.4ZM96.0453 135.4C97.6533 135.4 98.9133 135.784 99.8253 136.552C100.737 137.32 101.193 138.376 101.193 139.72C101.193 141.064 100.737 142.12 99.8253 142.888C98.9133 143.644 97.6533 144.022 96.0453 144.022H92.6613V148H91.3293V135.4H96.0453ZM96.0093 142.852C97.2573 142.852 98.2113 142.582 98.8713 142.042C99.5313 141.49 99.8613 140.716 99.8613 139.72C99.8613 138.7 99.5313 137.92 98.8713 137.38C98.2113 136.828 97.2573 136.552 96.0093 136.552H92.6613V142.852H96.0093ZM106.1 136.552H101.672V135.4H111.86V136.552H107.432V148H106.1V136.552Z" fill="black"/>
<path d="M7.768 219.4C9.376 219.4 10.636 219.784 11.548 220.552C12.46 221.32 12.916 222.376 12.916 223.72C12.916 225.064 12.46 226.12 11.548 226.888C10.636 227.644 9.376 228.022 7.768 228.022H4.384V232H3.052V219.4H7.768ZM7.732 226.852C8.98 226.852 9.934 226.582 10.594 226.042C11.254 225.49 11.584 224.716 11.584 223.72C11.584 222.7 11.254 221.92 10.594 221.38C9.934 220.828 8.98 220.552 7.732 220.552H4.384V226.852H7.732ZM24.4001 232L21.5201 227.95C21.1961 227.986 20.8601 228.004 20.5121 228.004H17.1281V232H15.7961V219.4H20.5121C22.1201 219.4 23.3801 219.784 24.2921 220.552C25.2041 221.32 25.6601 222.376 25.6601 223.72C25.6601 224.704 25.4081 225.538 24.9041 226.222C24.4121 226.894 23.7041 227.38 22.7801 227.68L25.8581 232H24.4001ZM20.4761 226.87C21.7241 226.87 22.6781 226.594 23.3381 226.042C23.9981 225.49 24.3281 224.716 24.3281 223.72C24.3281 222.7 23.9981 221.92 23.3381 221.38C22.6781 220.828 21.7241 220.552 20.4761 220.552H17.1281V226.87H20.4761ZM34.312 232.108C33.064 232.108 31.93 231.832 30.91 231.28C29.902 230.716 29.11 229.948 28.534 228.976C27.97 228.004 27.688 226.912 27.688 225.7C27.688 224.488 27.97 223.396 28.534 222.424C29.11 221.452 29.902 220.69 30.91 220.138C31.93 219.574 33.064 219.292 34.312 219.292C35.56 219.292 36.682 219.568 37.678 220.12C38.686 220.672 39.478 221.44 40.054 222.424C40.63 223.396 40.918 224.488 40.918 225.7C40.918 226.912 40.63 228.01 40.054 228.994C39.478 229.966 38.686 230.728 37.678 231.28C36.682 231.832 35.56 232.108 34.312 232.108ZM34.312 230.92C35.308 230.92 36.208 230.698 37.012 230.254C37.816 229.798 38.446 229.174 38.902 228.382C39.358 227.578 39.586 226.684 39.586 225.7C39.586 224.716 39.358 223.828 38.902 223.036C38.446 222.232 37.816 221.608 37.012 221.164C36.208 220.708 35.308 220.48 34.312 220.48C33.316 220.48 32.41 220.708 31.594 221.164C30.79 221.608 30.154 222.232 29.686 223.036C29.23 223.828 29.002 224.716 29.002 225.7C29.002 226.684 29.23 227.578 29.686 228.382C30.154 229.174 30.79 229.798 31.594 230.254C32.41 230.698 33.316 230.92 34.312 230.92ZM49.3756 232.108C48.1276 232.108 46.9996 231.832 45.9916 231.28C44.9956 230.728 44.2096 229.966 43.6336 228.994C43.0696 228.01 42.7876 226.912 42.7876 225.7C42.7876 224.488 43.0696 223.396 43.6336 222.424C44.2096 221.44 45.0016 220.672 46.0096 220.12C47.0176 219.568 48.1456 219.292 49.3936 219.292C50.3296 219.292 51.1936 219.448 51.9856 219.76C52.7776 220.072 53.4496 220.528 54.0016 221.128L53.1556 221.974C52.1716 220.978 50.9296 220.48 49.4296 220.48C48.4336 220.48 47.5276 220.708 46.7116 221.164C45.8956 221.62 45.2536 222.244 44.7856 223.036C44.3296 223.828 44.1016 224.716 44.1016 225.7C44.1016 226.684 44.3296 227.572 44.7856 228.364C45.2536 229.156 45.8956 229.78 46.7116 230.236C47.5276 230.692 48.4336 230.92 49.4296 230.92C50.9416 230.92 52.1836 230.416 53.1556 229.408L54.0016 230.254C53.4496 230.854 52.7716 231.316 51.9676 231.64C51.1756 231.952 50.3116 232.108 49.3756 232.108ZM65.7511 230.848V232H56.8411V219.4H65.4811V220.552H58.1731V225.034H64.6891V226.168H58.1731V230.848H65.7511ZM72.3561 232.108C71.4201 232.108 70.5201 231.958 69.6561 231.658C68.8041 231.358 68.1441 230.962 67.6761 230.47L68.1981 229.444C68.6541 229.9 69.2601 230.272 70.0161 230.56C70.7721 230.836 71.5521 230.974 72.3561 230.974C73.4841 230.974 74.3301 230.77 74.8941 230.362C75.4581 229.942 75.7401 229.402 75.7401 228.742C75.7401 228.238 75.5841 227.836 75.2721 227.536C74.9721 227.236 74.6001 227.008 74.1561 226.852C73.7121 226.684 73.0941 226.504 72.3021 226.312C71.3541 226.072 70.5981 225.844 70.0341 225.628C69.4701 225.4 68.9841 225.058 68.5761 224.602C68.1801 224.146 67.9821 223.528 67.9821 222.748C67.9821 222.112 68.1501 221.536 68.4861 221.02C68.8221 220.492 69.3381 220.072 70.0341 219.76C70.7301 219.448 71.5941 219.292 72.6261 219.292C73.3461 219.292 74.0481 219.394 74.7321 219.598C75.4281 219.79 76.0281 220.06 76.5321 220.408L76.0821 221.47C75.5541 221.122 74.9901 220.864 74.3901 220.696C73.7901 220.516 73.2021 220.426 72.6261 220.426C71.5221 220.426 70.6881 220.642 70.1241 221.074C69.5721 221.494 69.2961 222.04 69.2961 222.712C69.2961 223.216 69.4461 223.624 69.7461 223.936C70.0581 224.236 70.4421 224.47 70.8981 224.638C71.3661 224.794 71.9901 224.968 72.7701 225.16C73.6941 225.388 74.4381 225.616 75.0021 225.844C75.5781 226.06 76.0641 226.396 76.4601 226.852C76.8561 227.296 77.0541 227.902 77.0541 228.67C77.0541 229.306 76.8801 229.888 76.5321 230.416C76.1961 230.932 75.6741 231.346 74.9661 231.658C74.2581 231.958 73.3881 232.108 72.3561 232.108ZM83.4303 232.108C82.4943 232.108 81.5943 231.958 80.7303 231.658C79.8783 231.358 79.2183 230.962 78.7503 230.47L79.2723 229.444C79.7283 229.9 80.3343 230.272 81.0903 230.56C81.8463 230.836 82.6263 230.974 83.4303 230.974C84.5583 230.974 85.4043 230.77 85.9683 230.362C86.5323 229.942 86.8143 229.402 86.8143 228.742C86.8143 228.238 86.6583 227.836 86.3463 227.536C86.0463 227.236 85.6743 227.008 85.2303 226.852C84.7863 226.684 84.1683 226.504 83.3763 226.312C82.4283 226.072 81.6723 225.844 81.1083 225.628C80.5443 225.4 80.0583 225.058 79.6503 224.602C79.2543 224.146 79.0563 223.528 79.0563 222.748C79.0563 222.112 79.2243 221.536 79.5603 221.02C79.8963 220.492 80.4123 220.072 81.1083 219.76C81.8043 219.448 82.6683 219.292 83.7003 219.292C84.4203 219.292 85.1223 219.394 85.8063 219.598C86.5023 219.79 87.1023 220.06 87.6063 220.408L87.1563 221.47C86.6283 221.122 86.0643 220.864 85.4643 220.696C84.8643 220.516 84.2763 220.426 83.7003 220.426C82.5963 220.426 81.7623 220.642 81.1983 221.074C80.6463 221.494 80.3703 222.04 80.3703 222.712C80.3703 223.216 80.5203 223.624 80.8203 223.936C81.1323 224.236 81.5163 224.47 81.9723 224.638C82.4403 224.794 83.0643 224.968 83.8443 225.16C84.7683 225.388 85.5123 225.616 86.0763 225.844C86.6523 226.06 87.1383 226.396 87.5343 226.852C87.9303 227.296 88.1283 227.902 88.1283 228.67C88.1283 229.306 87.9543 229.888 87.6063 230.416C87.2703 230.932 86.7483 231.346 86.0403 231.658C85.3323 231.958 84.4623 232.108 83.4303 232.108ZM91.0305 219.4H92.3625V232H91.0305V219.4ZM106.992 219.4V232H105.894L97.7942 221.776V232H96.4622V219.4H97.5602L105.678 229.624V219.4H106.992ZM119.979 225.7H121.257V230.506C120.669 231.022 119.973 231.418 119.169 231.694C118.365 231.97 117.519 232.108 116.631 232.108C115.371 232.108 114.237 231.832 113.229 231.28C112.221 230.728 111.429 229.966 110.853 228.994C110.277 228.01 109.989 226.912 109.989 225.7C109.989 224.488 110.277 223.396 110.853 222.424C111.429 221.44 112.221 220.672 113.229 220.12C114.237 219.568 115.377 219.292 116.649 219.292C117.609 219.292 118.491 219.448 119.295 219.76C120.099 220.06 120.777 220.51 121.329 221.11L120.501 221.956C119.505 220.972 118.239 220.48 116.703 220.48C115.683 220.48 114.759 220.708 113.931 221.164C113.115 221.608 112.473 222.232 112.005 223.036C111.537 223.828 111.303 224.716 111.303 225.7C111.303 226.684 111.537 227.572 112.005 228.364C112.473 229.156 113.115 229.78 113.931 230.236C114.747 230.692 115.665 230.92 116.685 230.92C117.981 230.92 119.079 230.596 119.979 229.948V225.7ZM128.465 216.844H129.635L123.695 233.8H122.525L128.465 216.844ZM135.772 219.4C137.38 219.4 138.64 219.784 139.552 220.552C140.464 221.32 140.92 222.376 140.92 223.72C140.92 225.064 140.464 226.12 139.552 226.888C138.64 227.644 137.38 228.022 135.772 228.022H132.388V232H131.056V219.4H135.772ZM135.736 226.852C136.984 226.852 137.938 226.582 138.598 226.042C139.258 225.49 139.588 224.716 139.588 223.72C139.588 222.7 139.258 221.92 138.598 221.38C137.938 220.828 136.984 220.552 135.736 220.552H132.388V226.852H135.736ZM145.996 224.566C147.82 224.566 149.146 224.896 149.974 225.556C150.814 226.204 151.234 227.116 151.234 228.292C151.234 229.024 151.06 229.678 150.712 230.254C150.376 230.83 149.866 231.286 149.182 231.622C148.498 231.946 147.658 232.108 146.662 232.108C145.762 232.108 144.904 231.964 144.088 231.676C143.284 231.376 142.636 230.98 142.144 230.488L142.774 229.462C143.194 229.894 143.746 230.248 144.43 230.524C145.114 230.788 145.852 230.92 146.644 230.92C147.688 230.92 148.492 230.686 149.056 230.218C149.632 229.75 149.92 229.126 149.92 228.346C149.92 227.482 149.596 226.828 148.948 226.384C148.312 225.94 147.232 225.718 145.708 225.718H143.026L143.674 219.4H150.568V220.552H144.808L144.376 224.566H145.996ZM153.851 232.09C153.587 232.09 153.359 231.994 153.167 231.802C152.987 231.61 152.897 231.376 152.897 231.1C152.897 230.824 152.987 230.596 153.167 230.416C153.359 230.224 153.587 230.128 153.851 230.128C154.115 230.128 154.343 230.224 154.535 230.416C154.727 230.596 154.823 230.824 154.823 231.1C154.823 231.376 154.727 231.61 154.535 231.802C154.343 231.994 154.115 232.09 153.851 232.09ZM160.197 232.108C159.477 232.108 158.811 231.952 158.199 231.64C157.587 231.328 157.089 230.884 156.705 230.308L157.497 229.408C158.193 230.44 159.099 230.956 160.215 230.956C161.775 230.956 162.555 230.032 162.555 228.184V220.552H157.947V219.4H163.869V228.13C163.869 229.45 163.557 230.446 162.933 231.118C162.321 231.778 161.409 232.108 160.197 232.108ZM171.339 232.108C170.403 232.108 169.503 231.958 168.639 231.658C167.787 231.358 167.127 230.962 166.659 230.47L167.181 229.444C167.637 229.9 168.243 230.272 168.999 230.56C169.755 230.836 170.535 230.974 171.339 230.974C172.467 230.974 173.313 230.77 173.877 230.362C174.441 229.942 174.723 229.402 174.723 228.742C174.723 228.238 174.567 227.836 174.255 227.536C173.955 227.236 173.583 227.008 173.139 226.852C172.695 226.684 172.077 226.504 171.285 226.312C170.337 226.072 169.581 225.844 169.017 225.628C168.453 225.4 167.967 225.058 167.559 224.602C167.163 224.146 166.965 223.528 166.965 222.748C166.965 222.112 167.133 221.536 167.469 221.02C167.805 220.492 168.321 220.072 169.017 219.76C169.713 219.448 170.577 219.292 171.609 219.292C172.329 219.292 173.031 219.394 173.715 219.598C174.411 219.79 175.011 220.06 175.515 220.408L175.064 221.47C174.537 221.122 173.973 220.864 173.373 220.696C172.773 220.516 172.185 220.426 171.609 220.426C170.505 220.426 169.671 220.642 169.107 221.074C168.555 221.494 168.279 222.04 168.279 222.712C168.279 223.216 168.429 223.624 168.729 223.936C169.041 224.236 169.425 224.47 169.881 224.638C170.349 224.794 170.973 224.968 171.753 225.16C172.677 225.388 173.421 225.616 173.985 225.844C174.561 226.06 175.047 226.396 175.443 226.852C175.839 227.296 176.037 227.902 176.037 228.67C176.037 229.306 175.863 229.888 175.515 230.416C175.179 230.932 174.657 231.346 173.949 231.658C173.241 231.958 172.371 232.108 171.339 232.108Z" fill="black"/>
</svg>
