<svg width="496" height="232" viewBox="0 0 496 232" fill="none" xmlns="http://www.w3.org/2000/svg">
<rect x="274.385" y="64.6923" width="220.846" height="6.69231" rx="3.34615" fill="black"/>
<rect x="274.385" y="113.769" width="220.846" height="6.69231" rx="3.34615" fill="black"/>
<rect x="274.385" y="162.846" width="220.846" height="6.69231" rx="3.34615" fill="black"/>
<rect x="274.385" y="209.692" width="220.846" height="6.69231" rx="3.34615" fill="black"/>
<path d="M7.56 22.108C6.312 22.108 5.178 21.832 4.158 21.28C3.15 20.716 2.358 19.948 1.782 18.976C1.218 18.004 0.936 16.912 0.936 15.7C0.936 14.488 1.218 13.396 1.782 12.424C2.358 11.452 3.15 10.69 4.158 10.138C5.178 9.574 6.312 9.292 7.56 9.292C8.808 9.292 9.93 9.568 10.926 10.12C11.934 10.672 12.726 11.44 13.302 12.424C13.878 13.396 14.166 14.488 14.166 15.7C14.166 16.912 13.878 18.01 13.302 18.994C12.726 19.966 11.934 20.728 10.926 21.28C9.93 21.832 8.808 22.108 7.56 22.108ZM7.56 20.92C8.556 20.92 9.456 20.698 10.26 20.254C11.064 19.798 11.694 19.174 12.15 18.382C12.606 17.578 12.834 16.684 12.834 15.7C12.834 14.716 12.606 13.828 12.15 13.036C11.694 12.232 11.064 11.608 10.26 11.164C9.456 10.708 8.556 10.48 7.56 10.48C6.564 10.48 5.658 10.708 4.842 11.164C4.038 11.608 3.402 12.232 2.934 13.036C2.478 13.828 2.25 14.716 2.25 15.7C2.25 16.684 2.478 17.578 2.934 18.382C3.402 19.174 4.038 19.798 4.842 20.254C5.658 20.698 6.564 20.92 7.56 20.92ZM25.7556 22L22.8756 17.95C22.5516 17.986 22.2156 18.004 21.8676 18.004H18.4836V22H17.1516V9.4H21.8676C23.4756 9.4 24.7356 9.784 25.6476 10.552C26.5596 11.32 27.0156 12.376 27.0156 13.72C27.0156 14.704 26.7636 15.538 26.2596 16.222C25.7676 16.894 25.0596 17.38 24.1356 17.68L27.2136 22H25.7556ZM21.8316 16.87C23.0796 16.87 24.0336 16.594 24.6936 16.042C25.3536 15.49 25.6836 14.716 25.6836 13.72C25.6836 12.7 25.3536 11.92 24.6936 11.38C24.0336 10.828 23.0796 10.552 21.8316 10.552H18.4836V16.87H21.8316ZM39.0334 15.7H40.3114V20.506C39.7234 21.022 39.0274 21.418 38.2234 21.694C37.4194 21.97 36.5734 22.108 35.6854 22.108C34.4254 22.108 33.2914 21.832 32.2834 21.28C31.2754 20.728 30.4834 19.966 29.9074 18.994C29.3314 18.01 29.0434 16.912 29.0434 15.7C29.0434 14.488 29.3314 13.396 29.9074 12.424C30.4834 11.44 31.2754 10.672 32.2834 10.12C33.2914 9.568 34.4314 9.292 35.7034 9.292C36.6634 9.292 37.5454 9.448 38.3494 9.76C39.1534 10.06 39.8314 10.51 40.3834 11.11L39.5554 11.956C38.5594 10.972 37.2934 10.48 35.7574 10.48C34.7374 10.48 33.8134 10.708 32.9854 11.164C32.1694 11.608 31.5274 12.232 31.0594 13.036C30.5914 13.828 30.3574 14.716 30.3574 15.7C30.3574 16.684 30.5914 17.572 31.0594 18.364C31.5274 19.156 32.1694 19.78 32.9854 20.236C33.8014 20.692 34.7194 20.92 35.7394 20.92C37.0354 20.92 38.1334 20.596 39.0334 19.948V15.7ZM51.9833 18.634H44.9633L43.4513 22H42.0653L47.8253 9.4H49.1393L54.8993 22H53.4953L51.9833 18.634ZM51.4973 17.554L48.4733 10.786L45.4493 17.554H51.4973ZM67.5136 9.4V22H66.4156L58.3156 11.776V22H56.9836V9.4H58.0816L66.1996 19.624V9.4H67.5136ZM71.6262 9.4H72.9582V22H71.6262V9.4ZM86.1479 20.848V22H75.8159V21.082L84.1679 10.552H75.9419V9.4H85.9319V10.318L77.5979 20.848H86.1479ZM96.6845 18.634H89.6645L88.1525 22H86.7665L92.5265 9.4H93.8405L99.6005 22H98.1965L96.6845 18.634ZM96.1985 17.554L93.1745 10.786L90.1505 17.554H96.1985ZM103.5 10.552H99.072V9.4H109.26V10.552H104.832V22H103.5V10.552ZM111.388 9.4H112.72V22H111.388V9.4ZM122.328 22.108C121.08 22.108 119.946 21.832 118.926 21.28C117.918 20.716 117.126 19.948 116.55 18.976C115.986 18.004 115.704 16.912 115.704 15.7C115.704 14.488 115.986 13.396 116.55 12.424C117.126 11.452 117.918 10.69 118.926 10.138C119.946 9.574 121.08 9.292 122.328 9.292C123.576 9.292 124.698 9.568 125.694 10.12C126.702 10.672 127.494 11.44 128.07 12.424C128.646 13.396 128.934 14.488 128.934 15.7C128.934 16.912 128.646 18.01 128.07 18.994C127.494 19.966 126.702 20.728 125.694 21.28C124.698 21.832 123.576 22.108 122.328 22.108ZM122.328 20.92C123.324 20.92 124.224 20.698 125.028 20.254C125.832 19.798 126.462 19.174 126.918 18.382C127.374 17.578 127.602 16.684 127.602 15.7C127.602 14.716 127.374 13.828 126.918 13.036C126.462 12.232 125.832 11.608 125.028 11.164C124.224 10.708 123.324 10.48 122.328 10.48C121.332 10.48 120.426 10.708 119.61 11.164C118.806 11.608 118.17 12.232 117.702 13.036C117.246 13.828 117.018 14.716 117.018 15.7C117.018 16.684 117.246 17.578 117.702 18.382C118.17 19.174 118.806 19.798 119.61 20.254C120.426 20.698 121.332 20.92 122.328 20.92ZM142.449 9.4V22H141.351L133.251 11.776V22H131.919V9.4H133.017L141.135 19.624V9.4H142.449Z" fill="black"/>
<path d="M7.524 120.262C6.276 120.262 5.148 119.986 4.14 119.434C3.144 118.882 2.358 118.12 1.782 117.148C1.218 116.164 0.936 115.066 0.936 113.854C0.936 112.642 1.218 111.55 1.782 110.578C2.358 109.594 3.15 108.826 4.158 108.274C5.166 107.722 6.294 107.446 7.542 107.446C8.478 107.446 9.342 107.602 10.134 107.914C10.926 108.226 11.598 108.682 12.15 109.282L11.304 110.128C10.32 109.132 9.078 108.634 7.578 108.634C6.582 108.634 5.676 108.862 4.86 109.318C4.044 109.774 3.402 110.398 2.934 111.19C2.478 111.982 2.25 112.87 2.25 113.854C2.25 114.838 2.478 115.726 2.934 116.518C3.402 117.31 4.044 117.934 4.86 118.39C5.676 118.846 6.582 119.074 7.578 119.074C9.09 119.074 10.332 118.57 11.304 117.562L12.15 118.408C11.598 119.008 10.92 119.47 10.116 119.794C9.324 120.106 8.46 120.262 7.524 120.262ZM23.5935 120.154L20.7135 116.104C20.3895 116.14 20.0535 116.158 19.7055 116.158H16.3215V120.154H14.9895V107.554H19.7055C21.3135 107.554 22.5735 107.938 23.4855 108.706C24.3975 109.474 24.8535 110.53 24.8535 111.874C24.8535 112.858 24.6015 113.692 24.0975 114.376C23.6055 115.048 22.8975 115.534 21.9735 115.834L25.0515 120.154H23.5935ZM19.6695 115.024C20.9175 115.024 21.8715 114.748 22.5315 114.196C23.1915 113.644 23.5215 112.87 23.5215 111.874C23.5215 110.854 23.1915 110.074 22.5315 109.534C21.8715 108.982 20.9175 108.706 19.6695 108.706H16.3215V115.024H19.6695ZM36.9073 119.002V120.154H27.9973V107.554H36.6373V108.706H29.3293V113.188H35.8453V114.322H29.3293V119.002H36.9073ZM47.9403 116.788H40.9203L39.4083 120.154H38.0223L43.7823 107.554H45.0963L50.8563 120.154H49.4523L47.9403 116.788ZM47.4543 115.708L44.4303 108.94L41.4063 115.708H47.4543ZM54.7559 108.706H50.3279V107.554H60.5159V108.706H56.0879V120.154H54.7559V108.706ZM62.6438 107.554H63.9758V120.154H62.6438V107.554ZM78.4108 107.554L72.8308 120.154H71.5168L65.9368 107.554H67.3768L72.2008 118.498L77.0608 107.554H78.4108ZM80.2395 107.554H81.5715V120.154H80.2395V107.554ZM88.1191 108.706H83.6911V107.554H93.8791V108.706H89.4511V120.154H88.1191V108.706ZM100.239 115.798V120.154H98.9252V115.798L93.8852 107.554H95.3072L99.6272 114.628L103.947 107.554H105.279L100.239 115.798Z" fill="black"/>
<path d="M9.954 67.7109H2.934L1.422 71.0769H0.036L5.796 58.4769H7.11L12.87 71.0769H11.466L9.954 67.7109ZM9.468 66.6309L6.444 59.8629L3.42 66.6309H9.468ZM19.7667 71.1849C18.1347 71.1849 16.8627 70.7169 15.9507 69.7809C15.0387 68.8449 14.5827 67.4829 14.5827 65.6949V58.4769H15.9147V65.6409C15.9147 67.1049 16.2447 68.1969 16.9047 68.9169C17.5647 69.6369 18.5187 69.9969 19.7667 69.9969C21.0267 69.9969 21.9867 69.6369 22.6467 68.9169C23.3067 68.1969 23.6367 67.1049 23.6367 65.6409V58.4769H24.9327V65.6949C24.9327 67.4829 24.4767 68.8449 23.5647 69.7809C22.6647 70.7169 21.3987 71.1849 19.7667 71.1849ZM31.1484 59.6289H26.7204V58.4769H36.9084V59.6289H32.4804V71.0769H31.1484V59.6289ZM44.3686 71.1849C43.1206 71.1849 41.9866 70.9089 40.9666 70.3569C39.9586 69.7929 39.1666 69.0249 38.5906 68.0529C38.0266 67.0809 37.7446 65.9889 37.7446 64.7769C37.7446 63.5649 38.0266 62.4729 38.5906 61.5009C39.1666 60.5289 39.9586 59.7669 40.9666 59.2149C41.9866 58.6509 43.1206 58.3689 44.3686 58.3689C45.6166 58.3689 46.7386 58.6449 47.7346 59.1969C48.7426 59.7489 49.5346 60.5169 50.1106 61.5009C50.6866 62.4729 50.9746 63.5649 50.9746 64.7769C50.9746 65.9889 50.6866 67.0869 50.1106 68.0709C49.5346 69.0429 48.7426 69.8049 47.7346 70.3569C46.7386 70.9089 45.6166 71.1849 44.3686 71.1849ZM44.3686 69.9969C45.3646 69.9969 46.2646 69.7749 47.0686 69.3309C47.8726 68.8749 48.5026 68.2509 48.9586 67.4589C49.4146 66.6549 49.6426 65.7609 49.6426 64.7769C49.6426 63.7929 49.4146 62.9049 48.9586 62.1129C48.5026 61.3089 47.8726 60.6849 47.0686 60.2409C46.2646 59.7849 45.3646 59.5569 44.3686 59.5569C43.3726 59.5569 42.4666 59.7849 41.6506 60.2409C40.8466 60.6849 40.2106 61.3089 39.7426 62.1129C39.2866 62.9049 39.0586 63.7929 39.0586 64.7769C39.0586 65.7609 39.2866 66.6549 39.7426 67.4589C40.2106 68.2509 40.8466 68.8749 41.6506 69.3309C42.4666 69.7749 43.3726 69.9969 44.3686 69.9969ZM64.4902 58.4769V71.0769H63.3922L55.2922 60.8529V71.0769H53.9602V58.4769H55.0582L63.1762 68.7009V58.4769H64.4902ZM74.1108 71.1849C72.8628 71.1849 71.7288 70.9089 70.7088 70.3569C69.7008 69.7929 68.9088 69.0249 68.3328 68.0529C67.7688 67.0809 67.4868 65.9889 67.4868 64.7769C67.4868 63.5649 67.7688 62.4729 68.3328 61.5009C68.9088 60.5289 69.7008 59.7669 70.7088 59.2149C71.7288 58.6509 72.8628 58.3689 74.1108 58.3689C75.3588 58.3689 76.4808 58.6449 77.4768 59.1969C78.4848 59.7489 79.2768 60.5169 79.8528 61.5009C80.4288 62.4729 80.7168 63.5649 80.7168 64.7769C80.7168 65.9889 80.4288 67.0869 79.8528 68.0709C79.2768 69.0429 78.4848 69.8049 77.4768 70.3569C76.4808 70.9089 75.3588 71.1849 74.1108 71.1849ZM74.1108 69.9969C75.1068 69.9969 76.0068 69.7749 76.8108 69.3309C77.6148 68.8749 78.2448 68.2509 78.7008 67.4589C79.1568 66.6549 79.3848 65.7609 79.3848 64.7769C79.3848 63.7929 79.1568 62.9049 78.7008 62.1129C78.2448 61.3089 77.6148 60.6849 76.8108 60.2409C76.0068 59.7849 75.1068 59.5569 74.1108 59.5569C73.1148 59.5569 72.2088 59.7849 71.3928 60.2409C70.5888 60.6849 69.9528 61.3089 69.4848 62.1129C69.0288 62.9049 68.8008 63.7929 68.8008 64.7769C68.8008 65.7609 69.0288 66.6549 69.4848 67.4589C69.9528 68.2509 70.5888 68.8749 71.3928 69.3309C72.2088 69.7749 73.1148 69.9969 74.1108 69.9969ZM96.7884 58.4769V71.0769H95.5104V60.9969L90.5604 69.4749H89.9304L84.9804 61.0509V71.0769H83.7024V58.4769H84.8004L90.2724 67.8189L95.6904 58.4769H96.7884ZM105.214 66.7209V71.0769H103.9V66.7209L98.8598 58.4769H100.282L104.602 65.5509L108.922 58.4769H110.254L105.214 66.7209Z" fill="black"/>
<path d="M4.5 157.783H0.072V156.631H10.26V157.783H5.832V169.231H4.5V157.783ZM21.2979 168.079V169.231H12.3879V156.631H21.0279V157.783H13.7199V162.265H20.2359V163.399H13.7199V168.079H21.2979ZM32.331 165.865H25.311L23.799 169.231H22.413L28.173 156.631H29.487L35.247 169.231H33.843L32.331 165.865ZM31.845 164.785L28.821 158.017L25.797 164.785H31.845ZM50.4173 156.631V169.231H49.1393V159.151L44.1893 167.629H43.5593L38.6093 159.205V169.231H37.3313V156.631H38.4293L43.9013 165.973L49.3193 156.631H50.4173ZM76.5316 156.631L72.2836 169.231H70.8796L67.1896 158.485L63.4816 169.231H62.0956L57.8476 156.631H59.2156L62.8516 167.467L66.6136 156.631H67.8556L71.5636 167.521L75.2536 156.631H76.5316ZM84.3588 169.339C83.1108 169.339 81.9768 169.063 80.9568 168.511C79.9488 167.947 79.1568 167.179 78.5808 166.207C78.0168 165.235 77.7348 164.143 77.7348 162.931C77.7348 161.719 78.0168 160.627 78.5808 159.655C79.1568 158.683 79.9488 157.921 80.9568 157.369C81.9768 156.805 83.1108 156.523 84.3588 156.523C85.6068 156.523 86.7288 156.799 87.7248 157.351C88.7328 157.903 89.5248 158.671 90.1008 159.655C90.6768 160.627 90.9648 161.719 90.9648 162.931C90.9648 164.143 90.6768 165.241 90.1008 166.225C89.5248 167.197 88.7328 167.959 87.7248 168.511C86.7288 169.063 85.6068 169.339 84.3588 169.339ZM84.3588 168.151C85.3548 168.151 86.2548 167.929 87.0588 167.485C87.8628 167.029 88.4928 166.405 88.9488 165.613C89.4048 164.809 89.6328 163.915 89.6328 162.931C89.6328 161.947 89.4048 161.059 88.9488 160.267C88.4928 159.463 87.8628 158.839 87.0588 158.395C86.2548 157.939 85.3548 157.711 84.3588 157.711C83.3628 157.711 82.4568 157.939 81.6408 158.395C80.8368 158.839 80.2008 159.463 79.7328 160.267C79.2768 161.059 79.0488 161.947 79.0488 162.931C79.0488 163.915 79.2768 164.809 79.7328 165.613C80.2008 166.405 80.8368 167.029 81.6408 167.485C82.4568 167.929 83.3628 168.151 84.3588 168.151ZM102.554 169.231L99.6744 165.181C99.3504 165.217 99.0144 165.235 98.6664 165.235H95.2824V169.231H93.9504V156.631H98.6664C100.274 156.631 101.534 157.015 102.446 157.783C103.358 158.551 103.814 159.607 103.814 160.951C103.814 161.935 103.562 162.769 103.058 163.453C102.566 164.125 101.858 164.611 100.934 164.911L104.012 169.231H102.554ZM98.6304 164.101C99.8784 164.101 100.832 163.825 101.492 163.273C102.152 162.721 102.482 161.947 102.482 160.951C102.482 159.931 102.152 159.151 101.492 158.611C100.832 158.059 99.8784 157.783 98.6304 157.783H95.2824V164.101H98.6304ZM110.864 163.309L108.29 165.919V169.231H106.958V156.631H108.29V164.245L115.688 156.631H117.218L111.764 162.337L117.596 169.231H116.012L110.864 163.309Z" fill="black"/>
<path d="M7.56 216.185C6.312 216.185 5.178 215.909 4.158 215.357C3.15 214.793 2.358 214.025 1.782 213.053C1.218 212.081 0.936 210.989 0.936 209.777C0.936 208.565 1.218 207.473 1.782 206.501C2.358 205.529 3.15 204.767 4.158 204.215C5.178 203.651 6.312 203.369 7.56 203.369C8.808 203.369 9.93 203.645 10.926 204.197C11.934 204.749 12.726 205.517 13.302 206.501C13.878 207.473 14.166 208.565 14.166 209.777C14.166 210.989 13.878 212.087 13.302 213.071C12.726 214.043 11.934 214.805 10.926 215.357C9.93 215.909 8.808 216.185 7.56 216.185ZM7.56 214.997C8.556 214.997 9.456 214.775 10.26 214.331C11.064 213.875 11.694 213.251 12.15 212.459C12.606 211.655 12.834 210.761 12.834 209.777C12.834 208.793 12.606 207.905 12.15 207.113C11.694 206.309 11.064 205.685 10.26 205.241C9.456 204.785 8.556 204.557 7.56 204.557C6.564 204.557 5.658 204.785 4.842 205.241C4.038 205.685 3.402 206.309 2.934 207.113C2.478 207.905 2.25 208.793 2.25 209.777C2.25 210.761 2.478 211.655 2.934 212.459C3.402 213.251 4.038 213.875 4.842 214.331C5.658 214.775 6.564 214.997 7.56 214.997ZM21.8676 203.477C23.4756 203.477 24.7356 203.861 25.6476 204.629C26.5596 205.397 27.0156 206.453 27.0156 207.797C27.0156 209.141 26.5596 210.197 25.6476 210.965C24.7356 211.721 23.4756 212.099 21.8676 212.099H18.4836V216.077H17.1516V203.477H21.8676ZM21.8316 210.929C23.0796 210.929 24.0336 210.659 24.6936 210.119C25.3536 209.567 25.6836 208.793 25.6836 207.797C25.6836 206.777 25.3536 205.997 24.6936 205.457C24.0336 204.905 23.0796 204.629 21.8316 204.629H18.4836V210.929H21.8316ZM38.8058 214.925V216.077H29.8958V203.477H38.5358V204.629H31.2278V209.111H37.7438V210.245H31.2278V214.925H38.8058ZM52.4668 203.477V216.077H51.3688L43.2688 205.853V216.077H41.9368V203.477H43.0348L51.1528 213.701V203.477H52.4668ZM74.3763 203.477V216.077H73.0983V205.997L68.1483 214.475H67.5183L62.5683 206.051V216.077H61.2903V203.477H62.3883L67.8603 212.819L73.2783 203.477H74.3763ZM78.4817 203.477H79.8137V216.077H78.4817V203.477ZM94.4433 203.477V216.077H93.3453L85.2453 205.853V216.077H83.9133V203.477H85.0113L93.1293 213.701V203.477H94.4433ZM98.5559 203.477H103.686C105.018 203.477 106.194 203.747 107.214 204.287C108.234 204.815 109.026 205.559 109.59 206.519C110.154 207.467 110.436 208.553 110.436 209.777C110.436 211.001 110.154 212.093 109.59 213.053C109.026 214.001 108.234 214.745 107.214 215.285C106.194 215.813 105.018 216.077 103.686 216.077H98.5559V203.477ZM103.614 214.925C104.718 214.925 105.684 214.709 106.512 214.277C107.34 213.833 107.982 213.227 108.438 212.459C108.894 211.679 109.122 210.785 109.122 209.777C109.122 208.769 108.894 207.881 108.438 207.113C107.982 206.333 107.34 205.727 106.512 205.295C105.684 204.851 104.718 204.629 103.614 204.629H99.8879V214.925H103.614ZM122.337 214.925V216.077H113.427V203.477H122.067V204.629H114.759V209.111H121.275V210.245H114.759V214.925H122.337ZM125.468 203.477H130.598C131.93 203.477 133.106 203.747 134.126 204.287C135.146 204.815 135.938 205.559 136.502 206.519C137.066 207.467 137.348 208.553 137.348 209.777C137.348 211.001 137.066 212.093 136.502 213.053C135.938 214.001 135.146 214.745 134.126 215.285C133.106 215.813 131.93 216.077 130.598 216.077H125.468V203.477ZM130.526 214.925C131.63 214.925 132.596 214.709 133.424 214.277C134.252 213.833 134.894 213.227 135.35 212.459C135.806 211.679 136.034 210.785 136.034 209.777C136.034 208.769 135.806 207.881 135.35 207.113C134.894 206.333 134.252 205.727 133.424 205.295C132.596 204.851 131.63 204.629 130.526 204.629H126.8V214.925H130.526ZM150.869 203.477V216.077H149.771L141.671 205.853V216.077H140.339V203.477H141.437L149.555 213.701V203.477H150.869ZM163.892 214.925V216.077H154.982V203.477H163.622V204.629H156.314V209.111H162.83V210.245H156.314V214.925H163.892ZM170.497 216.185C169.561 216.185 168.661 216.035 167.797 215.735C166.945 215.435 166.285 215.039 165.817 214.547L166.339 213.521C166.795 213.977 167.401 214.349 168.157 214.637C168.913 214.913 169.693 215.051 170.497 215.051C171.625 215.051 172.471 214.847 173.035 214.439C173.599 214.019 173.881 213.479 173.881 212.819C173.881 212.315 173.725 211.913 173.413 211.613C173.113 211.313 172.741 211.085 172.297 210.929C171.853 210.761 171.235 210.581 170.443 210.389C169.495 210.149 168.739 209.921 168.175 209.705C167.611 209.477 167.125 209.135 166.717 208.679C166.321 208.223 166.123 207.605 166.123 206.825C166.123 206.189 166.291 205.613 166.627 205.097C166.963 204.569 167.479 204.149 168.175 203.837C168.871 203.525 169.735 203.369 170.767 203.369C171.487 203.369 172.189 203.471 172.873 203.675C173.569 203.867 174.169 204.137 174.673 204.485L174.223 205.547C173.695 205.199 173.131 204.941 172.531 204.773C171.931 204.593 171.343 204.503 170.767 204.503C169.663 204.503 168.829 204.719 168.265 205.151C167.713 205.571 167.437 206.117 167.437 206.789C167.437 207.293 167.587 207.701 167.887 208.013C168.199 208.313 168.583 208.547 169.039 208.715C169.507 208.871 170.131 209.045 170.911 209.237C171.835 209.465 172.579 209.693 173.143 209.921C173.719 210.137 174.205 210.473 174.601 210.929C174.997 211.373 175.195 211.979 175.195 212.747C175.195 213.383 175.021 213.965 174.673 214.493C174.337 215.009 173.815 215.423 173.107 215.735C172.399 216.035 171.529 216.185 170.497 216.185ZM181.571 216.185C180.635 216.185 179.735 216.035 178.871 215.735C178.019 215.435 177.359 215.039 176.891 214.547L177.413 213.521C177.869 213.977 178.475 214.349 179.231 214.637C179.987 214.913 180.767 215.051 181.571 215.051C182.699 215.051 183.545 214.847 184.109 214.439C184.673 214.019 184.955 213.479 184.955 212.819C184.955 212.315 184.799 211.913 184.487 211.613C184.187 211.313 183.815 211.085 183.371 210.929C182.927 210.761 182.309 210.581 181.517 210.389C180.569 210.149 179.813 209.921 179.249 209.705C178.685 209.477 178.199 209.135 177.791 208.679C177.395 208.223 177.197 207.605 177.197 206.825C177.197 206.189 177.365 205.613 177.701 205.097C178.037 204.569 178.553 204.149 179.249 203.837C179.945 203.525 180.809 203.369 181.841 203.369C182.561 203.369 183.263 203.471 183.947 203.675C184.643 203.867 185.243 204.137 185.747 204.485L185.297 205.547C184.769 205.199 184.205 204.941 183.605 204.773C183.005 204.593 182.417 204.503 181.841 204.503C180.737 204.503 179.903 204.719 179.339 205.151C178.787 205.571 178.511 206.117 178.511 206.789C178.511 207.293 178.661 207.701 178.961 208.013C179.273 208.313 179.657 208.547 180.113 208.715C180.581 208.871 181.205 209.045 181.985 209.237C182.909 209.465 183.653 209.693 184.217 209.921C184.793 210.137 185.279 210.473 185.675 210.929C186.071 211.373 186.269 211.979 186.269 212.747C186.269 213.383 186.095 213.965 185.747 214.493C185.411 215.009 184.889 215.423 184.181 215.735C183.473 216.035 182.603 216.185 181.571 216.185Z" fill="black"/>
<rect x="274.385" y="17.8461" width="220.846" height="6.69231" rx="3.34615" fill="black"/>
<circle cx="428.307" cy="20.0769" r="8.92308" fill="black"/>
<circle cx="457.307" cy="69.1538" r="8.92308" fill="black"/>
<circle cx="428.307" cy="118.231" r="8.92308" fill="black"/>
<circle cx="399.308" cy="167.308" r="8.92308" fill="black"/>
<circle cx="457.307" cy="214.154" r="8.92308" fill="black"/>
</svg>
