<svg width="856" height="29" viewBox="0 0 856 29" fill="none" xmlns="http://www.w3.org/2000/svg">
<path d="M4.32 19.144C3.75467 19.144 3.232 19.0213 2.752 18.776C2.28267 18.5307 1.90933 18.168 1.632 17.688C1.36533 17.1973 1.232 16.6053 1.232 15.912V11.176H2.496V15.816C2.496 16.5947 2.688 17.16 3.072 17.512C3.46667 17.864 3.99467 18.04 4.656 18.04C5.40267 18.04 6.016 17.7947 6.496 17.304C6.976 16.8133 7.216 16.0827 7.216 15.112V11.176H8.48V19H7.248V17.672H7.024C6.85333 18.0453 6.56 18.3867 6.144 18.696C5.728 18.9947 5.12 19.144 4.32 19.144ZM10.4849 19L13.6209 15.032L10.5809 11.176H12.1009L14.4369 14.2H14.6609L16.9809 11.176H18.5169L15.4609 15.032L18.5969 19H17.0609L14.6609 15.88H14.4369L12.0369 19H10.4849ZM19.2812 22.2L23.9852 7.8H25.2493L20.5453 22.2H19.2812ZM29.5231 19.144C28.9578 19.144 28.4351 19.0213 27.9551 18.776C27.4858 18.5307 27.1125 18.168 26.8351 17.688C26.5685 17.1973 26.4351 16.6053 26.4351 15.912V11.176H27.6991V15.816C27.6991 16.5947 27.8911 17.16 28.2751 17.512C28.6698 17.864 29.1978 18.04 29.8591 18.04C30.6058 18.04 31.2191 17.7947 31.6991 17.304C32.1791 16.8133 32.4191 16.0827 32.4191 15.112V11.176H33.6831V19H32.4511V17.672H32.2271C32.0565 18.0453 31.7631 18.3867 31.3471 18.696C30.9311 18.9947 30.3231 19.144 29.5231 19.144ZM36.328 19V11.176H37.592V19H36.328ZM36.968 9.96C36.6907 9.96 36.456 9.86933 36.264 9.688C36.0827 9.50667 35.992 9.27733 35.992 9C35.992 8.712 36.0827 8.47733 36.264 8.296C36.456 8.11467 36.6907 8.024 36.968 8.024C37.2453 8.024 37.4747 8.11467 37.656 8.296C37.8373 8.47733 37.928 8.712 37.928 9C37.928 9.27733 37.8373 9.50667 37.656 9.688C37.4747 9.86933 37.2453 9.96 36.968 9.96Z" fill="black"/>
<path d="M105.944 15.128V14.904C105.944 14.0827 106.109 13.3787 106.44 12.792C106.771 12.2053 107.219 11.752 107.784 11.432C108.349 11.112 108.968 10.952 109.64 10.952C110.461 10.952 111.091 11.112 111.528 11.432C111.976 11.7413 112.307 12.088 112.52 12.472H112.744V11.176H113.944V20.824C113.944 21.2507 113.827 21.5867 113.592 21.832C113.357 22.0773 113.016 22.2 112.568 22.2H107.256V21.08H112.232C112.552 21.08 112.712 20.92 112.712 20.6V17.624H112.488C112.36 17.8587 112.179 18.088 111.944 18.312C111.709 18.536 111.405 18.7227 111.032 18.872C110.659 19.0107 110.195 19.08 109.64 19.08C108.968 19.08 108.349 18.92 107.784 18.6C107.219 18.28 106.771 17.8267 106.44 17.24C106.109 16.6427 105.944 15.9387 105.944 15.128ZM109.976 17.96C110.787 17.96 111.443 17.704 111.944 17.192C112.456 16.68 112.712 15.976 112.712 15.08V14.952C112.712 14.0453 112.456 13.3413 111.944 12.84C111.443 12.328 110.787 12.072 109.976 12.072C109.176 12.072 108.515 12.328 107.992 12.84C107.48 13.3413 107.224 14.0453 107.224 14.952V15.08C107.224 15.976 107.48 16.68 107.992 17.192C108.515 17.704 109.176 17.96 109.976 17.96ZM116.594 19V11.176H117.826V12.136H118.05C118.188 11.7947 118.402 11.544 118.69 11.384C118.978 11.224 119.356 11.144 119.826 11.144H120.754V12.296H119.746C119.18 12.296 118.722 12.456 118.37 12.776C118.028 13.0853 117.858 13.5707 117.858 14.232V19H116.594ZM124.759 19.224C124.215 19.224 123.719 19.128 123.271 18.936C122.823 18.744 122.471 18.4667 122.215 18.104C121.959 17.7413 121.831 17.2987 121.831 16.776C121.831 16.2427 121.959 15.8053 122.215 15.464C122.471 15.112 122.823 14.8507 123.271 14.68C123.719 14.4987 124.221 14.408 124.775 14.408H127.415V13.832C127.415 13.2773 127.25 12.84 126.919 12.52C126.599 12.2 126.119 12.04 125.479 12.04C124.85 12.04 124.359 12.1947 124.007 12.504C123.655 12.8027 123.415 13.208 123.287 13.72L122.103 13.336C122.231 12.8987 122.434 12.504 122.711 12.152C122.989 11.7893 123.357 11.5013 123.815 11.288C124.285 11.064 124.845 10.952 125.495 10.952C126.498 10.952 127.277 11.2133 127.831 11.736C128.386 12.248 128.663 12.9733 128.663 13.912V17.448C128.663 17.768 128.813 17.928 129.111 17.928H129.831V19H128.727C128.375 19 128.093 18.904 127.879 18.712C127.666 18.5093 127.559 18.2427 127.559 17.912V17.832H127.367C127.25 18.0347 127.09 18.248 126.887 18.472C126.695 18.6853 126.429 18.8613 126.087 19C125.746 19.1493 125.303 19.224 124.759 19.224ZM124.903 18.136C125.65 18.136 126.253 17.9173 126.711 17.48C127.181 17.032 127.415 16.408 127.415 15.608V15.432H124.823C124.322 15.432 123.906 15.544 123.575 15.768C123.255 15.9813 123.095 16.3067 123.095 16.744C123.095 17.1813 123.261 17.5227 123.591 17.768C123.933 18.0133 124.37 18.136 124.903 18.136ZM131.562 22.2V11.176H132.794V12.472H133.018C133.221 12.0773 133.546 11.7253 133.994 11.416C134.453 11.1067 135.088 10.952 135.898 10.952C136.57 10.952 137.184 11.1173 137.738 11.448C138.304 11.768 138.752 12.2267 139.082 12.824C139.424 13.4213 139.594 14.1413 139.594 14.984V15.192C139.594 16.024 139.429 16.744 139.098 17.352C138.768 17.96 138.32 18.424 137.754 18.744C137.2 19.064 136.581 19.224 135.898 19.224C135.354 19.224 134.89 19.1493 134.506 19C134.133 18.8613 133.829 18.68 133.594 18.456C133.36 18.232 133.178 18.0027 133.05 17.768H132.826V22.2H131.562ZM135.562 18.104C136.373 18.104 137.029 17.848 137.53 17.336C138.042 16.8133 138.298 16.088 138.298 15.16V15.016C138.298 14.088 138.042 13.368 137.53 12.856C137.029 12.3333 136.373 12.072 135.562 12.072C134.762 12.072 134.101 12.3333 133.578 12.856C133.066 13.368 132.81 14.088 132.81 15.016V15.16C132.81 16.088 133.066 16.8133 133.578 17.336C134.101 17.848 134.762 18.104 135.562 18.104ZM141.859 19V7.8H143.123V12.424H143.347C143.454 12.1893 143.614 11.9707 143.827 11.768C144.051 11.5547 144.334 11.3787 144.675 11.24C145.027 11.1013 145.47 11.032 146.003 11.032C146.59 11.032 147.113 11.16 147.571 11.416C148.041 11.6613 148.414 12.024 148.691 12.504C148.969 12.9733 149.107 13.56 149.107 14.264V19H147.843V14.36C147.843 13.5813 147.646 13.016 147.251 12.664C146.867 12.312 146.345 12.136 145.683 12.136C144.926 12.136 144.307 12.3813 143.827 12.872C143.358 13.3627 143.123 14.0933 143.123 15.064V19H141.859ZM151.672 19V11.176H152.936V19H151.672ZM152.312 9.96C152.034 9.96 151.8 9.86933 151.608 9.688C151.426 9.50667 151.336 9.27733 151.336 9C151.336 8.712 151.426 8.47733 151.608 8.296C151.8 8.11467 152.034 8.024 152.312 8.024C152.589 8.024 152.818 8.11467 153 8.296C153.181 8.47733 153.272 8.712 153.272 9C153.272 9.27733 153.181 9.50667 153 9.688C152.818 9.86933 152.589 9.96 152.312 9.96ZM159.194 19.224C158.436 19.224 157.754 19.064 157.146 18.744C156.548 18.4133 156.074 17.944 155.722 17.336C155.38 16.728 155.21 16.008 155.21 15.176V15C155.21 14.1573 155.38 13.4373 155.722 12.84C156.074 12.232 156.548 11.768 157.146 11.448C157.754 11.1173 158.436 10.952 159.194 10.952C159.94 10.952 160.575 11.0907 161.098 11.368C161.631 11.6453 162.047 12.0133 162.346 12.472C162.655 12.9307 162.852 13.4213 162.938 13.944L161.706 14.2C161.652 13.816 161.524 13.464 161.322 13.144C161.13 12.824 160.858 12.568 160.506 12.376C160.154 12.184 159.722 12.088 159.21 12.088C158.687 12.088 158.218 12.2053 157.802 12.44C157.396 12.6747 157.071 13.0107 156.826 13.448C156.591 13.8853 156.474 14.408 156.474 15.016V15.16C156.474 15.768 156.591 16.2907 156.826 16.728C157.071 17.1653 157.396 17.5013 157.802 17.736C158.218 17.9707 158.687 18.088 159.21 18.088C159.988 18.088 160.58 17.8853 160.986 17.48C161.402 17.0747 161.658 16.5733 161.754 15.976L163.002 16.248C162.884 16.76 162.671 17.2453 162.362 17.704C162.052 18.1627 161.631 18.5307 161.098 18.808C160.575 19.0853 159.94 19.224 159.194 19.224ZM172.578 19.224C171.906 19.224 171.287 19.064 170.722 18.744C170.156 18.424 169.708 17.96 169.378 17.352C169.047 16.744 168.882 16.024 168.882 15.192V14.984C168.882 14.152 169.047 13.4373 169.378 12.84C169.708 12.232 170.151 11.768 170.706 11.448C171.271 11.1173 171.895 10.952 172.578 10.952C173.122 10.952 173.58 11.0267 173.954 11.176C174.338 11.3147 174.647 11.496 174.882 11.72C175.116 11.9333 175.298 12.1627 175.426 12.408H175.65V7.8H176.914V19H175.682V17.704H175.458C175.244 18.0987 174.914 18.4507 174.466 18.76C174.018 19.0693 173.388 19.224 172.578 19.224ZM172.914 18.104C173.724 18.104 174.38 17.848 174.882 17.336C175.394 16.8133 175.65 16.088 175.65 15.16V15.016C175.65 14.088 175.394 13.368 174.882 12.856C174.38 12.3333 173.724 12.072 172.914 12.072C172.114 12.072 171.452 12.3333 170.93 12.856C170.418 13.368 170.162 14.088 170.162 15.016V15.16C170.162 16.088 170.418 16.8133 170.93 17.336C171.452 17.848 172.114 18.104 172.914 18.104ZM183.146 19.224C182.357 19.224 181.664 19.0587 181.066 18.728C180.469 18.3867 180.005 17.912 179.674 17.304C179.344 16.696 179.178 15.992 179.178 15.192V15C179.178 14.1893 179.344 13.48 179.674 12.872C180.005 12.264 180.464 11.7947 181.05 11.464C181.637 11.1227 182.309 10.952 183.066 10.952C183.802 10.952 184.453 11.112 185.018 11.432C185.584 11.7413 186.026 12.1893 186.346 12.776C186.666 13.3627 186.826 14.0507 186.826 14.84V15.416H180.442C180.474 16.2587 180.746 16.92 181.258 17.4C181.77 17.8693 182.41 18.104 183.178 18.104C183.85 18.104 184.368 17.9493 184.73 17.64C185.093 17.3307 185.37 16.9627 185.562 16.536L186.65 17.064C186.49 17.3947 186.266 17.7253 185.978 18.056C185.701 18.3867 185.333 18.664 184.874 18.888C184.426 19.112 183.85 19.224 183.146 19.224ZM180.458 14.376H185.546C185.504 13.6507 185.253 13.0853 184.794 12.68C184.346 12.2747 183.77 12.072 183.066 12.072C182.352 12.072 181.765 12.2747 181.306 12.68C180.848 13.0853 180.565 13.6507 180.458 14.376ZM192.183 19.224C191.212 19.224 190.391 19 189.719 18.552C189.058 18.104 188.658 17.3947 188.519 16.424L189.719 16.152C189.804 16.664 189.964 17.0693 190.199 17.368C190.434 17.656 190.722 17.864 191.063 17.992C191.415 18.1093 191.788 18.168 192.183 18.168C192.77 18.168 193.234 18.0507 193.575 17.816C193.916 17.5813 194.087 17.2667 194.087 16.872C194.087 16.4667 193.922 16.184 193.591 16.024C193.271 15.8533 192.828 15.7147 192.263 15.608L191.607 15.496C191.106 15.4107 190.647 15.2773 190.231 15.096C189.815 14.9147 189.484 14.6693 189.239 14.36C188.994 14.0507 188.871 13.6613 188.871 13.192C188.871 12.488 189.143 11.9387 189.687 11.544C190.231 11.1493 190.951 10.952 191.847 10.952C192.732 10.952 193.447 11.1547 193.991 11.56C194.546 11.9547 194.903 12.5147 195.063 13.24L193.879 13.544C193.783 12.9787 193.554 12.584 193.191 12.36C192.828 12.1253 192.38 12.008 191.847 12.008C191.314 12.008 190.892 12.1093 190.583 12.312C190.274 12.504 190.119 12.792 190.119 13.176C190.119 13.5493 190.263 13.8267 190.551 14.008C190.85 14.1787 191.244 14.3067 191.735 14.392L192.391 14.504C192.946 14.6 193.442 14.7333 193.879 14.904C194.327 15.064 194.679 15.2987 194.935 15.608C195.202 15.9173 195.335 16.3227 195.335 16.824C195.335 17.592 195.047 18.184 194.471 18.6C193.906 19.016 193.143 19.224 192.183 19.224ZM197.469 19V11.176H198.733V19H197.469ZM198.109 9.96C197.831 9.96 197.597 9.86933 197.405 9.688C197.223 9.50667 197.133 9.27733 197.133 9C197.133 8.712 197.223 8.47733 197.405 8.296C197.597 8.11467 197.831 8.024 198.109 8.024C198.386 8.024 198.615 8.11467 198.797 8.296C198.978 8.47733 199.069 8.712 199.069 9C199.069 9.27733 198.978 9.50667 198.797 9.688C198.615 9.86933 198.386 9.96 198.109 9.96ZM201.007 15.128V14.904C201.007 14.0827 201.172 13.3787 201.503 12.792C201.833 12.2053 202.281 11.752 202.847 11.432C203.412 11.112 204.031 10.952 204.703 10.952C205.524 10.952 206.153 11.112 206.591 11.432C207.039 11.7413 207.369 12.088 207.583 12.472H207.807V11.176H209.007V20.824C209.007 21.2507 208.889 21.5867 208.655 21.832C208.42 22.0773 208.079 22.2 207.631 22.2H202.319V21.08H207.295C207.615 21.08 207.775 20.92 207.775 20.6V17.624H207.551C207.423 17.8587 207.241 18.088 207.007 18.312C206.772 18.536 206.468 18.7227 206.095 18.872C205.721 19.0107 205.257 19.08 204.703 19.08C204.031 19.08 203.412 18.92 202.847 18.6C202.281 18.28 201.833 17.8267 201.503 17.24C201.172 16.6427 201.007 15.9387 201.007 15.128ZM205.039 17.96C205.849 17.96 206.505 17.704 207.007 17.192C207.519 16.68 207.775 15.976 207.775 15.08V14.952C207.775 14.0453 207.519 13.3413 207.007 12.84C206.505 12.328 205.849 12.072 205.039 12.072C204.239 12.072 203.577 12.328 203.055 12.84C202.543 13.3413 202.287 14.0453 202.287 14.952V15.08C202.287 15.976 202.543 16.68 203.055 17.192C203.577 17.704 204.239 17.96 205.039 17.96ZM211.656 19V11.176H212.888V12.504H213.112C213.283 12.1307 213.571 11.7947 213.976 11.496C214.392 11.1867 215 11.032 215.8 11.032C216.387 11.032 216.909 11.1547 217.368 11.4C217.837 11.6453 218.211 12.008 218.488 12.488C218.765 12.968 218.904 13.56 218.904 14.264V19H217.64V14.36C217.64 13.5813 217.443 13.016 217.048 12.664C216.664 12.312 216.141 12.136 215.48 12.136C214.723 12.136 214.104 12.3813 213.624 12.872C213.155 13.3627 212.92 14.0933 212.92 15.064V19H211.656Z" fill="black"/>
<path d="M311.944 15.128V14.904C311.944 14.0827 312.109 13.3787 312.44 12.792C312.771 12.2053 313.219 11.752 313.784 11.432C314.349 11.112 314.968 10.952 315.64 10.952C316.461 10.952 317.091 11.112 317.528 11.432C317.976 11.7413 318.307 12.088 318.52 12.472H318.744V11.176H319.944V20.824C319.944 21.2507 319.827 21.5867 319.592 21.832C319.357 22.0773 319.016 22.2 318.568 22.2H313.256V21.08H318.232C318.552 21.08 318.712 20.92 318.712 20.6V17.624H318.488C318.36 17.8587 318.179 18.088 317.944 18.312C317.709 18.536 317.405 18.7227 317.032 18.872C316.659 19.0107 316.195 19.08 315.64 19.08C314.968 19.08 314.349 18.92 313.784 18.6C313.219 18.28 312.771 17.8267 312.44 17.24C312.109 16.6427 311.944 15.9387 311.944 15.128ZM315.976 17.96C316.787 17.96 317.443 17.704 317.944 17.192C318.456 16.68 318.712 15.976 318.712 15.08V14.952C318.712 14.0453 318.456 13.3413 317.944 12.84C317.443 12.328 316.787 12.072 315.976 12.072C315.176 12.072 314.515 12.328 313.992 12.84C313.48 13.3413 313.224 14.0453 313.224 14.952V15.08C313.224 15.976 313.48 16.68 313.992 17.192C314.515 17.704 315.176 17.96 315.976 17.96ZM324.994 19.224C324.45 19.224 323.954 19.128 323.506 18.936C323.058 18.744 322.706 18.4667 322.45 18.104C322.194 17.7413 322.066 17.2987 322.066 16.776C322.066 16.2427 322.194 15.8053 322.45 15.464C322.706 15.112 323.058 14.8507 323.506 14.68C323.954 14.4987 324.455 14.408 325.01 14.408H327.65V13.832C327.65 13.2773 327.484 12.84 327.154 12.52C326.834 12.2 326.354 12.04 325.714 12.04C325.084 12.04 324.594 12.1947 324.242 12.504C323.89 12.8027 323.65 13.208 323.522 13.72L322.338 13.336C322.466 12.8987 322.668 12.504 322.946 12.152C323.223 11.7893 323.591 11.5013 324.05 11.288C324.519 11.064 325.079 10.952 325.73 10.952C326.732 10.952 327.511 11.2133 328.066 11.736C328.62 12.248 328.898 12.9733 328.898 13.912V17.448C328.898 17.768 329.047 17.928 329.346 17.928H330.066V19H328.962C328.61 19 328.327 18.904 328.114 18.712C327.9 18.5093 327.794 18.2427 327.794 17.912V17.832H327.602C327.484 18.0347 327.324 18.248 327.122 18.472C326.93 18.6853 326.663 18.8613 326.322 19C325.98 19.1493 325.538 19.224 324.994 19.224ZM325.138 18.136C325.884 18.136 326.487 17.9173 326.946 17.48C327.415 17.032 327.65 16.408 327.65 15.608V15.432H325.058C324.556 15.432 324.14 15.544 323.81 15.768C323.49 15.9813 323.33 16.3067 323.33 16.744C323.33 17.1813 323.495 17.5227 323.826 17.768C324.167 18.0133 324.604 18.136 325.138 18.136ZM331.797 19V11.176H333.029V12.152H333.253C333.402 11.8747 333.647 11.6187 333.989 11.384C334.33 11.1493 334.81 11.032 335.429 11.032C336.037 11.032 336.527 11.1653 336.901 11.432C337.285 11.6987 337.562 12.024 337.733 12.408H337.957C338.138 12.024 338.41 11.6987 338.773 11.432C339.146 11.1653 339.663 11.032 340.325 11.032C340.847 11.032 341.306 11.1387 341.701 11.352C342.095 11.5653 342.405 11.8747 342.629 12.28C342.863 12.6747 342.981 13.1493 342.981 13.704V19H341.717V13.816C341.717 13.2933 341.562 12.8827 341.253 12.584C340.954 12.2747 340.533 12.12 339.989 12.12C339.413 12.12 338.938 12.3067 338.565 12.68C338.202 13.0533 338.021 13.592 338.021 14.296V19H336.757V13.816C336.757 13.2933 336.602 12.8827 336.293 12.584C335.994 12.2747 335.573 12.12 335.029 12.12C334.453 12.12 333.978 12.3067 333.605 12.68C333.242 13.0533 333.061 13.592 333.061 14.296V19H331.797ZM349.146 19.224C348.357 19.224 347.664 19.0587 347.066 18.728C346.469 18.3867 346.005 17.912 345.674 17.304C345.344 16.696 345.178 15.992 345.178 15.192V15C345.178 14.1893 345.344 13.48 345.674 12.872C346.005 12.264 346.464 11.7947 347.05 11.464C347.637 11.1227 348.309 10.952 349.066 10.952C349.802 10.952 350.453 11.112 351.018 11.432C351.584 11.7413 352.026 12.1893 352.346 12.776C352.666 13.3627 352.826 14.0507 352.826 14.84V15.416H346.442C346.474 16.2587 346.746 16.92 347.258 17.4C347.77 17.8693 348.41 18.104 349.178 18.104C349.85 18.104 350.368 17.9493 350.73 17.64C351.093 17.3307 351.37 16.9627 351.562 16.536L352.65 17.064C352.49 17.3947 352.266 17.7253 351.978 18.056C351.701 18.3867 351.333 18.664 350.874 18.888C350.426 19.112 349.85 19.224 349.146 19.224ZM346.458 14.376H351.546C351.504 13.6507 351.253 13.0853 350.794 12.68C350.346 12.2747 349.77 12.072 349.066 12.072C348.352 12.072 347.765 12.2747 347.306 12.68C346.848 13.0853 346.565 13.6507 346.458 14.376ZM362.453 19.224C361.781 19.224 361.162 19.064 360.597 18.744C360.031 18.424 359.583 17.96 359.253 17.352C358.922 16.744 358.757 16.024 358.757 15.192V14.984C358.757 14.152 358.922 13.4373 359.253 12.84C359.583 12.232 360.026 11.768 360.581 11.448C361.146 11.1173 361.77 10.952 362.453 10.952C362.997 10.952 363.455 11.0267 363.829 11.176C364.213 11.3147 364.522 11.496 364.757 11.72C364.991 11.9333 365.173 12.1627 365.301 12.408H365.525V7.8H366.789V19H365.557V17.704H365.333C365.119 18.0987 364.789 18.4507 364.341 18.76C363.893 19.0693 363.263 19.224 362.453 19.224ZM362.789 18.104C363.599 18.104 364.255 17.848 364.757 17.336C365.269 16.8133 365.525 16.088 365.525 15.16V15.016C365.525 14.088 365.269 13.368 364.757 12.856C364.255 12.3333 363.599 12.072 362.789 12.072C361.989 12.072 361.327 12.3333 360.805 12.856C360.293 13.368 360.037 14.088 360.037 15.016V15.16C360.037 16.088 360.293 16.8133 360.805 17.336C361.327 17.848 361.989 18.104 362.789 18.104ZM373.021 19.224C372.232 19.224 371.539 19.0587 370.941 18.728C370.344 18.3867 369.88 17.912 369.549 17.304C369.219 16.696 369.053 15.992 369.053 15.192V15C369.053 14.1893 369.219 13.48 369.549 12.872C369.88 12.264 370.339 11.7947 370.925 11.464C371.512 11.1227 372.184 10.952 372.941 10.952C373.677 10.952 374.328 11.112 374.893 11.432C375.459 11.7413 375.901 12.1893 376.221 12.776C376.541 13.3627 376.701 14.0507 376.701 14.84V15.416H370.317C370.349 16.2587 370.621 16.92 371.133 17.4C371.645 17.8693 372.285 18.104 373.053 18.104C373.725 18.104 374.243 17.9493 374.605 17.64C374.968 17.3307 375.245 16.9627 375.437 16.536L376.525 17.064C376.365 17.3947 376.141 17.7253 375.853 18.056C375.576 18.3867 375.208 18.664 374.749 18.888C374.301 19.112 373.725 19.224 373.021 19.224ZM370.333 14.376H375.421C375.379 13.6507 375.128 13.0853 374.669 12.68C374.221 12.2747 373.645 12.072 372.941 12.072C372.227 12.072 371.64 12.2747 371.181 12.68C370.723 13.0853 370.44 13.6507 370.333 14.376ZM382.058 19.224C381.087 19.224 380.266 19 379.594 18.552C378.933 18.104 378.533 17.3947 378.394 16.424L379.594 16.152C379.679 16.664 379.839 17.0693 380.074 17.368C380.309 17.656 380.597 17.864 380.938 17.992C381.29 18.1093 381.663 18.168 382.058 18.168C382.645 18.168 383.109 18.0507 383.45 17.816C383.791 17.5813 383.962 17.2667 383.962 16.872C383.962 16.4667 383.797 16.184 383.466 16.024C383.146 15.8533 382.703 15.7147 382.138 15.608L381.482 15.496C380.981 15.4107 380.522 15.2773 380.106 15.096C379.69 14.9147 379.359 14.6693 379.114 14.36C378.869 14.0507 378.746 13.6613 378.746 13.192C378.746 12.488 379.018 11.9387 379.562 11.544C380.106 11.1493 380.826 10.952 381.722 10.952C382.607 10.952 383.322 11.1547 383.866 11.56C384.421 11.9547 384.778 12.5147 384.938 13.24L383.754 13.544C383.658 12.9787 383.429 12.584 383.066 12.36C382.703 12.1253 382.255 12.008 381.722 12.008C381.189 12.008 380.767 12.1093 380.458 12.312C380.149 12.504 379.994 12.792 379.994 13.176C379.994 13.5493 380.138 13.8267 380.426 14.008C380.725 14.1787 381.119 14.3067 381.61 14.392L382.266 14.504C382.821 14.6 383.317 14.7333 383.754 14.904C384.202 15.064 384.554 15.2987 384.81 15.608C385.077 15.9173 385.21 16.3227 385.21 16.824C385.21 17.592 384.922 18.184 384.346 18.6C383.781 19.016 383.018 19.224 382.058 19.224ZM387.344 19V11.176H388.608V19H387.344ZM387.984 9.96C387.706 9.96 387.472 9.86933 387.28 9.688C387.098 9.50667 387.008 9.27733 387.008 9C387.008 8.712 387.098 8.47733 387.28 8.296C387.472 8.11467 387.706 8.024 387.984 8.024C388.261 8.024 388.49 8.11467 388.672 8.296C388.853 8.47733 388.944 8.712 388.944 9C388.944 9.27733 388.853 9.50667 388.672 9.688C388.49 9.86933 388.261 9.96 387.984 9.96ZM390.882 15.128V14.904C390.882 14.0827 391.047 13.3787 391.378 12.792C391.708 12.2053 392.156 11.752 392.722 11.432C393.287 11.112 393.906 10.952 394.578 10.952C395.399 10.952 396.028 11.112 396.466 11.432C396.914 11.7413 397.244 12.088 397.458 12.472H397.682V11.176H398.882V20.824C398.882 21.2507 398.764 21.5867 398.53 21.832C398.295 22.0773 397.954 22.2 397.506 22.2H392.194V21.08H397.17C397.49 21.08 397.65 20.92 397.65 20.6V17.624H397.426C397.298 17.8587 397.116 18.088 396.882 18.312C396.647 18.536 396.343 18.7227 395.97 18.872C395.596 19.0107 395.132 19.08 394.578 19.08C393.906 19.08 393.287 18.92 392.722 18.6C392.156 18.28 391.708 17.8267 391.378 17.24C391.047 16.6427 390.882 15.9387 390.882 15.128ZM394.914 17.96C395.724 17.96 396.38 17.704 396.882 17.192C397.394 16.68 397.65 15.976 397.65 15.08V14.952C397.65 14.0453 397.394 13.3413 396.882 12.84C396.38 12.328 395.724 12.072 394.914 12.072C394.114 12.072 393.452 12.328 392.93 12.84C392.418 13.3413 392.162 14.0453 392.162 14.952V15.08C392.162 15.976 392.418 16.68 392.93 17.192C393.452 17.704 394.114 17.96 394.914 17.96ZM401.531 19V11.176H402.763V12.504H402.987C403.158 12.1307 403.446 11.7947 403.851 11.496C404.267 11.1867 404.875 11.032 405.675 11.032C406.262 11.032 406.784 11.1547 407.243 11.4C407.712 11.6453 408.086 12.008 408.363 12.488C408.64 12.968 408.779 13.56 408.779 14.264V19H407.515V14.36C407.515 13.5813 407.318 13.016 406.923 12.664C406.539 12.312 406.016 12.136 405.355 12.136C404.598 12.136 403.979 12.3813 403.499 12.872C403.03 13.3627 402.795 14.0933 402.795 15.064V19H401.531Z" fill="black"/>
<path d="M724.328 19V11.176H725.592V19H724.328ZM724.968 9.96C724.691 9.96 724.456 9.86933 724.264 9.688C724.083 9.50667 723.992 9.27733 723.992 9C723.992 8.712 724.083 8.47733 724.264 8.296C724.456 8.11467 724.691 8.024 724.968 8.024C725.245 8.024 725.475 8.11467 725.656 8.296C725.837 8.47733 725.928 8.712 725.928 9C725.928 9.27733 725.837 9.50667 725.656 9.688C725.475 9.86933 725.245 9.96 724.968 9.96ZM728.25 19V7.8H729.514V19H728.25ZM732.172 19V7.8H733.436V19H732.172ZM739.086 19.144C738.52 19.144 737.998 19.0213 737.518 18.776C737.048 18.5307 736.675 18.168 736.398 17.688C736.131 17.1973 735.998 16.6053 735.998 15.912V11.176H737.262V15.816C737.262 16.5947 737.454 17.16 737.838 17.512C738.232 17.864 738.76 18.04 739.422 18.04C740.168 18.04 740.782 17.7947 741.262 17.304C741.742 16.8133 741.982 16.0827 741.982 15.112V11.176H743.246V19H742.014V17.672H741.79C741.619 18.0453 741.326 18.3867 740.91 18.696C740.494 18.9947 739.886 19.144 739.086 19.144ZM749.043 19.224C748.072 19.224 747.251 19 746.579 18.552C745.917 18.104 745.517 17.3947 745.379 16.424L746.579 16.152C746.664 16.664 746.824 17.0693 747.059 17.368C747.293 17.656 747.581 17.864 747.923 17.992C748.275 18.1093 748.648 18.168 749.043 18.168C749.629 18.168 750.093 18.0507 750.435 17.816C750.776 17.5813 750.947 17.2667 750.947 16.872C750.947 16.4667 750.781 16.184 750.451 16.024C750.131 15.8533 749.688 15.7147 749.123 15.608L748.467 15.496C747.965 15.4107 747.507 15.2773 747.091 15.096C746.675 14.9147 746.344 14.6693 746.099 14.36C745.853 14.0507 745.731 13.6613 745.731 13.192C745.731 12.488 746.003 11.9387 746.547 11.544C747.091 11.1493 747.811 10.952 748.707 10.952C749.592 10.952 750.307 11.1547 750.851 11.56C751.405 11.9547 751.763 12.5147 751.923 13.24L750.739 13.544C750.643 12.9787 750.413 12.584 750.051 12.36C749.688 12.1253 749.24 12.008 748.707 12.008C748.173 12.008 747.752 12.1093 747.443 12.312C747.133 12.504 746.979 12.792 746.979 13.176C746.979 13.5493 747.123 13.8267 747.411 14.008C747.709 14.1787 748.104 14.3067 748.595 14.392L749.251 14.504C749.805 14.6 750.301 14.7333 750.739 14.904C751.187 15.064 751.539 15.2987 751.795 15.608C752.061 15.9173 752.195 16.3227 752.195 16.824C752.195 17.592 751.907 18.184 751.331 18.6C750.765 19.016 750.003 19.224 749.043 19.224ZM757.036 19C756.588 19 756.241 18.8773 755.996 18.632C755.761 18.3867 755.644 18.0507 755.644 17.624V12.28H753.292V11.176H755.644V8.392H756.908V11.176H759.468V12.28H756.908V17.432C756.908 17.752 757.063 17.912 757.372 17.912H759.116V19H757.036ZM761.516 19V11.176H762.748V12.136H762.972C763.11 11.7947 763.324 11.544 763.612 11.384C763.9 11.224 764.278 11.144 764.748 11.144H765.676V12.296H764.668C764.102 12.296 763.644 12.456 763.292 12.776C762.95 13.0853 762.78 13.5707 762.78 14.232V19H761.516ZM769.681 19.224C769.137 19.224 768.641 19.128 768.193 18.936C767.745 18.744 767.393 18.4667 767.137 18.104C766.881 17.7413 766.753 17.2987 766.753 16.776C766.753 16.2427 766.881 15.8053 767.137 15.464C767.393 15.112 767.745 14.8507 768.193 14.68C768.641 14.4987 769.142 14.408 769.697 14.408H772.337V13.832C772.337 13.2773 772.172 12.84 771.841 12.52C771.521 12.2 771.041 12.04 770.401 12.04C769.772 12.04 769.281 12.1947 768.929 12.504C768.577 12.8027 768.337 13.208 768.209 13.72L767.025 13.336C767.153 12.8987 767.356 12.504 767.633 12.152C767.91 11.7893 768.278 11.5013 768.737 11.288C769.206 11.064 769.766 10.952 770.417 10.952C771.42 10.952 772.198 11.2133 772.753 11.736C773.308 12.248 773.585 12.9733 773.585 13.912V17.448C773.585 17.768 773.734 17.928 774.033 17.928H774.753V19H773.649C773.297 19 773.014 18.904 772.801 18.712C772.588 18.5093 772.481 18.2427 772.481 17.912V17.832H772.289C772.172 18.0347 772.012 18.248 771.809 18.472C771.617 18.6853 771.35 18.8613 771.009 19C770.668 19.1493 770.225 19.224 769.681 19.224ZM769.825 18.136C770.572 18.136 771.174 17.9173 771.633 17.48C772.102 17.032 772.337 16.408 772.337 15.608V15.432H769.745C769.244 15.432 768.828 15.544 768.497 15.768C768.177 15.9813 768.017 16.3067 768.017 16.744C768.017 17.1813 768.182 17.5227 768.513 17.768C768.854 18.0133 769.292 18.136 769.825 18.136ZM778.849 19C778.401 19 778.054 18.8773 777.809 18.632C777.574 18.3867 777.457 18.0507 777.457 17.624V12.28H775.105V11.176H777.457V8.392H778.721V11.176H781.281V12.28H778.721V17.432C778.721 17.752 778.875 17.912 779.185 17.912H780.929V19H778.849ZM783.328 19V11.176H784.592V19H783.328ZM783.968 9.96C783.691 9.96 783.456 9.86933 783.264 9.688C783.083 9.50667 782.992 9.27733 782.992 9C782.992 8.712 783.083 8.47733 783.264 8.296C783.456 8.11467 783.691 8.024 783.968 8.024C784.245 8.024 784.475 8.11467 784.656 8.296C784.837 8.47733 784.928 8.712 784.928 9C784.928 9.27733 784.837 9.50667 784.656 9.688C784.475 9.86933 784.245 9.96 783.968 9.96ZM790.866 19.224C790.077 19.224 789.378 19.0587 788.77 18.728C788.173 18.3973 787.703 17.9333 787.362 17.336C787.031 16.728 786.866 16.0133 786.866 15.192V14.984C786.866 14.1733 787.031 13.464 787.362 12.856C787.703 12.248 788.173 11.7787 788.77 11.448C789.378 11.1173 790.077 10.952 790.866 10.952C791.655 10.952 792.349 11.1173 792.946 11.448C793.554 11.7787 794.023 12.248 794.354 12.856C794.695 13.464 794.866 14.1733 794.866 14.984V15.192C794.866 16.0133 794.695 16.728 794.354 17.336C794.023 17.9333 793.554 18.3973 792.946 18.728C792.349 19.0587 791.655 19.224 790.866 19.224ZM790.866 18.088C791.698 18.088 792.359 17.8267 792.85 17.304C793.351 16.7707 793.602 16.056 793.602 15.16V15.016C793.602 14.12 793.351 13.4107 792.85 12.888C792.359 12.3547 791.698 12.088 790.866 12.088C790.045 12.088 789.383 12.3547 788.882 12.888C788.381 13.4107 788.13 14.12 788.13 15.016V15.16C788.13 16.056 788.381 16.7707 788.882 17.304C789.383 17.8267 790.045 18.088 790.866 18.088ZM797.141 19V11.176H798.373V12.504H798.597C798.767 12.1307 799.055 11.7947 799.461 11.496C799.877 11.1867 800.485 11.032 801.285 11.032C801.871 11.032 802.394 11.1547 802.853 11.4C803.322 11.6453 803.695 12.008 803.973 12.488C804.25 12.968 804.389 13.56 804.389 14.264V19H803.125V14.36C803.125 13.5813 802.927 13.016 802.533 12.664C802.149 12.312 801.626 12.136 800.965 12.136C800.207 12.136 799.589 12.3813 799.109 12.872C798.639 13.3627 798.405 14.0933 798.405 15.064V19H797.141Z" fill="black"/>
<path d="M491.416 19L489.848 11.176H491.128L492.424 18.152H492.648L494.36 11.176H496.456L498.168 18.152H498.392L499.688 11.176H500.968L499.4 19H497.24L495.512 12.024H495.304L493.576 19H491.416ZM506.568 19.224C505.779 19.224 505.086 19.0587 504.488 18.728C503.891 18.3867 503.427 17.912 503.096 17.304C502.766 16.696 502.6 15.992 502.6 15.192V15C502.6 14.1893 502.766 13.48 503.096 12.872C503.427 12.264 503.886 11.7947 504.472 11.464C505.059 11.1227 505.731 10.952 506.488 10.952C507.224 10.952 507.875 11.112 508.44 11.432C509.006 11.7413 509.448 12.1893 509.768 12.776C510.088 13.3627 510.248 14.0507 510.248 14.84V15.416H503.864C503.896 16.2587 504.168 16.92 504.68 17.4C505.192 17.8693 505.832 18.104 506.6 18.104C507.272 18.104 507.79 17.9493 508.152 17.64C508.515 17.3307 508.792 16.9627 508.984 16.536L510.072 17.064C509.912 17.3947 509.688 17.7253 509.4 18.056C509.123 18.3867 508.755 18.664 508.296 18.888C507.848 19.112 507.272 19.224 506.568 19.224ZM503.88 14.376H508.968C508.926 13.6507 508.675 13.0853 508.216 12.68C507.768 12.2747 507.192 12.072 506.488 12.072C505.774 12.072 505.187 12.2747 504.728 12.68C504.27 13.0853 503.987 13.6507 503.88 14.376ZM516.789 19.224C515.978 19.224 515.344 19.0693 514.885 18.76C514.437 18.4507 514.112 18.0987 513.909 17.704H513.685V19H512.453V7.8H513.717V12.408H513.941C514.069 12.1627 514.25 11.9333 514.485 11.72C514.72 11.496 515.024 11.3147 515.397 11.176C515.781 11.0267 516.245 10.952 516.789 10.952C517.472 10.952 518.09 11.1173 518.645 11.448C519.21 11.768 519.658 12.232 519.989 12.84C520.32 13.4373 520.485 14.152 520.485 14.984V15.192C520.485 16.024 520.314 16.744 519.973 17.352C519.642 17.96 519.194 18.424 518.629 18.744C518.074 19.064 517.461 19.224 516.789 19.224ZM516.453 18.104C517.264 18.104 517.92 17.848 518.421 17.336C518.933 16.8133 519.189 16.088 519.189 15.16V15.016C519.189 14.088 518.933 13.368 518.421 12.856C517.92 12.3333 517.264 12.072 516.453 12.072C515.653 12.072 514.992 12.3333 514.469 12.856C513.957 13.368 513.701 14.088 513.701 15.016V15.16C513.701 16.088 513.957 16.8133 514.469 17.336C514.992 17.848 515.653 18.104 516.453 18.104ZM530.171 19.224C529.499 19.224 528.881 19.064 528.315 18.744C527.75 18.424 527.302 17.96 526.971 17.352C526.641 16.744 526.475 16.024 526.475 15.192V14.984C526.475 14.152 526.641 13.4373 526.971 12.84C527.302 12.232 527.745 11.768 528.299 11.448C528.865 11.1173 529.489 10.952 530.171 10.952C530.715 10.952 531.174 11.0267 531.547 11.176C531.931 11.3147 532.241 11.496 532.475 11.72C532.71 11.9333 532.891 12.1627 533.019 12.408H533.243V7.8H534.507V19H533.275V17.704H533.051C532.838 18.0987 532.507 18.4507 532.059 18.76C531.611 19.0693 530.982 19.224 530.171 19.224ZM530.507 18.104C531.318 18.104 531.974 17.848 532.475 17.336C532.987 16.8133 533.243 16.088 533.243 15.16V15.016C533.243 14.088 532.987 13.368 532.475 12.856C531.974 12.3333 531.318 12.072 530.507 12.072C529.707 12.072 529.046 12.3333 528.523 12.856C528.011 13.368 527.755 14.088 527.755 15.016V15.16C527.755 16.088 528.011 16.8133 528.523 17.336C529.046 17.848 529.707 18.104 530.507 18.104ZM540.74 19.224C539.951 19.224 539.257 19.0587 538.66 18.728C538.063 18.3867 537.599 17.912 537.268 17.304C536.937 16.696 536.772 15.992 536.772 15.192V15C536.772 14.1893 536.937 13.48 537.268 12.872C537.599 12.264 538.057 11.7947 538.644 11.464C539.231 11.1227 539.903 10.952 540.66 10.952C541.396 10.952 542.047 11.112 542.612 11.432C543.177 11.7413 543.62 12.1893 543.94 12.776C544.26 13.3627 544.42 14.0507 544.42 14.84V15.416H538.036C538.068 16.2587 538.34 16.92 538.852 17.4C539.364 17.8693 540.004 18.104 540.772 18.104C541.444 18.104 541.961 17.9493 542.324 17.64C542.687 17.3307 542.964 16.9627 543.156 16.536L544.244 17.064C544.084 17.3947 543.86 17.7253 543.572 18.056C543.295 18.3867 542.927 18.664 542.468 18.888C542.02 19.112 541.444 19.224 540.74 19.224ZM538.052 14.376H543.14C543.097 13.6507 542.847 13.0853 542.388 12.68C541.94 12.2747 541.364 12.072 540.66 12.072C539.945 12.072 539.359 12.2747 538.9 12.68C538.441 13.0853 538.159 13.6507 538.052 14.376ZM548.281 19L545.481 11.176H546.825L549.177 18.056H549.401L551.753 11.176H553.097L550.297 19H548.281ZM558.178 19.224C557.388 19.224 556.695 19.0587 556.098 18.728C555.5 18.3867 555.036 17.912 554.706 17.304C554.375 16.696 554.21 15.992 554.21 15.192V15C554.21 14.1893 554.375 13.48 554.706 12.872C555.036 12.264 555.495 11.7947 556.082 11.464C556.668 11.1227 557.34 10.952 558.098 10.952C558.834 10.952 559.484 11.112 560.05 11.432C560.615 11.7413 561.058 12.1893 561.378 12.776C561.698 13.3627 561.858 14.0507 561.858 14.84V15.416H555.474C555.506 16.2587 555.778 16.92 556.29 17.4C556.802 17.8693 557.442 18.104 558.21 18.104C558.882 18.104 559.399 17.9493 559.762 17.64C560.124 17.3307 560.402 16.9627 560.594 16.536L561.682 17.064C561.522 17.3947 561.298 17.7253 561.01 18.056C560.732 18.3867 560.364 18.664 559.906 18.888C559.458 19.112 558.882 19.224 558.178 19.224ZM555.49 14.376H560.578C560.535 13.6507 560.284 13.0853 559.826 12.68C559.378 12.2747 558.802 12.072 558.098 12.072C557.383 12.072 556.796 12.2747 556.338 12.68C555.879 13.0853 555.596 13.6507 555.49 14.376ZM564.062 19V7.8H565.326V19H564.062ZM571.6 19.224C570.811 19.224 570.112 19.0587 569.504 18.728C568.907 18.3973 568.438 17.9333 568.096 17.336C567.766 16.728 567.6 16.0133 567.6 15.192V14.984C567.6 14.1733 567.766 13.464 568.096 12.856C568.438 12.248 568.907 11.7787 569.504 11.448C570.112 11.1173 570.811 10.952 571.6 10.952C572.39 10.952 573.083 11.1173 573.68 11.448C574.288 11.7787 574.758 12.248 575.088 12.856C575.43 13.464 575.6 14.1733 575.6 14.984V15.192C575.6 16.0133 575.43 16.728 575.088 17.336C574.758 17.9333 574.288 18.3973 573.68 18.728C573.083 19.0587 572.39 19.224 571.6 19.224ZM571.6 18.088C572.432 18.088 573.094 17.8267 573.584 17.304C574.086 16.7707 574.336 16.056 574.336 15.16V15.016C574.336 14.12 574.086 13.4107 573.584 12.888C573.094 12.3547 572.432 12.088 571.6 12.088C570.779 12.088 570.118 12.3547 569.616 12.888C569.115 13.4107 568.864 14.12 568.864 15.016V15.16C568.864 16.056 569.115 16.7707 569.616 17.304C570.118 17.8267 570.779 18.088 571.6 18.088ZM577.875 22.2V11.176H579.107V12.472H579.331C579.534 12.0773 579.859 11.7253 580.307 11.416C580.766 11.1067 581.4 10.952 582.211 10.952C582.883 10.952 583.496 11.1173 584.051 11.448C584.616 11.768 585.064 12.2267 585.395 12.824C585.736 13.4213 585.907 14.1413 585.907 14.984V15.192C585.907 16.024 585.742 16.744 585.411 17.352C585.08 17.96 584.632 18.424 584.067 18.744C583.512 19.064 582.894 19.224 582.211 19.224C581.667 19.224 581.203 19.1493 580.819 19C580.446 18.8613 580.142 18.68 579.907 18.456C579.672 18.232 579.491 18.0027 579.363 17.768H579.139V22.2H577.875ZM581.875 18.104C582.686 18.104 583.342 17.848 583.843 17.336C584.355 16.8133 584.611 16.088 584.611 15.16V15.016C584.611 14.088 584.355 13.368 583.843 12.856C583.342 12.3333 582.686 12.072 581.875 12.072C581.075 12.072 580.414 12.3333 579.891 12.856C579.379 13.368 579.123 14.088 579.123 15.016V15.16C579.123 16.088 579.379 16.8133 579.891 17.336C580.414 17.848 581.075 18.104 581.875 18.104ZM588.172 19V11.176H589.404V12.152H589.628C589.777 11.8747 590.022 11.6187 590.364 11.384C590.705 11.1493 591.185 11.032 591.804 11.032C592.412 11.032 592.902 11.1653 593.276 11.432C593.66 11.6987 593.937 12.024 594.108 12.408H594.332C594.513 12.024 594.785 11.6987 595.148 11.432C595.521 11.1653 596.038 11.032 596.7 11.032C597.222 11.032 597.681 11.1387 598.076 11.352C598.47 11.5653 598.78 11.8747 599.004 12.28C599.238 12.6747 599.356 13.1493 599.356 13.704V19H598.092V13.816C598.092 13.2933 597.937 12.8827 597.628 12.584C597.329 12.2747 596.908 12.12 596.364 12.12C595.788 12.12 595.313 12.3067 594.94 12.68C594.577 13.0533 594.396 13.592 594.396 14.296V19H593.132V13.816C593.132 13.2933 592.977 12.8827 592.668 12.584C592.369 12.2747 591.948 12.12 591.404 12.12C590.828 12.12 590.353 12.3067 589.98 12.68C589.617 13.0533 589.436 13.592 589.436 14.296V19H588.172ZM605.521 19.224C604.732 19.224 604.039 19.0587 603.441 18.728C602.844 18.3867 602.38 17.912 602.049 17.304C601.719 16.696 601.553 15.992 601.553 15.192V15C601.553 14.1893 601.719 13.48 602.049 12.872C602.38 12.264 602.839 11.7947 603.425 11.464C604.012 11.1227 604.684 10.952 605.441 10.952C606.177 10.952 606.828 11.112 607.393 11.432C607.959 11.7413 608.401 12.1893 608.721 12.776C609.041 13.3627 609.201 14.0507 609.201 14.84V15.416H602.817C602.849 16.2587 603.121 16.92 603.633 17.4C604.145 17.8693 604.785 18.104 605.553 18.104C606.225 18.104 606.743 17.9493 607.105 17.64C607.468 17.3307 607.745 16.9627 607.937 16.536L609.025 17.064C608.865 17.3947 608.641 17.7253 608.353 18.056C608.076 18.3867 607.708 18.664 607.249 18.888C606.801 19.112 606.225 19.224 605.521 19.224ZM602.833 14.376H607.921C607.879 13.6507 607.628 13.0853 607.169 12.68C606.721 12.2747 606.145 12.072 605.441 12.072C604.727 12.072 604.14 12.2747 603.681 12.68C603.223 13.0853 602.94 13.6507 602.833 14.376ZM611.406 19V11.176H612.638V12.504H612.862C613.033 12.1307 613.321 11.7947 613.726 11.496C614.142 11.1867 614.75 11.032 615.55 11.032C616.137 11.032 616.659 11.1547 617.118 11.4C617.587 11.6453 617.961 12.008 618.238 12.488C618.515 12.968 618.654 13.56 618.654 14.264V19H617.39V14.36C617.39 13.5813 617.193 13.016 616.798 12.664C616.414 12.312 615.891 12.136 615.23 12.136C614.473 12.136 613.854 12.3813 613.374 12.872C612.905 13.3627 612.67 14.0933 612.67 15.064V19H611.406ZM623.88 19C623.432 19 623.085 18.8773 622.84 18.632C622.605 18.3867 622.488 18.0507 622.488 17.624V12.28H620.136V11.176H622.488V8.392H623.752V11.176H626.312V12.28H623.752V17.432C623.752 17.752 623.907 17.912 624.216 17.912H625.96V19H623.88Z" fill="black"/>
<path d="M673 0C673.282 2.3163 673.422 4.6326 673.563 7.01703C673.704 9.33333 673.704 11.6496 673.704 14.0341C673.704 16.3504 673.634 18.6667 673.563 21.0511C673.493 23.3674 673.282 25.6837 673 28.0681C672.718 25.7518 672.577 23.4355 672.436 21.0511C672.296 18.7348 672.296 16.4185 672.296 14.0341C672.296 11.7178 672.366 9.40146 672.436 7.01703C672.507 4.6326 672.718 2.3163 673 0Z" fill="black"/>
<path d="M663 13.9659C664.69 13.6934 666.31 13.5572 668 13.4209C669.69 13.2847 671.31 13.2847 673 13.2847C674.69 13.2847 676.31 13.3528 678 13.4209C679.69 13.489 681.31 13.6934 683 13.9659C681.31 14.2384 679.69 14.3747 678 14.5109C676.31 14.6472 674.69 14.6472 673 14.6472C671.31 14.6472 669.69 14.5791 668 14.5109C666.31 14.4428 664.69 14.3066 663 13.9659Z" fill="black"/>
<path d="M667.437 8.58392C668.563 9.26519 669.62 10.0827 670.606 10.9002C671.591 11.7177 672.577 12.6034 673.493 13.489C674.408 14.3747 675.324 15.3284 676.169 16.2822C677.014 17.236 677.859 18.2579 678.563 19.3479C677.437 18.6666 676.38 17.8491 675.394 17.0316C674.408 16.2141 673.422 15.3284 672.507 14.4428C671.591 13.5572 670.676 12.6034 669.831 11.6496C668.986 10.6958 668.141 9.67395 667.437 8.58392Z" fill="black"/>
<path d="M678.563 8.58392C677.859 9.67395 677.014 10.6958 676.169 11.6496C675.324 12.6034 674.408 13.5572 673.493 14.4428C672.577 15.3284 671.591 16.2141 670.606 17.0316C669.62 17.8491 668.563 18.6666 667.437 19.3479C668.141 18.2579 668.986 17.236 669.831 16.2822C670.676 15.3284 671.591 14.3747 672.507 13.489C673.422 12.6034 674.408 11.7177 675.394 10.9002C676.38 10.0827 677.366 9.26519 678.563 8.58392Z" fill="black"/>
<path d="M846 0C846.282 2.3163 846.423 4.6326 846.563 7.01703C846.704 9.33333 846.704 11.6496 846.704 14.0341C846.704 16.3504 846.634 18.6667 846.563 21.0511C846.493 23.3674 846.282 25.6837 846 28.0681C845.718 25.7518 845.577 23.4355 845.437 21.0511C845.296 18.7348 845.296 16.4185 845.296 14.0341C845.296 11.7178 845.366 9.40146 845.437 7.01703C845.507 4.6326 845.718 2.3163 846 0Z" fill="black"/>
<path d="M836 13.9659C837.69 13.6934 839.31 13.5572 841 13.4209C842.69 13.2847 844.31 13.2847 846 13.2847C847.69 13.2847 849.31 13.3528 851 13.4209C852.69 13.489 854.31 13.6934 856 13.9659C854.31 14.2384 852.69 14.3747 851 14.5109C849.31 14.6472 847.69 14.6472 846 14.6472C844.31 14.6472 842.69 14.5791 841 14.5109C839.31 14.4428 837.69 14.3066 836 13.9659Z" fill="black"/>
<path d="M840.437 8.58392C841.563 9.26519 842.62 10.0827 843.606 10.9002C844.592 11.7177 845.577 12.6034 846.493 13.489C847.408 14.3747 848.324 15.3284 849.169 16.2822C850.014 17.236 850.859 18.2579 851.563 19.3479C850.437 18.6666 849.38 17.8491 848.394 17.0316C847.408 16.2141 846.423 15.3284 845.507 14.4428C844.592 13.5572 843.676 12.6034 842.831 11.6496C841.986 10.6958 841.141 9.67395 840.437 8.58392Z" fill="black"/>
<path d="M851.563 8.58392C850.859 9.67395 850.014 10.6958 849.169 11.6496C848.324 12.6034 847.408 13.5572 846.493 14.4428C845.577 15.3284 844.592 16.2141 843.606 17.0316C842.62 17.8491 841.563 18.6666 840.437 19.3479C841.141 18.2579 841.986 17.236 842.831 16.2822C843.676 15.3284 844.592 14.3747 845.507 13.489C846.423 12.6034 847.408 11.7177 848.394 10.9002C849.38 10.0827 850.366 9.26519 851.563 8.58392Z" fill="black"/>
<path d="M449 0C449.282 2.3163 449.422 4.6326 449.563 7.01703C449.704 9.33333 449.704 11.6496 449.704 14.0341C449.704 16.3504 449.634 18.6667 449.563 21.0511C449.493 23.3674 449.282 25.6837 449 28.0681C448.718 25.7518 448.577 23.4355 448.436 21.0511C448.296 18.7348 448.296 16.4185 448.296 14.0341C448.296 11.7178 448.366 9.40146 448.436 7.01703C448.507 4.6326 448.718 2.3163 449 0Z" fill="black"/>
<path d="M439 13.9659C440.69 13.6934 442.31 13.5572 444 13.4209C445.69 13.2847 447.31 13.2847 449 13.2847C450.69 13.2847 452.31 13.3528 454 13.4209C455.69 13.489 457.31 13.6934 459 13.9659C457.31 14.2384 455.69 14.3747 454 14.5109C452.31 14.6472 450.69 14.6472 449 14.6472C447.31 14.6472 445.69 14.5791 444 14.5109C442.31 14.4428 440.69 14.3066 439 13.9659Z" fill="black"/>
<path d="M443.437 8.58392C444.563 9.26519 445.62 10.0827 446.606 10.9002C447.591 11.7177 448.577 12.6034 449.493 13.489C450.408 14.3747 451.324 15.3284 452.169 16.2822C453.014 17.236 453.859 18.2579 454.563 19.3479C453.437 18.6666 452.38 17.8491 451.394 17.0316C450.408 16.2141 449.422 15.3284 448.507 14.4428C447.591 13.5572 446.676 12.6034 445.831 11.6496C444.986 10.6958 444.141 9.67395 443.437 8.58392Z" fill="black"/>
<path d="M454.563 8.58392C453.859 9.67395 453.014 10.6958 452.169 11.6496C451.324 12.6034 450.408 13.5572 449.493 14.4428C448.577 15.3284 447.591 16.2141 446.606 17.0316C445.62 17.8491 444.563 18.6666 443.437 19.3479C444.141 18.2579 444.986 17.236 445.831 16.2822C446.676 15.3284 447.591 14.3747 448.507 13.489C449.422 12.6034 450.408 11.7177 451.394 10.9002C452.38 10.0827 453.366 9.26519 454.563 8.58392Z" fill="black"/>
<path d="M265 0C265.282 2.3163 265.422 4.6326 265.563 7.01703C265.704 9.33333 265.704 11.6496 265.704 14.0341C265.704 16.3504 265.634 18.6667 265.563 21.0511C265.493 23.3674 265.282 25.6837 265 28.0681C264.718 25.7518 264.577 23.4355 264.436 21.0511C264.296 18.7348 264.296 16.4185 264.296 14.0341C264.296 11.7178 264.366 9.40146 264.436 7.01703C264.507 4.6326 264.718 2.3163 265 0Z" fill="black"/>
<path d="M255 13.9659C256.69 13.6934 258.31 13.5572 260 13.4209C261.69 13.2847 263.31 13.2847 265 13.2847C266.69 13.2847 268.31 13.3528 270 13.4209C271.69 13.489 273.31 13.6934 275 13.9659C273.31 14.2384 271.69 14.3747 270 14.5109C268.31 14.6472 266.69 14.6472 265 14.6472C263.31 14.6472 261.69 14.5791 260 14.5109C258.31 14.4428 256.69 14.3066 255 13.9659Z" fill="black"/>
<path d="M259.437 8.58392C260.563 9.26519 261.62 10.0827 262.606 10.9002C263.591 11.7177 264.577 12.6034 265.493 13.489C266.408 14.3747 267.324 15.3284 268.169 16.2822C269.014 17.236 269.859 18.2579 270.563 19.3479C269.437 18.6666 268.38 17.8491 267.394 17.0316C266.408 16.2141 265.422 15.3284 264.507 14.4428C263.591 13.5572 262.676 12.6034 261.831 11.6496C260.986 10.6958 260.141 9.67395 259.437 8.58392Z" fill="black"/>
<path d="M270.563 8.58392C269.859 9.67395 269.014 10.6958 268.169 11.6496C267.324 12.6034 266.408 13.5572 265.493 14.4428C264.577 15.3284 263.591 16.2141 262.606 17.0316C261.62 17.8491 260.563 18.6666 259.437 19.3479C260.141 18.2579 260.986 17.236 261.831 16.2822C262.676 15.3284 263.591 14.3747 264.507 13.489C265.422 12.6034 266.408 11.7177 267.394 10.9002C268.38 10.0827 269.366 9.26519 270.563 8.58392Z" fill="black"/>
<path d="M69.9999 0C70.2816 2.3163 70.4224 4.6326 70.5633 7.01703C70.7041 9.33333 70.7041 11.6496 70.7041 14.0341C70.7041 16.3504 70.6337 18.6667 70.5633 21.0511C70.4928 23.3674 70.2816 25.6837 69.9999 28.0681C69.7182 25.7518 69.5773 23.4355 69.4365 21.0511C69.2957 18.7348 69.2957 16.4185 69.2957 14.0341C69.2957 11.7178 69.3661 9.40146 69.4365 7.01703C69.5069 4.6326 69.7182 2.3163 69.9999 0Z" fill="black"/>
<path d="M60 13.9659C61.6901 13.6934 63.3099 13.5572 65 13.4209C66.6901 13.2847 68.3099 13.2847 70 13.2847C71.6901 13.2847 73.3099 13.3528 75 13.4209C76.6901 13.489 78.3099 13.6934 80 13.9659C78.3099 14.2384 76.6901 14.3747 75 14.5109C73.3099 14.6472 71.6901 14.6472 70 14.6472C68.3099 14.6472 66.6901 14.5791 65 14.5109C63.3099 14.4428 61.6901 14.3066 60 13.9659Z" fill="black"/>
<path d="M64.4365 8.58392C65.5633 9.26519 66.6196 10.0827 67.6055 10.9002C68.5915 11.7177 69.5774 12.6034 70.4929 13.489C71.4084 14.3747 72.3238 15.3284 73.1689 16.2822C74.014 17.236 74.8591 18.2579 75.5633 19.3479C74.4365 18.6666 73.3802 17.8491 72.3943 17.0316C71.4084 16.2141 70.4224 15.3284 69.5069 14.4428C68.5915 13.5572 67.676 12.6034 66.8309 11.6496C65.9858 10.6958 65.1407 9.67395 64.4365 8.58392Z" fill="black"/>
<path d="M75.5633 8.58392C74.8591 9.67395 74.014 10.6958 73.1689 11.6496C72.3238 12.6034 71.4084 13.5572 70.4929 14.4428C69.5774 15.3284 68.5915 16.2141 67.6055 17.0316C66.6196 17.8491 65.5633 18.6666 64.4365 19.3479C65.1407 18.2579 65.9858 17.236 66.8309 16.2822C67.676 15.3284 68.5915 14.3747 69.5069 13.489C70.4224 12.6034 71.4084 11.7177 72.3943 10.9002C73.3802 10.0827 74.3661 9.26519 75.5633 8.58392Z" fill="black"/>
</svg>
