<svg width="19" height="42" viewBox="0 0 19 42" fill="none" xmlns="http://www.w3.org/2000/svg">
<path d="M19 9C18.4545 8.98346 14.8843 9.08272 11.7438 11.2335C10.0909 14.3768 9.99174 17.4044 10.0083 18C10.0413 17.4706 9.92562 14.2114 8.27273 11.068C5.28099 8.75184 1.5124 8.98346 1 9C1.59504 9.01654 5.1157 8.5864 7.76033 6.93199C9.90909 3.7886 10.0083 0.545956 9.99174 0C9.95868 0.512868 10.405 3.7886 12.0579 6.76654C15.3636 8.75184 18.4711 9.03309 19 9Z" fill="black"/>
<path d="M18.8137 32.035C18.2661 32.0184 14.6818 32.1181 11.5289 34.2773C9.86947 37.4331 9.7699 40.4726 9.7865 41.0706C9.81968 40.5391 9.70353 37.267 8.04411 34.1112C5.04056 31.7859 1.25709 32.0184 0.742676 32.035C1.34007 32.0516 4.87462 31.6198 7.52969 29.9589C9.68693 26.8031 9.7865 23.5476 9.7699 22.9995C9.73671 23.5144 10.1848 26.8031 11.8442 29.7928C15.163 31.7859 18.2827 32.0683 18.8137 32.035Z" fill="black"/>
</svg>
