<svg width="40" height="58" viewBox="0 0 40 58" fill="none" xmlns="http://www.w3.org/2000/svg">
    <path d="M19.8167 0C20.0774 4.82379 20.2078 9.51722 20.3381 14.341C20.4685 19.1648 20.4685 23.8582 20.4685 28.682C20.4685 33.5058 20.4685 38.1992 20.3381 43.023L20.2078 50.1935C20.0774 52.5402 20.0774 55.0173 19.947 57.364C19.8167 55.0173 19.6863 52.5402 19.6863 50.1935L19.5559 43.023C19.4255 38.1992 19.4255 33.5058 19.4255 28.682C19.4255 23.8582 19.4255 19.1648 19.5559 14.341C19.4255 9.51722 19.5559 4.82379 19.8167 0Z" fill="black"/>
    <path d="M0 28.682C3.25932 28.4213 6.64901 28.2909 9.90833 28.1606C13.1677 28.0302 16.5573 28.0302 19.8167 28.0302C23.076 28.0302 26.4657 28.0302 29.725 28.1606L34.6792 28.2909C36.374 28.4213 37.9385 28.4213 39.6333 28.5517C37.9385 28.682 36.374 28.8124 34.6792 28.8124L29.725 28.9428C26.4657 29.0732 23.076 29.0732 19.8167 29.0732C16.5573 29.0732 13.1677 29.0732 9.90833 28.9428C6.64901 29.0732 3.25932 28.9428 0 28.682Z" fill="black"/>
    <path d="M8.86523 17.6003C12.9068 20.8596 16.6876 24.5101 20.338 28.1605C23.9885 31.8109 27.6389 35.5918 30.8982 39.6333C26.8567 36.374 23.0759 32.7236 19.4254 29.0731C15.775 25.4227 12.1246 21.6419 8.86523 17.6003Z" fill="black"/>
    <path d="M30.8982 17.6003C27.6389 21.6419 23.9885 25.4227 20.338 29.0731C16.6876 32.7236 12.9068 36.374 8.86523 39.6333C12.1246 35.5918 15.775 31.8109 19.4254 28.1605C23.0759 24.5101 26.8567 20.99 30.8982 17.6003Z" fill="black"/>
</svg>
