<svg width="1239" height="185" viewBox="0 0 1239 185" fill="none" xmlns="http://www.w3.org/2000/svg">
<path d="M201.47 69V1.8H213.566V27.24H215.294C215.806 26.216 216.606 25.192 217.694 24.168C218.782 23.144 220.222 22.312 222.014 21.672C223.87 20.968 226.206 20.616 229.022 20.616C232.734 20.616 235.966 21.48 238.718 23.208C241.534 24.872 243.71 27.208 245.246 30.216C246.782 33.16 247.55 36.616 247.55 40.584V69H235.454V41.544C235.454 37.96 234.558 35.272 232.766 33.48C231.038 31.688 228.542 30.792 225.278 30.792C221.566 30.792 218.686 32.04 216.638 34.536C214.59 36.968 213.566 40.392 213.566 44.808V69H201.47ZM260.626 69V21.384H272.722V69H260.626ZM266.674 15.816C264.498 15.816 262.642 15.112 261.106 13.704C259.634 12.296 258.898 10.44 258.898 8.136C258.898 5.832 259.634 3.976 261.106 2.568C262.642 1.16 264.498 0.455996 266.674 0.455996C268.914 0.455996 270.77 1.16 272.242 2.568C273.714 3.976 274.45 5.832 274.45 8.136C274.45 10.44 273.714 12.296 272.242 13.704C270.77 15.112 268.914 15.816 266.674 15.816ZM328.741 69C325.605 69 323.045 68.04 321.061 66.12C319.141 64.136 318.181 61.512 318.181 58.248V31.368H306.277V21.384H318.181V6.6H330.277V21.384H343.333V31.368H330.277V56.136C330.277 58.056 331.173 59.016 332.965 59.016H342.181V69H328.741ZM354.283 69V1.8H366.379V27.24H368.107C368.619 26.216 369.419 25.192 370.507 24.168C371.595 23.144 373.035 22.312 374.827 21.672C376.683 20.968 379.019 20.616 381.835 20.616C385.547 20.616 388.779 21.48 391.531 23.208C394.347 24.872 396.523 27.208 398.059 30.216C399.595 33.16 400.363 36.616 400.363 40.584V69H388.267V41.544C388.267 37.96 387.371 35.272 385.579 33.48C383.851 31.688 381.355 30.792 378.091 30.792C374.379 30.792 371.499 32.04 369.451 34.536C367.403 36.968 366.379 40.392 366.379 44.808V69H354.283ZM435.135 70.344C430.399 70.344 426.207 69.352 422.559 67.368C418.975 65.32 416.159 62.472 414.111 58.824C412.127 55.112 411.135 50.76 411.135 45.768V44.616C411.135 39.624 412.127 35.304 414.111 31.656C416.095 27.944 418.879 25.096 422.463 23.112C426.047 21.064 430.207 20.04 434.943 20.04C439.615 20.04 443.679 21.096 447.135 23.208C450.591 25.256 453.279 28.136 455.199 31.848C457.119 35.496 458.079 39.752 458.079 44.616V48.744H423.423C423.551 52.008 424.767 54.664 427.071 56.712C429.375 58.76 432.191 59.784 435.519 59.784C438.911 59.784 441.407 59.048 443.007 57.576C444.607 56.104 445.823 54.472 446.655 52.68L456.543 57.864C455.647 59.528 454.335 61.352 452.607 63.336C450.943 65.256 448.703 66.92 445.887 68.328C443.071 69.672 439.487 70.344 435.135 70.344ZM423.519 39.72H445.791C445.535 36.968 444.415 34.76 442.431 33.096C440.511 31.432 437.983 30.6 434.847 30.6C431.583 30.6 428.991 31.432 427.071 33.096C425.151 34.76 423.967 36.968 423.519 39.72ZM468.845 69V21.384H480.749V26.76H482.477C483.181 24.84 484.333 23.432 485.933 22.536C487.597 21.64 489.517 21.192 491.693 21.192H497.453V31.944H491.501C488.429 31.944 485.901 32.776 483.917 34.44C481.933 36.04 480.941 38.536 480.941 41.928V69H468.845ZM526.916 70.344C522.18 70.344 517.988 69.352 514.34 67.368C510.756 65.32 507.94 62.472 505.892 58.824C503.908 55.112 502.916 50.76 502.916 45.768V44.616C502.916 39.624 503.908 35.304 505.892 31.656C507.876 27.944 510.66 25.096 514.244 23.112C517.828 21.064 521.988 20.04 526.724 20.04C531.396 20.04 535.46 21.096 538.916 23.208C542.372 25.256 545.06 28.136 546.98 31.848C548.9 35.496 549.86 39.752 549.86 44.616V48.744H515.204C515.332 52.008 516.548 54.664 518.852 56.712C521.156 58.76 523.972 59.784 527.3 59.784C530.692 59.784 533.188 59.048 534.788 57.576C536.388 56.104 537.604 54.472 538.436 52.68L548.324 57.864C547.428 59.528 546.116 61.352 544.388 63.336C542.724 65.256 540.484 66.92 537.668 68.328C534.852 69.672 531.268 70.344 526.916 70.344ZM515.3 39.72H537.572C537.316 36.968 536.196 34.76 534.212 33.096C532.292 31.432 529.764 30.6 526.628 30.6C523.364 30.6 520.772 31.432 518.852 33.096C516.932 34.76 515.748 36.968 515.3 39.72ZM562.066 46.92V1.8H574.354V46.92H562.066ZM568.21 70.344C565.65 70.344 563.474 69.512 561.682 67.848C559.954 66.12 559.09 63.912 559.09 61.224C559.09 58.536 559.954 56.36 561.682 54.696C563.474 52.968 565.65 52.104 568.21 52.104C570.834 52.104 573.01 52.968 574.738 54.696C576.466 56.36 577.33 58.536 577.33 61.224C577.33 63.912 576.466 66.12 574.738 67.848C573.01 69.512 570.834 70.344 568.21 70.344ZM613.595 69V21.384H625.691V69H613.595ZM619.643 15.816C617.467 15.816 615.611 15.112 614.075 13.704C612.603 12.296 611.867 10.44 611.867 8.136C611.867 5.832 612.603 3.976 614.075 2.568C615.611 1.16 617.467 0.455996 619.643 0.455996C621.883 0.455996 623.739 1.16 625.211 2.568C626.683 3.976 627.419 5.832 627.419 8.136C627.419 10.44 626.683 12.296 625.211 13.704C623.739 15.112 621.883 15.816 619.643 15.816ZM639.959 31.272V24.744H643.703C646.647 24.744 648.119 23.272 648.119 20.328V17.256H646.487C643.927 17.256 641.783 16.488 640.055 14.952C638.391 13.416 637.559 11.464 637.559 9.096C637.559 6.536 638.391 4.456 640.055 2.856C641.783 1.256 643.927 0.455996 646.487 0.455996C649.111 0.455996 651.255 1.288 652.919 2.952C654.583 4.552 655.415 6.728 655.415 9.48V20.52C655.415 27.688 651.831 31.272 644.663 31.272H639.959ZM667.314 69V21.384H679.218V26.568H680.946C681.778 24.968 683.154 23.592 685.074 22.44C686.994 21.224 689.522 20.616 692.658 20.616C696.05 20.616 698.77 21.288 700.818 22.632C702.866 23.912 704.434 25.608 705.522 27.72H707.25C708.338 25.672 709.874 23.976 711.858 22.632C713.842 21.288 716.658 20.616 720.306 20.616C723.25 20.616 725.906 21.256 728.274 22.536C730.706 23.752 732.626 25.64 734.034 28.2C735.506 30.696 736.242 33.864 736.242 37.704V69H724.146V38.568C724.146 35.944 723.474 33.992 722.13 32.712C720.786 31.368 718.898 30.696 716.466 30.696C713.714 30.696 711.57 31.592 710.034 33.384C708.562 35.112 707.826 37.608 707.826 40.872V69H695.73V38.568C695.73 35.944 695.058 33.992 693.714 32.712C692.37 31.368 690.482 30.696 688.05 30.696C685.298 30.696 683.154 31.592 681.618 33.384C680.146 35.112 679.41 37.608 679.41 40.872V69H667.314ZM773.626 69V21.384H785.53V26.568H787.258C788.09 24.968 789.466 23.592 791.386 22.44C793.306 21.224 795.834 20.616 798.97 20.616C802.362 20.616 805.082 21.288 807.13 22.632C809.178 23.912 810.746 25.608 811.834 27.72H813.562C814.65 25.672 816.186 23.976 818.17 22.632C820.154 21.288 822.97 20.616 826.618 20.616C829.562 20.616 832.218 21.256 834.586 22.536C837.018 23.752 838.938 25.64 840.346 28.2C841.818 30.696 842.554 33.864 842.554 37.704V69H830.458V38.568C830.458 35.944 829.786 33.992 828.442 32.712C827.098 31.368 825.21 30.696 822.778 30.696C820.026 30.696 817.882 31.592 816.346 33.384C814.874 35.112 814.138 37.608 814.138 40.872V69H802.042V38.568C802.042 35.944 801.37 33.992 800.026 32.712C798.682 31.368 796.794 30.696 794.362 30.696C791.61 30.696 789.466 31.592 787.93 33.384C786.458 35.112 785.722 37.608 785.722 40.872V69H773.626ZM870.348 70.344C866.956 70.344 863.916 69.768 861.228 68.616C858.54 67.4 856.396 65.672 854.796 63.432C853.26 61.128 852.492 58.344 852.492 55.08C852.492 51.816 853.26 49.096 854.796 46.92C856.396 44.68 858.572 43.016 861.324 41.928C864.14 40.776 867.34 40.2 870.924 40.2H883.98V37.512C883.98 35.272 883.276 33.448 881.868 32.04C880.46 30.568 878.22 29.832 875.148 29.832C872.14 29.832 869.9 30.536 868.428 31.944C866.956 33.288 865.996 35.048 865.548 37.224L854.412 33.48C855.18 31.048 856.396 28.84 858.06 26.856C859.788 24.808 862.06 23.176 864.876 21.96C867.756 20.68 871.244 20.04 875.34 20.04C881.612 20.04 886.572 21.608 890.22 24.744C893.868 27.88 895.692 32.424 895.692 38.376V56.136C895.692 58.056 896.588 59.016 898.38 59.016H902.22V69H894.156C891.788 69 889.836 68.424 888.3 67.272C886.764 66.12 885.996 64.584 885.996 62.664V62.568H884.172C883.916 63.336 883.34 64.36 882.444 65.64C881.548 66.856 880.14 67.944 878.22 68.904C876.3 69.864 873.676 70.344 870.348 70.344ZM872.46 60.552C875.852 60.552 878.604 59.624 880.716 57.768C882.892 55.848 883.98 53.32 883.98 50.184V49.224H871.788C869.548 49.224 867.788 49.704 866.508 50.664C865.228 51.624 864.588 52.968 864.588 54.696C864.588 56.424 865.26 57.832 866.604 58.92C867.948 60.008 869.9 60.552 872.46 60.552ZM929.326 70.344C925.55 70.344 921.998 69.416 918.67 67.56C915.406 65.64 912.782 62.856 910.798 59.208C908.814 55.56 907.822 51.144 907.822 45.96V44.424C907.822 39.24 908.814 34.824 910.798 31.176C912.782 27.528 915.406 24.776 918.67 22.92C921.934 21 925.486 20.04 929.326 20.04C932.206 20.04 934.606 20.392 936.526 21.096C938.51 21.736 940.11 22.568 941.326 23.592C942.542 24.616 943.47 25.704 944.11 26.856H945.838V1.8H957.934V69H946.03V63.24H944.302C943.214 65.032 941.518 66.664 939.214 68.136C936.974 69.608 933.678 70.344 929.326 70.344ZM932.974 59.784C936.686 59.784 939.79 58.6 942.286 56.232C944.782 53.8 946.03 50.28 946.03 45.672V44.712C946.03 40.104 944.782 36.616 942.286 34.248C939.854 31.816 936.75 30.6 932.974 30.6C929.262 30.6 926.158 31.816 923.662 34.248C921.166 36.616 919.918 40.104 919.918 44.712V45.672C919.918 50.28 921.166 53.8 923.662 56.232C926.158 58.6 929.262 59.784 932.974 59.784ZM986.129 70.344C982.737 70.344 979.697 69.768 977.009 68.616C974.321 67.4 972.177 65.672 970.577 63.432C969.041 61.128 968.273 58.344 968.273 55.08C968.273 51.816 969.041 49.096 970.577 46.92C972.177 44.68 974.353 43.016 977.105 41.928C979.921 40.776 983.121 40.2 986.705 40.2H999.761V37.512C999.761 35.272 999.057 33.448 997.649 32.04C996.241 30.568 994.001 29.832 990.929 29.832C987.921 29.832 985.681 30.536 984.209 31.944C982.737 33.288 981.777 35.048 981.329 37.224L970.193 33.48C970.961 31.048 972.177 28.84 973.841 26.856C975.569 24.808 977.841 23.176 980.657 21.96C983.537 20.68 987.025 20.04 991.121 20.04C997.393 20.04 1002.35 21.608 1006 24.744C1009.65 27.88 1011.47 32.424 1011.47 38.376V56.136C1011.47 58.056 1012.37 59.016 1014.16 59.016H1018V69H1009.94C1007.57 69 1005.62 68.424 1004.08 67.272C1002.55 66.12 1001.78 64.584 1001.78 62.664V62.568H999.953C999.697 63.336 999.121 64.36 998.225 65.64C997.329 66.856 995.921 67.944 994.001 68.904C992.081 69.864 989.457 70.344 986.129 70.344ZM988.241 60.552C991.633 60.552 994.385 59.624 996.497 57.768C998.673 55.848 999.761 53.32 999.761 50.184V49.224H987.569C985.329 49.224 983.569 49.704 982.289 50.664C981.009 51.624 980.369 52.968 980.369 54.696C980.369 56.424 981.041 57.832 982.385 58.92C983.729 60.008 985.681 60.552 988.241 60.552ZM1026.85 69V1.8H1038.94V69H1026.85ZM1074.04 70.344C1069.31 70.344 1065.11 69.352 1061.47 67.368C1057.88 65.32 1055.07 62.472 1053.02 58.824C1051.03 55.112 1050.04 50.76 1050.04 45.768V44.616C1050.04 39.624 1051.03 35.304 1053.02 31.656C1055 27.944 1057.79 25.096 1061.37 23.112C1064.95 21.064 1069.11 20.04 1073.85 20.04C1078.52 20.04 1082.59 21.096 1086.04 23.208C1089.5 25.256 1092.19 28.136 1094.1 31.848C1096.03 35.496 1096.99 39.752 1096.99 44.616V48.744H1062.33C1062.46 52.008 1063.67 54.664 1065.98 56.712C1068.28 58.76 1071.1 59.784 1074.43 59.784C1077.82 59.784 1080.31 59.048 1081.91 57.576C1083.51 56.104 1084.73 54.472 1085.56 52.68L1095.45 57.864C1094.55 59.528 1093.24 61.352 1091.51 63.336C1089.85 65.256 1087.61 66.92 1084.79 68.328C1081.98 69.672 1078.39 70.344 1074.04 70.344ZM1062.43 39.72H1084.7C1084.44 36.968 1083.32 34.76 1081.34 33.096C1079.42 31.432 1076.89 30.6 1073.75 30.6C1070.49 30.6 1067.9 31.432 1065.98 33.096C1064.06 34.76 1062.87 36.968 1062.43 39.72ZM1107.75 69V21.384H1119.66V27.624H1121.38C1122.15 25.96 1123.59 24.392 1125.7 22.92C1127.82 21.384 1131.02 20.616 1135.3 20.616C1139.02 20.616 1142.25 21.48 1145 23.208C1147.82 24.872 1149.99 27.208 1151.53 30.216C1153.06 33.16 1153.83 36.616 1153.83 40.584V69H1141.74V41.544C1141.74 37.96 1140.84 35.272 1139.05 33.48C1137.32 31.688 1134.82 30.792 1131.56 30.792C1127.85 30.792 1124.97 32.04 1122.92 34.536C1120.87 36.968 1119.85 40.392 1119.85 44.808V69H1107.75ZM1181.69 70.344C1178.3 70.344 1175.26 69.768 1172.57 68.616C1169.88 67.4 1167.74 65.672 1166.14 63.432C1164.6 61.128 1163.84 58.344 1163.84 55.08C1163.84 51.816 1164.6 49.096 1166.14 46.92C1167.74 44.68 1169.92 43.016 1172.67 41.928C1175.48 40.776 1178.68 40.2 1182.27 40.2H1195.32V37.512C1195.32 35.272 1194.62 33.448 1193.21 32.04C1191.8 30.568 1189.56 29.832 1186.49 29.832C1183.48 29.832 1181.24 30.536 1179.77 31.944C1178.3 33.288 1177.34 35.048 1176.89 37.224L1165.76 33.48C1166.52 31.048 1167.74 28.84 1169.4 26.856C1171.13 24.808 1173.4 23.176 1176.22 21.96C1179.1 20.68 1182.59 20.04 1186.68 20.04C1192.96 20.04 1197.92 21.608 1201.56 24.744C1205.21 27.88 1207.04 32.424 1207.04 38.376V56.136C1207.04 58.056 1207.93 59.016 1209.72 59.016H1213.56V69H1205.5C1203.13 69 1201.18 68.424 1199.64 67.272C1198.11 66.12 1197.34 64.584 1197.34 62.664V62.568H1195.52C1195.26 63.336 1194.68 64.36 1193.79 65.64C1192.89 66.856 1191.48 67.944 1189.56 68.904C1187.64 69.864 1185.02 70.344 1181.69 70.344ZM1183.8 60.552C1187.2 60.552 1189.95 59.624 1192.06 57.768C1194.24 55.848 1195.32 53.32 1195.32 50.184V49.224H1183.13C1180.89 49.224 1179.13 49.704 1177.85 50.664C1176.57 51.624 1175.93 52.968 1175.93 54.696C1175.93 56.424 1176.6 57.832 1177.95 58.92C1179.29 60.008 1181.24 60.552 1183.8 60.552ZM1223.27 83.112V76.584H1227.02C1229.96 76.584 1231.43 75.112 1231.43 72.168V69.096H1229.8C1227.24 69.096 1225.1 68.328 1223.37 66.792C1221.7 65.256 1220.87 63.304 1220.87 60.936C1220.87 58.376 1221.7 56.296 1223.37 54.696C1225.1 53.096 1227.24 52.296 1229.8 52.296C1232.42 52.296 1234.57 53.128 1236.23 54.792C1237.9 56.392 1238.73 58.568 1238.73 61.32V72.36C1238.73 79.528 1235.14 83.112 1227.98 83.112H1223.27ZM6.935 165L0.215 117.384H12.215L16.439 156.84H18.167L24.311 117.384H43.703L49.847 156.84H51.575L55.799 117.384H67.799L61.079 165H41.015L34.871 125.544H33.143L26.999 165H6.935ZM99.8848 166.344C95.1488 166.344 90.9568 165.352 87.3088 163.368C83.7248 161.32 80.9088 158.472 78.8608 154.824C76.8768 151.112 75.8848 146.76 75.8848 141.768V140.616C75.8848 135.624 76.8768 131.304 78.8608 127.656C80.8448 123.944 83.6288 121.096 87.2128 119.112C90.7968 117.064 94.9568 116.04 99.6927 116.04C104.365 116.04 108.429 117.096 111.885 119.208C115.341 121.256 118.029 124.136 119.949 127.848C121.869 131.496 122.829 135.752 122.829 140.616V144.744H88.1728C88.3008 148.008 89.5168 150.664 91.8208 152.712C94.1248 154.76 96.9408 155.784 100.269 155.784C103.661 155.784 106.157 155.048 107.757 153.576C109.357 152.104 110.573 150.472 111.405 148.68L121.293 153.864C120.397 155.528 119.085 157.352 117.357 159.336C115.693 161.256 113.453 162.92 110.637 164.328C107.821 165.672 104.237 166.344 99.8848 166.344ZM88.2688 135.72H110.541C110.285 132.968 109.165 130.76 107.181 129.096C105.261 127.432 102.733 126.6 99.5968 126.6C96.3328 126.6 93.7408 127.432 91.8208 129.096C89.9008 130.76 88.7168 132.968 88.2688 135.72ZM133.595 165V97.8H145.691V165H133.595ZM181.463 166.344C176.855 166.344 172.663 165.384 168.887 163.464C165.175 161.544 162.231 158.76 160.055 155.112C157.879 151.464 156.791 147.048 156.791 141.864V140.52C156.791 135.336 157.879 130.92 160.055 127.272C162.231 123.624 165.175 120.84 168.887 118.92C172.663 117 176.855 116.04 181.463 116.04C186.007 116.04 189.911 116.84 193.175 118.44C196.439 120.04 199.063 122.248 201.047 125.064C203.095 127.816 204.439 130.952 205.079 134.472L193.367 136.968C193.111 135.048 192.535 133.32 191.639 131.784C190.743 130.248 189.463 129.032 187.799 128.136C186.199 127.24 184.183 126.792 181.751 126.792C179.319 126.792 177.111 127.336 175.127 128.424C173.207 129.448 171.671 131.016 170.519 133.128C169.431 135.176 168.887 137.704 168.887 140.712V141.672C168.887 144.68 169.431 147.24 170.519 149.352C171.671 151.4 173.207 152.968 175.127 154.056C177.111 155.08 179.319 155.592 181.751 155.592C185.399 155.592 188.151 154.664 190.007 152.808C191.927 150.888 193.143 148.392 193.655 145.32L205.367 148.104C204.535 151.496 203.095 154.6 201.047 157.416C199.063 160.168 196.439 162.344 193.175 163.944C189.911 165.544 186.007 166.344 181.463 166.344ZM238.001 166.344C233.265 166.344 229.009 165.384 225.233 163.464C221.457 161.544 218.481 158.76 216.305 155.112C214.129 151.464 213.041 147.08 213.041 141.96V140.424C213.041 135.304 214.129 130.92 216.305 127.272C218.481 123.624 221.457 120.84 225.233 118.92C229.009 117 233.265 116.04 238.001 116.04C242.737 116.04 246.993 117 250.769 118.92C254.545 120.84 257.521 123.624 259.697 127.272C261.873 130.92 262.961 135.304 262.961 140.424V141.96C262.961 147.08 261.873 151.464 259.697 155.112C257.521 158.76 254.545 161.544 250.769 163.464C246.993 165.384 242.737 166.344 238.001 166.344ZM238.001 155.592C241.713 155.592 244.785 154.408 247.217 152.04C249.649 149.608 250.865 146.152 250.865 141.672V140.712C250.865 136.232 249.649 132.808 247.217 130.44C244.849 128.008 241.777 126.792 238.001 126.792C234.289 126.792 231.217 128.008 228.785 130.44C226.353 132.808 225.137 136.232 225.137 140.712V141.672C225.137 146.152 226.353 149.608 228.785 152.04C231.217 154.408 234.289 155.592 238.001 155.592ZM274.126 165V117.384H286.03V122.568H287.758C288.59 120.968 289.966 119.592 291.886 118.44C293.806 117.224 296.334 116.616 299.47 116.616C302.862 116.616 305.582 117.288 307.63 118.632C309.678 119.912 311.246 121.608 312.334 123.72H314.062C315.15 121.672 316.686 119.976 318.67 118.632C320.654 117.288 323.47 116.616 327.118 116.616C330.062 116.616 332.718 117.256 335.086 118.536C337.518 119.752 339.438 121.64 340.846 124.2C342.318 126.696 343.054 129.864 343.054 133.704V165H330.958V134.568C330.958 131.944 330.286 129.992 328.942 128.712C327.598 127.368 325.71 126.696 323.278 126.696C320.526 126.696 318.382 127.592 316.846 129.384C315.374 131.112 314.638 133.608 314.638 136.872V165H302.542V134.568C302.542 131.944 301.87 129.992 300.526 128.712C299.182 127.368 297.294 126.696 294.862 126.696C292.11 126.696 289.966 127.592 288.43 129.384C286.958 131.112 286.222 133.608 286.222 136.872V165H274.126ZM377.76 166.344C373.024 166.344 368.832 165.352 365.184 163.368C361.6 161.32 358.784 158.472 356.736 154.824C354.752 151.112 353.76 146.76 353.76 141.768V140.616C353.76 135.624 354.752 131.304 356.736 127.656C358.72 123.944 361.504 121.096 365.088 119.112C368.672 117.064 372.832 116.04 377.568 116.04C382.24 116.04 386.304 117.096 389.76 119.208C393.216 121.256 395.904 124.136 397.824 127.848C399.744 131.496 400.704 135.752 400.704 140.616V144.744H366.048C366.176 148.008 367.392 150.664 369.696 152.712C372 154.76 374.816 155.784 378.144 155.784C381.536 155.784 384.032 155.048 385.632 153.576C387.232 152.104 388.448 150.472 389.28 148.68L399.168 153.864C398.272 155.528 396.96 157.352 395.232 159.336C393.568 161.256 391.328 162.92 388.512 164.328C385.696 165.672 382.112 166.344 377.76 166.344ZM366.144 135.72H388.416C388.16 132.968 387.04 130.76 385.056 129.096C383.136 127.432 380.608 126.6 377.472 126.6C374.208 126.6 371.616 127.432 369.696 129.096C367.776 130.76 366.592 132.968 366.144 135.72ZM454.085 165C450.949 165 448.389 164.04 446.405 162.12C444.485 160.136 443.525 157.512 443.525 154.248V127.368H431.621V117.384H443.525V102.6H455.621V117.384H468.677V127.368H455.621V152.136C455.621 154.056 456.517 155.016 458.309 155.016H467.525V165H454.085ZM500.595 166.344C495.859 166.344 491.603 165.384 487.827 163.464C484.051 161.544 481.075 158.76 478.899 155.112C476.723 151.464 475.635 147.08 475.635 141.96V140.424C475.635 135.304 476.723 130.92 478.899 127.272C481.075 123.624 484.051 120.84 487.827 118.92C491.603 117 495.859 116.04 500.595 116.04C505.331 116.04 509.587 117 513.363 118.92C517.139 120.84 520.115 123.624 522.291 127.272C524.467 130.92 525.555 135.304 525.555 140.424V141.96C525.555 147.08 524.467 151.464 522.291 155.112C520.115 158.76 517.139 161.544 513.363 163.464C509.587 165.384 505.331 166.344 500.595 166.344ZM500.595 155.592C504.307 155.592 507.379 154.408 509.811 152.04C512.243 149.608 513.459 146.152 513.459 141.672V140.712C513.459 136.232 512.243 132.808 509.811 130.44C507.443 128.008 504.371 126.792 500.595 126.792C496.883 126.792 493.811 128.008 491.379 130.44C488.947 132.808 487.731 136.232 487.731 140.712V141.672C487.731 146.152 488.947 149.608 491.379 152.04C493.811 154.408 496.883 155.592 500.595 155.592ZM561.095 165V117.384H572.999V122.568H574.727C575.559 120.968 576.935 119.592 578.855 118.44C580.775 117.224 583.303 116.616 586.439 116.616C589.831 116.616 592.551 117.288 594.599 118.632C596.647 119.912 598.215 121.608 599.303 123.72H601.031C602.119 121.672 603.655 119.976 605.639 118.632C607.623 117.288 610.439 116.616 614.087 116.616C617.031 116.616 619.687 117.256 622.055 118.536C624.487 119.752 626.407 121.64 627.815 124.2C629.287 126.696 630.023 129.864 630.023 133.704V165H617.927V134.568C617.927 131.944 617.255 129.992 615.911 128.712C614.567 127.368 612.679 126.696 610.247 126.696C607.495 126.696 605.351 127.592 603.815 129.384C602.343 131.112 601.607 133.608 601.607 136.872V165H589.511V134.568C589.511 131.944 588.839 129.992 587.495 128.712C586.151 127.368 584.263 126.696 581.831 126.696C579.079 126.696 576.935 127.592 575.399 129.384C573.927 131.112 573.191 133.608 573.191 136.872V165H561.095ZM647.467 184.2V173.64H673.387C675.179 173.64 676.075 172.68 676.075 170.76V158.76H674.347C673.835 159.848 673.035 160.936 671.947 162.024C670.859 163.112 669.387 164.008 667.531 164.712C665.675 165.416 663.307 165.768 660.427 165.768C656.715 165.768 653.451 164.936 650.635 163.272C647.883 161.544 645.739 159.176 644.203 156.168C642.667 153.16 641.898 149.704 641.898 145.8V117.384H653.995V144.84C653.995 148.424 654.859 151.112 656.587 152.904C658.379 154.696 660.907 155.592 664.171 155.592C667.883 155.592 670.763 154.376 672.811 151.944C674.859 149.448 675.883 145.992 675.883 141.576V117.384H687.979V173.448C687.979 176.712 687.019 179.304 685.099 181.224C683.179 183.208 680.619 184.2 677.419 184.2H647.467ZM729.654 165L722.934 117.384H734.934L739.158 156.84H740.886L747.03 117.384H766.422L772.566 156.84H774.294L778.518 117.384H790.518L783.798 165H763.734L757.59 125.544H755.862L749.718 165H729.654ZM822.604 166.344C817.868 166.344 813.676 165.352 810.028 163.368C806.444 161.32 803.628 158.472 801.58 154.824C799.596 151.112 798.604 146.76 798.604 141.768V140.616C798.604 135.624 799.596 131.304 801.58 127.656C803.564 123.944 806.348 121.096 809.932 119.112C813.516 117.064 817.676 116.04 822.411 116.04C827.084 116.04 831.148 117.096 834.604 119.208C838.06 121.256 840.748 124.136 842.667 127.848C844.588 131.496 845.548 135.752 845.548 140.616V144.744H810.892C811.02 148.008 812.236 150.664 814.54 152.712C816.844 154.76 819.66 155.784 822.988 155.784C826.38 155.784 828.876 155.048 830.476 153.576C832.076 152.104 833.292 150.472 834.124 148.68L844.012 153.864C843.116 155.528 841.804 157.352 840.076 159.336C838.412 161.256 836.172 162.92 833.356 164.328C830.54 165.672 826.956 166.344 822.604 166.344ZM810.988 135.72H833.26C833.004 132.968 831.884 130.76 829.9 129.096C827.98 127.432 825.452 126.6 822.316 126.6C819.052 126.6 816.46 127.432 814.54 129.096C812.62 130.76 811.436 132.968 810.988 135.72ZM884.922 166.344C880.634 166.344 877.338 165.608 875.034 164.136C872.73 162.664 871.034 161.032 869.946 159.24H868.218V165H856.314V97.8H868.41V122.856H870.138C870.842 121.704 871.77 120.616 872.922 119.592C874.138 118.568 875.706 117.736 877.626 117.096C879.61 116.392 882.042 116.04 884.922 116.04C888.762 116.04 892.314 117 895.578 118.92C898.842 120.776 901.466 123.528 903.45 127.176C905.434 130.824 906.426 135.24 906.426 140.424V141.96C906.426 147.144 905.434 151.56 903.45 155.208C901.466 158.856 898.842 161.64 895.578 163.56C892.314 165.416 888.762 166.344 884.922 166.344ZM881.274 155.784C884.986 155.784 888.09 154.6 890.586 152.232C893.082 149.8 894.33 146.28 894.33 141.672V140.712C894.33 136.104 893.082 132.616 890.586 130.248C888.154 127.816 885.05 126.6 881.274 126.6C877.562 126.6 874.458 127.816 871.962 130.248C869.466 132.616 868.218 136.104 868.218 140.712V141.672C868.218 146.28 869.466 149.8 871.962 152.232C874.458 154.6 877.562 155.784 881.274 155.784ZM961.684 166.344C955.476 166.344 950.388 165 946.42 162.312C942.452 159.624 940.052 155.784 939.22 150.792L950.356 147.912C950.804 150.152 951.54 151.912 952.564 153.192C953.652 154.472 954.964 155.4 956.5 155.976C958.1 156.488 959.828 156.744 961.684 156.744C964.5 156.744 966.58 156.264 967.924 155.304C969.268 154.28 969.94 153.032 969.94 151.56C969.94 150.088 969.3 148.968 968.02 148.2C966.74 147.368 964.692 146.696 961.876 146.184L959.188 145.704C955.86 145.064 952.82 144.2 950.068 143.112C947.316 141.96 945.108 140.392 943.444 138.408C941.78 136.424 940.948 133.864 940.948 130.728C940.948 125.992 942.676 122.376 946.132 119.88C949.588 117.32 954.132 116.04 959.764 116.04C965.076 116.04 969.492 117.224 973.012 119.592C976.532 121.96 978.836 125.064 979.924 128.904L968.692 132.36C968.18 129.928 967.124 128.2 965.524 127.176C963.988 126.152 962.068 125.64 959.764 125.64C957.46 125.64 955.7 126.056 954.484 126.888C953.268 127.656 952.66 128.744 952.66 130.152C952.66 131.688 953.3 132.84 954.58 133.608C955.86 134.312 957.588 134.856 959.764 135.24L962.452 135.72C966.036 136.36 969.268 137.224 972.148 138.312C975.092 139.336 977.396 140.84 979.06 142.824C980.788 144.744 981.652 147.368 981.652 150.696C981.652 155.688 979.828 159.56 976.18 162.312C972.596 165 967.764 166.344 961.684 166.344ZM992.251 184.2V117.384H1004.16V123.144H1005.88C1006.97 121.288 1008.67 119.656 1010.97 118.248C1013.28 116.776 1016.57 116.04 1020.86 116.04C1024.7 116.04 1028.25 117 1031.52 118.92C1034.78 120.776 1037.4 123.528 1039.39 127.176C1041.37 130.824 1042.36 135.24 1042.36 140.424V141.96C1042.36 147.144 1041.37 151.56 1039.39 155.208C1037.4 158.856 1034.78 161.64 1031.52 163.56C1028.25 165.416 1024.7 166.344 1020.86 166.344C1017.98 166.344 1015.55 165.992 1013.56 165.288C1011.64 164.648 1010.08 163.816 1008.86 162.792C1007.71 161.704 1006.78 160.616 1006.08 159.528H1004.35V184.2H992.251ZM1017.21 155.784C1020.99 155.784 1024.09 154.6 1026.52 152.232C1029.02 149.8 1030.27 146.28 1030.27 141.672V140.712C1030.27 136.104 1029.02 132.616 1026.52 130.248C1024.03 127.816 1020.92 126.6 1017.21 126.6C1013.5 126.6 1010.4 127.816 1007.9 130.248C1005.4 132.616 1004.16 136.104 1004.16 140.712V141.672C1004.16 146.28 1005.4 149.8 1007.9 152.232C1010.4 154.6 1013.5 155.784 1017.21 155.784ZM1068.25 166.344C1064.86 166.344 1061.82 165.768 1059.13 164.616C1056.45 163.4 1054.3 161.672 1052.7 159.432C1051.17 157.128 1050.4 154.344 1050.4 151.08C1050.4 147.816 1051.17 145.096 1052.7 142.92C1054.3 140.68 1056.48 139.016 1059.23 137.928C1062.05 136.776 1065.25 136.2 1068.83 136.2H1081.89V133.512C1081.89 131.272 1081.18 129.448 1079.77 128.04C1078.37 126.568 1076.13 125.832 1073.05 125.832C1070.05 125.832 1067.81 126.536 1066.33 127.944C1064.86 129.288 1063.9 131.048 1063.45 133.224L1052.32 129.48C1053.09 127.048 1054.3 124.84 1055.97 122.856C1057.69 120.808 1059.97 119.176 1062.78 117.96C1065.66 116.68 1069.15 116.04 1073.25 116.04C1079.52 116.04 1084.48 117.608 1088.13 120.744C1091.77 123.88 1093.6 128.424 1093.6 134.376V152.136C1093.6 154.056 1094.49 155.016 1096.29 155.016H1100.13V165H1092.06C1089.69 165 1087.74 164.424 1086.21 163.272C1084.67 162.12 1083.9 160.584 1083.9 158.664V158.568H1082.08C1081.82 159.336 1081.25 160.36 1080.35 161.64C1079.45 162.856 1078.05 163.944 1076.13 164.904C1074.21 165.864 1071.58 166.344 1068.25 166.344ZM1070.37 156.552C1073.76 156.552 1076.51 155.624 1078.62 153.768C1080.8 151.848 1081.89 149.32 1081.89 146.184V145.224H1069.69C1067.45 145.224 1065.69 145.704 1064.41 146.664C1063.13 147.624 1062.49 148.968 1062.49 150.696C1062.49 152.424 1063.17 153.832 1064.51 154.92C1065.85 156.008 1067.81 156.552 1070.37 156.552ZM1130.4 166.344C1125.79 166.344 1121.6 165.384 1117.82 163.464C1114.11 161.544 1111.17 158.76 1108.99 155.112C1106.82 151.464 1105.73 147.048 1105.73 141.864V140.52C1105.73 135.336 1106.82 130.92 1108.99 127.272C1111.17 123.624 1114.11 120.84 1117.82 118.92C1121.6 117 1125.79 116.04 1130.4 116.04C1134.94 116.04 1138.85 116.84 1142.11 118.44C1145.38 120.04 1148 122.248 1149.98 125.064C1152.03 127.816 1153.38 130.952 1154.02 134.472L1142.3 136.968C1142.05 135.048 1141.47 133.32 1140.58 131.784C1139.68 130.248 1138.4 129.032 1136.74 128.136C1135.14 127.24 1133.12 126.792 1130.69 126.792C1128.26 126.792 1126.05 127.336 1124.06 128.424C1122.14 129.448 1120.61 131.016 1119.46 133.128C1118.37 135.176 1117.82 137.704 1117.82 140.712V141.672C1117.82 144.68 1118.37 147.24 1119.46 149.352C1120.61 151.4 1122.14 152.968 1124.06 154.056C1126.05 155.08 1128.26 155.592 1130.69 155.592C1134.34 155.592 1137.09 154.664 1138.94 152.808C1140.86 150.888 1142.08 148.392 1142.59 145.32L1154.3 148.104C1153.47 151.496 1152.03 154.6 1149.98 157.416C1148 160.168 1145.38 162.344 1142.11 163.944C1138.85 165.544 1134.94 166.344 1130.4 166.344ZM1185.98 166.344C1181.24 166.344 1177.05 165.352 1173.4 163.368C1169.82 161.32 1167 158.472 1164.95 154.824C1162.97 151.112 1161.98 146.76 1161.98 141.768V140.616C1161.98 135.624 1162.97 131.304 1164.95 127.656C1166.94 123.944 1169.72 121.096 1173.31 119.112C1176.89 117.064 1181.05 116.04 1185.79 116.04C1190.46 116.04 1194.52 117.096 1197.98 119.208C1201.43 121.256 1204.12 124.136 1206.04 127.848C1207.96 131.496 1208.92 135.752 1208.92 140.616V144.744H1174.27C1174.39 148.008 1175.61 150.664 1177.91 152.712C1180.22 154.76 1183.03 155.784 1186.36 155.784C1189.75 155.784 1192.25 155.048 1193.85 153.576C1195.45 152.104 1196.67 150.472 1197.5 148.68L1207.39 153.864C1206.49 155.528 1205.18 157.352 1203.45 159.336C1201.79 161.256 1199.55 162.92 1196.73 164.328C1193.91 165.672 1190.33 166.344 1185.98 166.344ZM1174.36 135.72H1196.63C1196.38 132.968 1195.26 130.76 1193.27 129.096C1191.35 127.432 1188.83 126.6 1185.69 126.6C1182.43 126.6 1179.83 127.432 1177.91 129.096C1175.99 130.76 1174.81 132.968 1174.36 135.72ZM1226.71 166.344C1224.15 166.344 1221.97 165.512 1220.18 163.848C1218.45 162.12 1217.59 159.912 1217.59 157.224C1217.59 154.536 1218.45 152.36 1220.18 150.696C1221.97 148.968 1224.15 148.104 1226.71 148.104C1229.33 148.104 1231.51 148.968 1233.24 150.696C1234.97 152.36 1235.83 154.536 1235.83 157.224C1235.83 159.912 1234.97 162.12 1233.24 163.848C1231.51 165.512 1229.33 166.344 1226.71 166.344Z" fill="black"/>
</svg>
