<svg width="51" height="37" viewBox="0 0 51 37" fill="none" xmlns="http://www.w3.org/2000/svg">
<path d="M17.0795 1L25.7032 20.0408M23.8518 1L32.4756 20.0408M18.1489 3.21867H24.8725M19.0259 5.16159H25.7495M19.9029 7.10455H26.6265M20.7799 9.04746H27.5035M21.6569 10.9904H28.3805M22.5339 12.9333H29.2575" stroke="black"/>
<path d="M32.1223 15.7081C32.2958 15.8213 32.434 16.035 32.489 16.2326C32.5297 16.385 32.5524 16.5401 32.593 16.6925C32.64 16.8622 32.7469 16.9713 32.8497 17.112C32.8847 17.1594 32.9202 17.2104 32.9471 17.2646C32.9734 17.3152 32.9672 17.3801 33.0315 17.37C33.0958 17.3598 33.1161 17.28 33.1148 17.2254C33.1092 17.0858 33.021 17.003 32.953 16.8969C32.9637 16.8952 32.9724 16.892 32.9845 16.8883C33.081 17.0118 33.1475 17.1546 33.2206 17.2928C33.2832 17.4107 33.3622 17.5625 33.4643 17.6523C33.5047 17.6879 33.5637 17.7023 33.6153 17.6924C33.656 17.6841 33.6964 17.6504 33.6902 17.6113C33.6874 17.5935 33.676 17.5788 33.6788 17.5619C33.6807 17.5507 33.6882 17.5404 33.6978 17.5316C33.7209 17.5043 33.7425 17.4789 33.7657 17.4516C33.8089 17.401 33.7516 17.2585 33.7537 17.1907C33.7542 17.1595 33.7625 17.1309 33.7651 17.1013C33.7715 17.0492 33.7708 16.9982 33.7629 16.9483C33.7156 16.6492 33.446 16.4726 33.2386 16.2844C32.9773 16.0444 32.794 15.7192 32.726 15.3704M23.2974 6.81441C23.2745 6.61179 23.2495 6.40769 23.2251 6.2071C23.2035 6.02437 23.1629 5.8373 23.1648 5.65267C23.1673 5.54098 23.1882 5.43001 23.2111 5.32056C23.2245 5.25456 23.2378 5.18862 23.2687 5.129C23.3134 5.04169 23.4928 4.89119 23.4247 4.78511C23.2907 4.88649 23.1561 4.98431 23.0026 5.05587C22.9585 5.07744 22.9102 5.096 22.859 5.09672C22.7987 5.09708 22.7409 5.06785 22.6904 5.03746C22.5108 4.9325 22.3548 4.79097 22.2302 4.62808C22.1103 4.47176 21.9858 4.32161 21.8806 4.15382C21.8732 4.14219 21.8679 4.1321 21.8561 4.12664C21.836 4.11522 21.8107 4.12832 21.793 4.14388C21.7381 4.20181 21.7548 4.29591 21.7895 4.36527C21.8217 4.42953 21.8982 4.5197 21.8957 4.59676C21.8923 4.67938 21.7965 4.73278 21.8141 4.82127C21.8212 4.85482 21.8436 4.88053 21.8523 4.91199C21.8744 4.99426 21.7989 5.07188 21.7848 5.15619C21.7667 5.25028 21.8253 5.34326 21.8863 5.41583C22.0221 5.58056 22.1904 5.71836 22.3771 5.8222C22.5194 5.90023 22.5201 6.0899 22.5384 6.25127C22.5566 6.41263 22.5492 6.57441 22.5496 6.73858C22.5494 6.76051 22.5498 6.78601 22.5623 6.80773C22.5723 6.82446 22.5868 6.83492 22.6048 6.84486C22.7246 6.91912 22.8701 6.93636 23.0124 6.94503C23.0606 6.94839 23.1122 6.9512 23.159 6.93472C23.2074 6.91616 23.3032 6.86276 23.2974 6.81441Z" fill="#E2BBB2"/>
<path d="M26.6469 6.56843C26.4852 6.73805 26.4478 6.97572 26.4936 7.20756C26.5318 7.40234 26.6408 7.58227 26.8 7.69773C26.8227 7.71425 26.8491 7.73017 26.8788 7.73282C26.9525 7.73583 26.9901 7.64959 27.01 7.57895C27.0431 7.46425 27.0431 7.36021 27.062 7.24775C27.0808 7.1353 27.1612 7.04232 27.1575 6.92615C27.1528 6.81553 27.2115 6.49244 27.1245 6.4167C27.0183 6.32388 26.7706 6.45959 26.6868 6.53115C26.6736 6.54053 26.661 6.55343 26.6469 6.56843Z" fill="#31446C"/>
<path d="M28.2217 5.9028C28.2217 5.9028 28.9307 5.86343 28.9851 7.13558C29.0455 8.54988 29.6252 8.37933 30.3874 9.60288C30.8329 10.3178 30.1667 11.4273 29.0667 11.288C27.9667 11.1493 27.0055 10.7199 26.3566 10.7919C25.7078 10.8639 25.8482 9.20722 26.5279 8.76316C27.2077 8.3191 26.029 6.71396 26.911 6.1475C27.7931 5.58099 28.2217 5.9028 28.2217 5.9028Z" fill="black"/>
<path d="M26.4979 8.01006C26.4958 8.10012 26.4954 8.19023 26.4968 8.28031C26.5032 8.43627 26.7633 8.49573 26.8775 8.53434C26.9314 8.55143 26.9854 8.56846 27.0403 8.57988C27.0628 8.58366 27.1482 8.57938 27.1627 8.58983C27.2262 8.63277 27.2418 9.23988 27.2765 9.23988C27.601 9.24785 27.9207 9.31908 28.2177 9.44954C28.1465 8.74533 28.4284 8.01664 28.2241 7.33889C28.1391 7.0566 27.9707 6.80206 27.7465 6.61101C27.6004 6.48616 27.283 6.297 27.0932 6.42726C27.0354 6.46734 26.9933 6.52508 26.9568 6.58373C26.6868 7.00581 26.5172 7.50699 26.4979 8.01006Z" fill="#E2BBB2"/>
<path d="M31.9266 11.909C32.0062 11.782 32.0187 11.626 32.0105 11.4783C31.9744 10.8445 31.5916 10.2777 31.1301 9.84328C30.6669 9.40769 30.1195 9.07384 29.6259 8.67522C29.4978 8.57143 29.3702 8.46081 29.2174 8.39589C29.0646 8.33102 28.8806 8.31689 28.7394 8.40466C28.6398 8.46617 28.5749 8.57072 28.5323 8.67762C28.4389 8.91161 28.4378 9.16977 28.4533 9.41876C28.4722 9.73282 28.5158 10.0462 28.6105 10.343C28.6862 10.5823 28.824 10.8349 29.0639 10.9055C29.1057 11.1863 29.2242 11.458 29.4078 11.6756C29.6177 11.925 29.8985 12.1032 30.1952 12.2383C30.4686 12.363 30.772 12.4575 31.0665 12.3991C31.2411 12.3654 31.4007 12.2819 31.5572 12.1961C31.6963 12.1237 31.8413 12.0436 31.9266 11.909ZM29.4093 11.2236L29.2701 10.9411C29.3053 10.9486 29.3383 10.959 29.3708 10.9764C29.4584 11.0257 29.4985 11.1757 29.4093 11.2236Z" fill="black"/>
<path d="M27.3042 9.20631C27.0065 9.23303 26.7904 9.49879 26.493 9.51639C26.1138 9.53771 25.696 9.44285 25.317 9.40755C25.0087 9.3794 24.6664 9.33289 24.471 9.09349C24.4481 9.06427 24.4267 9.03296 24.3932 9.01817C24.3598 9.00332 24.3103 9.01475 24.3011 9.04907C24.0614 8.6451 23.8705 8.21343 23.7305 7.7683C23.6897 7.63784 23.3247 6.49987 23.3456 6.49298C23.0756 6.56826 22.7979 6.60646 22.5187 6.61207C22.5168 6.72733 22.4881 6.85779 22.4861 6.97305C22.4823 7.23825 22.4807 7.50498 22.5039 7.76779C22.567 8.47868 22.8166 9.17673 23.2439 9.74824C23.8542 10.5629 24.8495 11.0451 25.8431 11.2739C25.7945 11.5571 25.8806 11.8464 26.0157 12.099C26.2255 12.4875 26.4608 12.7717 26.5298 13.2189C26.5909 13.6163 26.5647 14.0292 26.4501 14.4158C26.4394 14.4522 26.4272 14.4906 26.4298 14.5303C26.4322 14.5574 26.4383 14.5838 26.4494 14.6076C26.5152 14.7688 26.6559 14.8835 26.7935 14.9896C27.4071 15.4662 28.1865 15.8454 28.9316 16.0768C29.5569 16.2686 30.2386 16.3311 30.8665 16.1465C30.3809 15.6809 30.2812 14.9812 30.11 14.3621C29.9345 13.7272 29.4926 13.2018 29.3909 12.5481C29.3689 12.4092 29.3596 12.2574 29.4423 12.1439C29.7891 12.7391 30.5973 12.8839 31.0252 13.4243C31.2998 13.7716 31.3725 14.231 31.505 14.6518C31.6311 15.0554 31.8239 15.4412 32.0886 15.7718C32.383 15.793 32.6921 15.6988 32.8972 15.4913C32.7296 14.837 32.5082 14.213 32.3406 13.5586C32.2972 13.3884 32.2511 13.2132 32.1513 13.0683C32.0353 12.9022 31.8598 12.7875 31.7024 12.6608C31.2971 12.3322 31.0067 11.8851 30.677 11.4789C30.263 10.9668 29.7823 10.5122 29.2476 10.127C29.0407 9.97703 28.8244 9.83586 28.6086 9.69826C28.4528 9.5984 28.2977 9.49748 28.1433 9.39552C28.0803 9.35615 28.0188 9.31468 27.9498 9.28357C27.7399 9.19432 27.5336 9.18662 27.3042 9.20631Z" fill="#AEA69A"/>
<path fill-rule="evenodd" clip-rule="evenodd" d="M40.5238 21.5288C43.2868 21.5288 41.994 17.7301 38.4936 18.6374C38.2997 13.3629 28.3836 9.50361 24.2832 16.6177C23.1239 15.8224 20.5207 17.3247 21.0971 18.6374C19.8094 18.7326 18.7963 18.8617 18.0081 19.0327C16.1881 19.4277 16.5484 21.511 18.4243 21.4964L40.5238 21.5288Z" fill="white"/>
<path fill-rule="evenodd" clip-rule="evenodd" d="M10.827 22.2219H30.8072C32.6827 22.2219 32.5967 20.6704 31.984 20.1298C31.3561 19.5757 30.1155 19.8004 30.1155 19.8004C30.1155 19.8004 29.7461 18.7568 28.5303 18.2488C27.4549 17.7994 26.3282 18.0132 26.3282 18.0132C26.3282 18.0132 26.3282 17.297 25.6397 16.7039C24.951 16.1106 24.0329 16.1683 24.0329 16.1683C24.0329 16.1683 23.4017 12.219 19.1841 12.219C14.9665 12.219 14.4788 15.9376 14.4788 15.9376C14.4788 15.9376 13.532 15.9376 12.8433 16.5719C12.1547 17.2061 12.0687 17.9267 12.0687 17.9267C12.0687 17.9267 9.76579 17.6149 9.08469 19.6108C8.67887 20.8004 9.51272 22.2219 10.827 22.2219Z" fill="#AEA69A"/>
<path d="M4.46094 32.0859L2.91016 36H2.17188L4.04297 31.4492H4.51562L4.46094 32.0859ZM5.80078 36L4.26172 32.0703L4.21094 31.4492H4.6875L6.53516 36H5.80078ZM5.69531 34.3164V34.9102H2.99219V34.3164H5.69531ZM9.85547 31.4492H10.582V34.4961C10.582 34.8398 10.5 35.1289 10.3359 35.3633C10.1745 35.5951 9.95703 35.7695 9.68359 35.8867C9.41276 36.0039 9.11328 36.0625 8.78516 36.0625C8.44401 36.0625 8.13802 36.0039 7.86719 35.8867C7.59896 35.7695 7.38672 35.5951 7.23047 35.3633C7.07422 35.1289 6.99609 34.8398 6.99609 34.4961V31.4492H7.71094V34.4961C7.71094 34.7201 7.75521 34.9049 7.84375 35.0508C7.9349 35.194 8.0612 35.3008 8.22266 35.3711C8.38411 35.4388 8.57161 35.4727 8.78516 35.4727C9.0013 35.4727 9.1888 35.4388 9.34766 35.3711C9.50911 35.3008 9.63411 35.194 9.72266 35.0508C9.8112 34.9049 9.85547 34.7201 9.85547 34.4961V31.4492ZM13.4609 31.4492V36H12.7422V31.4492H13.4609ZM15.0195 31.4492V32.0469H11.1914V31.4492H15.0195ZM19.543 33.5977V33.8555C19.543 34.1992 19.4961 34.5078 19.4023 34.7812C19.3086 35.0521 19.1745 35.2839 19 35.4766C18.8255 35.6667 18.6159 35.8125 18.3711 35.9141C18.1289 36.013 17.8581 36.0625 17.5586 36.0625C17.2643 36.0625 16.9948 36.013 16.75 35.9141C16.5078 35.8125 16.2969 35.6667 16.1172 35.4766C15.9401 35.2839 15.8034 35.0521 15.707 34.7812C15.6107 34.5078 15.5625 34.1992 15.5625 33.8555V33.5977C15.5625 33.2539 15.6107 32.9466 15.707 32.6758C15.8034 32.4023 15.9388 32.1693 16.1133 31.9766C16.2904 31.7839 16.5 31.638 16.7422 31.5391C16.987 31.4375 17.2565 31.3867 17.5508 31.3867C17.8529 31.3867 18.125 31.4375 18.3672 31.5391C18.612 31.638 18.8216 31.7839 18.9961 31.9766C19.1732 32.1693 19.3086 32.4023 19.4023 32.6758C19.4961 32.9466 19.543 33.2539 19.543 33.5977ZM18.8281 33.8555V33.5898C18.8281 33.332 18.7995 33.1042 18.7422 32.9062C18.6849 32.7083 18.6016 32.5417 18.4922 32.4062C18.3828 32.2708 18.2487 32.168 18.0898 32.0977C17.931 32.0273 17.7513 31.9922 17.5508 31.9922C17.3581 31.9922 17.1836 32.0273 17.0273 32.0977C16.8711 32.168 16.737 32.2708 16.625 32.4062C16.5156 32.5417 16.431 32.7083 16.3711 32.9062C16.3112 33.1042 16.2812 33.332 16.2812 33.5898V33.8555C16.2812 34.1133 16.3112 34.3424 16.3711 34.543C16.431 34.7409 16.5169 34.9089 16.6289 35.0469C16.7409 35.1823 16.875 35.2852 17.0312 35.3555C17.1901 35.4258 17.3659 35.4609 17.5586 35.4609C17.7617 35.4609 17.9414 35.4258 18.0977 35.3555C18.2539 35.2852 18.3867 35.1823 18.4961 35.0469C18.6055 34.9089 18.6875 34.7409 18.7422 34.543C18.7995 34.3424 18.8281 34.1133 18.8281 33.8555ZM24.2695 31.4492V36H23.5469L21.1875 32.5781V36H20.4648V31.4492H21.1875L23.5469 34.8711V31.4492H24.2695ZM29.168 33.5977V33.8555C29.168 34.1992 29.1211 34.5078 29.0273 34.7812C28.9336 35.0521 28.7995 35.2839 28.625 35.4766C28.4505 35.6667 28.2409 35.8125 27.9961 35.9141C27.7539 36.013 27.4831 36.0625 27.1836 36.0625C26.8893 36.0625 26.6198 36.013 26.375 35.9141C26.1328 35.8125 25.9219 35.6667 25.7422 35.4766C25.5651 35.2839 25.4284 35.0521 25.332 34.7812C25.2357 34.5078 25.1875 34.1992 25.1875 33.8555V33.5977C25.1875 33.2539 25.2357 32.9466 25.332 32.6758C25.4284 32.4023 25.5638 32.1693 25.7383 31.9766C25.9154 31.7839 26.125 31.638 26.3672 31.5391C26.612 31.4375 26.8815 31.3867 27.1758 31.3867C27.4779 31.3867 27.75 31.4375 27.9922 31.5391C28.237 31.638 28.4466 31.7839 28.6211 31.9766C28.7982 32.1693 28.9336 32.4023 29.0273 32.6758C29.1211 32.9466 29.168 33.2539 29.168 33.5977ZM28.4531 33.8555V33.5898C28.4531 33.332 28.4245 33.1042 28.3672 32.9062C28.3099 32.7083 28.2266 32.5417 28.1172 32.4062C28.0078 32.2708 27.8737 32.168 27.7148 32.0977C27.556 32.0273 27.3763 31.9922 27.1758 31.9922C26.9831 31.9922 26.8086 32.0273 26.6523 32.0977C26.4961 32.168 26.362 32.2708 26.25 32.4062C26.1406 32.5417 26.056 32.7083 25.9961 32.9062C25.9362 33.1042 25.9062 33.332 25.9062 33.5898V33.8555C25.9062 34.1133 25.9362 34.3424 25.9961 34.543C26.056 34.7409 26.1419 34.9089 26.2539 35.0469C26.3659 35.1823 26.5 35.2852 26.6562 35.3555C26.8151 35.4258 26.9909 35.4609 27.1836 35.4609C27.3867 35.4609 27.5664 35.4258 27.7227 35.3555C27.8789 35.2852 28.0117 35.1823 28.1211 35.0469C28.2305 34.9089 28.3125 34.7409 28.3672 34.543C28.4245 34.3424 28.4531 34.1133 28.4531 33.8555ZM30.3438 31.4492H31.0234L32.5508 35.0078L34.0742 31.4492H34.7539L32.8125 36H32.2852L30.3438 31.4492ZM30.0898 31.4492H30.7031L30.8086 34.4297V36H30.0898V31.4492ZM34.3984 31.4492H35.0156V36H34.293V34.4297L34.3984 31.4492ZM39.9102 33.5977V33.8555C39.9102 34.1992 39.8633 34.5078 39.7695 34.7812C39.6758 35.0521 39.5417 35.2839 39.3672 35.4766C39.1927 35.6667 38.9831 35.8125 38.7383 35.9141C38.4961 36.013 38.2253 36.0625 37.9258 36.0625C37.6315 36.0625 37.362 36.013 37.1172 35.9141C36.875 35.8125 36.6641 35.6667 36.4844 35.4766C36.3073 35.2839 36.1706 35.0521 36.0742 34.7812C35.9779 34.5078 35.9297 34.1992 35.9297 33.8555V33.5977C35.9297 33.2539 35.9779 32.9466 36.0742 32.6758C36.1706 32.4023 36.306 32.1693 36.4805 31.9766C36.6576 31.7839 36.8672 31.638 37.1094 31.5391C37.3542 31.4375 37.6237 31.3867 37.918 31.3867C38.2201 31.3867 38.4922 31.4375 38.7344 31.5391C38.9792 31.638 39.1888 31.7839 39.3633 31.9766C39.5404 32.1693 39.6758 32.4023 39.7695 32.6758C39.8633 32.9466 39.9102 33.2539 39.9102 33.5977ZM39.1953 33.8555V33.5898C39.1953 33.332 39.1667 33.1042 39.1094 32.9062C39.0521 32.7083 38.9688 32.5417 38.8594 32.4062C38.75 32.2708 38.6159 32.168 38.457 32.0977C38.2982 32.0273 38.1185 31.9922 37.918 31.9922C37.7253 31.9922 37.5508 32.0273 37.3945 32.0977C37.2383 32.168 37.1042 32.2708 36.9922 32.4062C36.8828 32.5417 36.7982 32.7083 36.7383 32.9062C36.6784 33.1042 36.6484 33.332 36.6484 33.5898V33.8555C36.6484 34.1133 36.6784 34.3424 36.7383 34.543C36.7982 34.7409 36.8841 34.9089 36.9961 35.0469C37.1081 35.1823 37.2422 35.2852 37.3984 35.3555C37.5573 35.4258 37.7331 35.4609 37.9258 35.4609C38.1289 35.4609 38.3086 35.4258 38.4648 35.3555C38.6211 35.2852 38.7539 35.1823 38.8633 35.0469C38.9727 34.9089 39.0547 34.7409 39.1094 34.543C39.1667 34.3424 39.1953 34.1133 39.1953 33.8555ZM43.6055 31.4492H44.332V34.4961C44.332 34.8398 44.25 35.1289 44.0859 35.3633C43.9245 35.5951 43.707 35.7695 43.4336 35.8867C43.1628 36.0039 42.8633 36.0625 42.5352 36.0625C42.194 36.0625 41.888 36.0039 41.6172 35.8867C41.349 35.7695 41.1367 35.5951 40.9805 35.3633C40.8242 35.1289 40.7461 34.8398 40.7461 34.4961V31.4492H41.4609V34.4961C41.4609 34.7201 41.5052 34.9049 41.5938 35.0508C41.6849 35.194 41.8112 35.3008 41.9727 35.3711C42.1341 35.4388 42.3216 35.4727 42.5352 35.4727C42.7513 35.4727 42.9388 35.4388 43.0977 35.3711C43.2591 35.3008 43.3841 35.194 43.4727 35.0508C43.5612 34.9049 43.6055 34.7201 43.6055 34.4961V31.4492ZM47.918 34.8359C47.918 34.7396 47.901 34.6536 47.8672 34.5781C47.8359 34.5 47.7812 34.4297 47.7031 34.3672C47.625 34.3021 47.5169 34.2422 47.3789 34.1875C47.2409 34.1328 47.0664 34.0807 46.8555 34.0312C46.6029 33.9688 46.375 33.8971 46.1719 33.8164C45.9688 33.7331 45.7943 33.6367 45.6484 33.5273C45.5052 33.4154 45.3945 33.2865 45.3164 33.1406C45.2409 32.9948 45.2031 32.8268 45.2031 32.6367C45.2031 32.4544 45.2435 32.2878 45.3242 32.1367C45.4049 31.9831 45.5195 31.8503 45.668 31.7383C45.8164 31.6263 45.9948 31.5404 46.2031 31.4805C46.4115 31.418 46.6432 31.3867 46.8984 31.3867C47.263 31.3867 47.5742 31.4505 47.832 31.5781C48.0924 31.7031 48.2917 31.8711 48.4297 32.082C48.5677 32.2904 48.6367 32.5208 48.6367 32.7734H47.9102C47.9102 32.6198 47.8724 32.4831 47.7969 32.3633C47.724 32.2435 47.612 32.1497 47.4609 32.082C47.3125 32.0117 47.1224 31.9766 46.8906 31.9766C46.6745 31.9766 46.4948 32.0052 46.3516 32.0625C46.2083 32.1198 46.1016 32.1979 46.0312 32.2969C45.9609 32.3958 45.9258 32.5078 45.9258 32.6328C45.9258 32.7214 45.9466 32.8021 45.9883 32.875C46.0299 32.9479 46.0964 33.0143 46.1875 33.0742C46.2786 33.1341 46.3971 33.1914 46.543 33.2461C46.6888 33.3008 46.8659 33.3542 47.0742 33.4062C47.3268 33.4688 47.5508 33.543 47.7461 33.6289C47.9414 33.7148 48.1055 33.8151 48.2383 33.9297C48.3737 34.0443 48.4753 34.1758 48.543 34.3242C48.6133 34.4727 48.6484 34.6406 48.6484 34.8281C48.6484 35.0182 48.6068 35.1901 48.5234 35.3438C48.4427 35.4948 48.3255 35.6237 48.1719 35.7305C48.0208 35.8372 47.8385 35.9193 47.625 35.9766C47.4141 36.0339 47.1797 36.0625 46.9219 36.0625C46.6927 36.0625 46.4661 36.0339 46.2422 35.9766C46.0208 35.9167 45.819 35.8281 45.6367 35.7109C45.457 35.5911 45.3138 35.4427 45.207 35.2656C45.1003 35.0859 45.0469 34.8763 45.0469 34.6367H45.7734C45.7734 34.7878 45.8034 34.9167 45.8633 35.0234C45.9232 35.1302 46.0065 35.2174 46.1133 35.2852C46.2201 35.3503 46.3424 35.3984 46.4805 35.4297C46.6185 35.4609 46.7656 35.4766 46.9219 35.4766C47.138 35.4766 47.3203 35.4505 47.4688 35.3984C47.6172 35.3438 47.7292 35.2682 47.8047 35.1719C47.8802 35.0755 47.918 34.9635 47.918 34.8359Z" fill="black"/>
</svg>
