<svg width="51" height="36" viewBox="0 0 51 36" fill="none" xmlns="http://www.w3.org/2000/svg">
<path d="M15.0327 23.6244H34.6132C35.3609 23.6244 35.9674 23.1371 35.9674 22.5362V21.8892C35.9674 21.288 35.3609 20.801 34.6132 20.801H15.033C15.9288 21.5877 15.944 22.7903 15.0691 23.5918L15.0327 23.6244Z" fill="black"/>
<path d="M15.3352 21.1241H26.1953C26.9431 21.1241 27.5495 21.6114 27.5495 22.2126C27.5495 22.8135 26.9434 23.3008 26.1953 23.3008H15.3342C15.842 22.6332 15.8407 21.79 15.3352 21.1241Z" fill="url(#paint0_linear_233_11)"/>
<path d="M19.4674 18.8397C19.439 18.7984 19.4823 18.7504 19.548 18.7504H29.9085C30.7206 18.7504 31.379 19.2094 31.379 19.7758C31.379 20.342 30.7206 20.8013 29.9085 20.8013H19.5452C19.4792 20.8013 19.4356 20.753 19.4646 20.7115C19.8748 20.1188 19.8735 19.4297 19.4674 18.8397Z" fill="#AEA69A"/>
<path d="M19.5328 18.9412H24.6676C25.6207 18.9412 26.3934 19.3259 26.3934 19.8004C26.3934 20.2749 25.6207 20.6595 24.6676 20.6595H19.4991C19.8523 20.1129 19.862 19.4903 19.5328 18.9412Z" fill="url(#paint1_linear_233_11)"/>
<path d="M21.0407 18.6763H27.0687C27.6033 18.6763 28.0368 18.2779 28.0368 17.7863C28.0368 17.2946 27.6035 16.8962 27.0687 16.8962H21.0404C21.501 17.3898 21.5191 18.1135 21.0833 18.6259L21.0407 18.6763Z" fill="url(#paint2_linear_233_11)"/>
<path d="M28.0361 17.7862C28.0361 17.2946 27.5925 16.8962 27.0453 16.8962H20.9256C20.897 16.8962 20.8739 16.8752 20.8743 16.8496C20.8746 16.8242 20.8973 16.804 20.9256 16.804H30.6336C31.2376 16.804 31.7272 17.2437 31.7272 17.7865C31.7272 18.329 31.2376 18.769 30.6336 18.769H20.9256C20.8976 18.769 20.8746 18.7484 20.8743 18.7233C20.8739 18.6977 20.897 18.6767 20.9256 18.6767H27.0453C27.5925 18.6763 28.0361 18.2778 28.0361 17.7862Z" fill="black"/>
<path d="M17.4309 14.8948H32.8559C33.3348 14.8948 33.7233 15.1957 33.7233 15.5669V16.1321C33.7233 16.5033 33.3348 16.8043 32.8559 16.8043H17.4309L17.439 16.7977C18.099 16.2653 18.0956 15.4236 17.4309 14.8948Z" fill="#AEA69A"/>
<path d="M17.7037 15.1774H25.9497C26.4287 15.1774 26.8171 15.4784 26.8171 15.8495C26.8171 16.2207 26.4287 16.5217 25.9497 16.5217H17.704C18.0071 16.1053 18.0068 15.5932 17.7037 15.1774Z" fill="url(#paint3_linear_233_11)"/>
<path d="M18.435 15.9618C17.9217 15.7876 17.4769 15.4167 17.2171 14.941C17.1437 14.8097 17.0838 14.659 17.1035 14.5098C17.1086 14.4794 17.1162 14.4434 17.1435 14.4292C17.168 14.4151 17.201 14.4229 17.2286 14.4307C18.086 14.663 18.9924 15.0545 19.8922 15.0132C19.9334 15.0125 19.9745 15.0091 20.0105 15.0252C20.0547 15.0438 20.0827 15.0847 20.1026 15.1285C20.1706 15.2708 20.2296 15.5401 20.2073 15.7004C20.18 15.891 19.9965 15.9187 19.8352 15.9597C19.3757 16.077 18.8931 16.1174 18.435 15.9618Z" fill="#E2BBB2"/>
<path d="M18.3557 14.8932C18.2866 14.864 18.2148 14.8347 18.1407 14.8331C18.0665 14.8314 17.9848 14.8713 17.9611 14.9433C17.9454 14.9932 17.9599 15.0454 17.9798 15.092C18.0338 15.2124 18.1287 15.3102 18.2288 15.3969C18.6126 15.7219 19.1043 15.9184 19.6071 15.9494C19.8297 15.9625 20.0627 15.9424 20.2588 15.8374C20.1609 15.7176 20.1803 15.5464 20.1698 15.3949C20.1384 14.9515 19.762 15.1199 19.46 15.119C19.081 15.111 18.7038 15.0368 18.3557 14.8932Z" fill="#E2BBB2"/>
<path d="M29.8421 11.6136L29.8593 11.6629C29.9799 12.014 30.0733 12.3765 30.1118 12.7481C30.1826 13.4308 30.0491 14.2296 29.5378 14.7254C28.8559 15.3865 27.7621 15.4886 26.8729 15.3312C26.5089 15.2673 26.1663 15.1144 25.8751 14.886C25.5853 15.1496 25.274 15.4383 25.0149 15.7318C24.4944 15.549 23.999 15.3008 23.5404 14.9933C22.4553 15.4924 21.3485 15.8291 20.1799 16.0729C20.0463 15.7393 19.9526 15.3909 19.9007 15.0351C19.8916 14.9773 20.6199 14.4837 20.7039 14.4135C20.956 14.2001 21.4812 13.7124 21.4812 13.7124C21.4812 13.7124 20.8193 13.1463 20.5297 12.8805C20.2234 12.6043 19.9295 12.3144 19.649 12.0117C19.4174 11.7616 19.191 11.4976 19.049 11.1855C18.9071 10.8761 18.8549 10.5103 18.9735 10.1886C19.3482 9.18759 20.8608 9.53947 21.5633 9.88444C22.1442 10.1706 22.6529 10.5874 23.1425 11.01C23.3399 11.1779 23.5347 11.3514 23.7267 11.5222C23.8781 11.3654 24.0452 11.1617 24.1882 10.9968C24.3421 10.818 24.518 10.6499 24.7305 10.5447C24.9539 10.431 25.16 10.4472 25.3984 10.4132C25.5052 10.3978 25.6091 10.3659 25.7131 10.3477C26.0252 10.2906 26.3556 10.3517 26.6298 10.5129C26.8902 10.6661 27.1016 10.8476 27.4072 10.9063C27.7542 10.9728 28.1571 10.9335 28.5051 10.8868C28.8174 10.8435 29.1348 10.7725 29.446 10.8339C29.5754 10.8595 29.6248 11.0407 29.6675 11.1448C29.7247 11.2956 29.7848 11.4518 29.8421 11.6136ZM27.0852 0.0677266C27.0852 0.0677266 27.9252 -0.0664065 28.1508 1.42278C28.4015 3.07836 29.0708 2.80598 30.1337 4.15029C30.7548 4.93582 30.1011 6.32302 28.7727 6.29553C27.4443 6.26869 26.2446 5.88299 25.4804 6.04801C24.7163 6.21304 24.6743 4.24756 25.4282 3.64113C26.1823 3.03476 24.5747 1.29329 25.5543 0.517839C26.5338 -0.257616 27.0852 0.0677266 27.0852 0.0677266Z" fill="black"/>
<path d="M32.1065 6.63451C32.1831 6.4764 32.1784 6.29277 32.1508 6.12136C32.031 5.38574 31.5177 4.77102 30.9293 4.32055C30.339 3.86895 29.6632 3.54653 29.0421 3.1418C28.8809 3.03642 28.7193 2.92286 28.5343 2.8659C28.3492 2.80894 28.1341 2.81509 27.9813 2.93491C27.8734 3.01906 27.811 3.14908 27.7748 3.27916C27.6952 3.56388 27.7257 3.86543 27.7742 4.15427C27.8349 4.51862 27.9239 4.87921 28.0701 5.21404C28.1873 5.48421 28.378 5.76214 28.6648 5.8151C28.7477 6.13788 28.9185 6.44044 29.1581 6.67197C29.4321 6.93737 29.7795 7.11093 30.14 7.23212C30.4722 7.34407 30.8355 7.41713 31.1697 7.31269C31.368 7.25186 31.5427 7.13472 31.7135 7.01532C31.8659 6.91357 32.0241 6.80222 32.1065 6.63451ZM29.1042 6.14396L28.9081 5.83132C28.95 5.83568 28.9894 5.84379 29.0292 5.86007C29.1369 5.90689 29.2018 6.07717 29.1042 6.14396Z" fill="black"/>
<path d="M25.4703 1.37734C25.4601 1.43263 25.4583 1.4906 25.462 1.55669C25.4843 1.94281 25.5669 2.32301 25.707 2.68331C25.7925 2.89706 25.8973 3.10778 26.0455 3.28473C26.107 3.35821 26.1767 3.42608 26.2677 3.45226C26.3614 3.47839 26.4795 3.48208 26.5725 3.45865C26.6545 3.79926 26.6203 4.44213 26.3275 4.68374C26.238 4.7568 26.1316 4.80248 26.0251 4.84274C25.8177 4.92308 25.6017 4.98427 25.3856 5.03168C25.1393 5.08506 24.8709 5.12502 24.6979 5.30687C24.6763 5.32923 24.6548 5.35989 24.6635 5.39007C24.6693 5.40927 24.6832 5.42287 24.6998 5.43367C24.836 5.5446 25.0044 5.60543 25.1728 5.66352C25.468 5.76378 25.7713 5.8474 26.0796 5.90334C26.4017 5.96185 26.7343 5.98988 27.0605 5.95457C27.3126 5.92588 27.5615 5.86141 27.7904 5.74768C28.0302 5.62822 28.2757 5.53076 28.5239 5.41667C28.7338 5.31975 28.9408 5.20906 29.168 5.16975C29.0606 4.96459 28.8365 4.84948 28.6133 4.79497C28.3901 4.74326 28.1567 4.73855 27.9309 4.69513C27.8566 4.67968 27.7822 4.66155 27.7183 4.61563C27.5435 4.48871 27.5913 4.20679 27.5885 4.02208L27.5797 3.43777C27.6057 3.15889 27.7202 2.92557 27.8207 2.67037C27.974 2.2793 28.0057 1.83497 27.8706 1.43448C27.7356 1.03679 27.4284 0.691352 27.0337 0.551195C26.639 0.411097 26.1652 0.490003 25.8621 0.78141C25.67 0.969041 25.5134 1.13687 25.4703 1.37734Z" fill="#E2BBB2"/>
<path d="M26.6842 0.134859C26.2908 0.0907242 25.9323 0.2842 25.6665 0.584076C25.4429 0.835464 25.3115 1.16731 25.3181 1.5007C25.3191 1.54836 25.3244 1.60024 25.3511 1.64301C25.4222 1.74553 25.5767 1.70778 25.6923 1.66215C25.8806 1.58903 26.0208 1.48227 26.1916 1.39222C26.3623 1.30216 26.5696 1.31534 26.7224 1.19099C26.8667 1.07117 27.362 0.818646 27.3754 0.62344C27.3922 0.384875 26.957 0.190027 26.7751 0.150306C26.749 0.142195 26.7188 0.138497 26.6842 0.134859Z" fill="black"/>
<path d="M27.8175 0.674887C28.1501 0.890311 28.3063 1.26772 28.3236 1.66881C28.3387 2.00554 28.2318 2.34615 28.0169 2.60035C27.9862 2.63667 27.9494 2.67347 27.9017 2.68969C27.7822 2.72404 27.6861 2.59677 27.6253 2.48804C27.5253 2.31192 27.4838 2.14015 27.4081 1.96201C27.3325 1.78386 27.1635 1.66255 27.1233 1.46919C27.0869 1.28478 26.8619 0.774727 26.9743 0.614948C27.1114 0.419384 27.5713 0.544511 27.7373 0.629202C27.7626 0.639401 27.7884 0.655742 27.8175 0.674887Z" fill="black"/>
<path d="M24.8588 5.22172C24.8063 5.19769 24.7434 5.21522 24.7084 5.26263C24.3159 5.8145 24.1644 6.50603 24.0317 7.17253C23.8812 7.93021 23.7472 8.69046 23.6187 9.45058C23.611 9.48929 23.6062 9.53074 23.6232 9.56629C23.6402 9.60189 23.6789 9.62062 23.7149 9.6366C23.9416 9.74616 24.1711 9.85298 24.3979 9.96254C24.6426 9.40342 24.819 8.81659 24.9233 8.21488C25.0689 8.58483 25.3318 8.90612 25.6672 9.11606C25.4173 9.47551 25.1097 10.1943 24.8098 10.5104C24.7639 10.5607 24.4799 10.4824 24.4164 10.4613C24.3769 10.5749 24.5618 10.4535 24.5608 10.5693C24.7314 10.5943 24.9495 10.4917 25.1248 10.4697C25.3363 10.4449 25.5499 10.4435 25.7617 10.4656C26.1137 10.5043 26.4558 10.6149 26.7686 10.7811C26.924 10.8641 27.0732 10.9586 27.2148 11.0637C27.337 11.1556 27.6395 11.3716 27.6395 11.3716C27.6617 11.3877 27.7657 11.3641 27.7904 11.3582C27.8621 11.346 27.9343 11.3366 28.0068 11.3301C28.1888 11.3159 28.3698 11.292 28.5493 11.2584C28.9079 11.1923 29.2605 11.0904 29.5988 10.9501C29.6314 10.9249 29.5152 10.684 29.509 10.6372C29.5151 10.6812 30.1814 10.6269 30.2472 10.615C30.5099 10.5613 30.7758 10.5324 31.0385 10.4761C30.9208 9.41361 30.5978 8.38742 30.2804 7.36946C30.1563 6.96879 30.0295 6.56824 29.8535 6.19041C29.6663 5.78801 29.4245 5.4112 29.1339 5.07655C29.1256 5.06838 29.1117 5.06307 29.1008 5.066C28.9613 5.10124 28.1108 5.32096 27.6877 5.47907C27.472 5.56233 27.2535 5.63736 27.0323 5.71239C26.9449 5.74132 26.8547 5.77024 26.7641 5.76887C26.7037 5.76702 26.6431 5.7542 26.5852 5.74126C25.9957 5.60963 25.4061 5.46702 24.8588 5.22172Z" fill="#AEA69A"/>
<path d="M28.6767 9.90003C28.6888 9.97703 28.7037 10.054 28.7214 10.1309L28.7743 10.3617C28.7917 10.4276 28.8314 10.5097 28.8325 10.5786C28.8322 10.5649 28.3649 10.5251 28.321 10.5202C27.8343 10.4725 27.3452 10.4441 26.8588 10.4129C26.5428 10.393 26.2326 10.4005 25.9169 10.4025C25.8236 10.4039 25.7137 10.3946 25.6631 10.3182C25.6209 10.2526 25.6554 10.1694 25.6215 10.1093C25.5996 10.1151 25.3453 10.1796 25.348 10.1741C25.3378 10.2322 25.3177 10.3538 25.2578 10.3822C25.2368 10.3902 25.2145 10.3943 25.192 10.3943C25.1591 10.3948 25.1261 10.3897 25.0931 10.3847C25.088 10.3847 25.0831 10.3829 25.0792 10.3795C25.0737 10.374 25.0791 10.3656 25.0844 10.3573C25.1593 10.2462 25.1985 10.1148 25.1968 9.98066C25.2756 9.92705 25.3543 9.8652 25.4219 9.79804C25.476 9.74204 25.516 9.66975 25.5757 9.62198C25.638 9.56866 25.6989 9.60081 25.7678 9.61906C25.8477 9.63713 25.9277 9.65795 26.0049 9.68162C26.1566 9.72892 26.3085 9.78725 26.4362 9.88178C26.4806 9.91422 26.5223 9.94941 26.5747 9.96516C26.6244 9.9809 26.6792 9.98007 26.7314 9.97929C27.0525 9.97166 27.3735 9.95573 27.6914 9.92055C28.0176 9.88524 28.24 9.89013 28.6673 9.82572C28.6674 9.82846 28.6677 9.85327 28.6767 9.90003Z" fill="#E2BBB2"/>
<path d="M18.6664 6.75804L19.6087 10.9784L26.7643 10.8693C26.7605 10.6212 26.5571 10.4203 26.3073 10.4241L24.5973 10.4502L23.7452 6.56754C23.7186 6.4411 23.6046 6.35188 23.4784 6.35379L18.9277 6.42321C18.7548 6.42864 18.6282 6.5877 18.6664 6.75804Z" fill="black"/>
<path d="M28.014 17.07C27.9808 16.8775 27.8872 16.6805 27.7995 16.5081C27.4375 15.8023 26.7903 15.3049 26.0933 14.9626C26.0213 14.9279 25.9494 14.8931 25.8749 14.8667C25.8805 14.8749 25.8862 14.883 25.8918 14.894L25.8919 14.8968L25.8946 14.8967C25.8863 14.8913 25.8807 14.8859 25.8724 14.8805C25.5907 15.1357 25.2903 15.416 25.0337 15.6983C25.2032 15.8364 25.4493 15.9484 25.5715 16.0403C25.8602 16.2537 26.1382 16.4811 26.4377 16.6805C26.8399 16.9528 27.2684 17.1503 27.7474 17.2367C27.9318 17.2698 28.0285 17.3041 28.0263 17.1608C28.0232 17.1388 28.02 17.1085 28.014 17.07Z" fill="#E2BBB2"/>
<path d="M27.5469 16.5147C27.3604 16.1619 27.0708 15.8934 26.7542 15.6556C26.5321 15.4881 26.2964 15.3372 26.0717 15.1836C26.0079 15.1404 25.8826 15.0238 25.7747 14.9675C25.5499 15.1722 25.3198 15.388 25.1118 15.6117C25.799 16.0314 26.4113 16.5789 27.1653 16.8762C27.2343 16.9027 27.3061 16.9292 27.3803 16.9308C27.4544 16.9325 27.5335 16.9009 27.5765 16.8396C27.6437 16.7448 27.6006 16.6159 27.5469 16.5147Z" fill="#E2BBB2"/>
<path d="M9.03516 33.5273H9.76172C9.73047 33.8216 9.64062 34.0846 9.49219 34.3164C9.34635 34.5482 9.13932 34.7305 8.87109 34.8633C8.60547 34.9961 8.27604 35.0625 7.88281 35.0625C7.58854 35.0625 7.32292 35.013 7.08594 34.9141C6.84896 34.8125 6.64583 34.6693 6.47656 34.4844C6.30729 34.2969 6.17708 34.0716 6.08594 33.8086C5.99479 33.5456 5.94922 33.2513 5.94922 32.9258V32.5273C5.94922 32.2018 5.99479 31.9076 6.08594 31.6445C6.17708 31.3815 6.30859 31.1562 6.48047 30.9688C6.65234 30.7812 6.85938 30.638 7.10156 30.5391C7.34635 30.4375 7.61979 30.3867 7.92188 30.3867C8.30208 30.3867 8.6224 30.4531 8.88281 30.5859C9.14323 30.7161 9.34635 30.8984 9.49219 31.1328C9.64062 31.3672 9.73047 31.6367 9.76172 31.9414H9.03516C9.00911 31.7409 8.95573 31.569 8.875 31.4258C8.79427 31.2826 8.67708 31.1732 8.52344 31.0977C8.36979 31.0195 8.16927 30.9805 7.92188 30.9805C7.71615 30.9805 7.53516 31.0156 7.37891 31.0859C7.22266 31.1536 7.09115 31.2552 6.98438 31.3906C6.88021 31.5234 6.80078 31.6849 6.74609 31.875C6.69401 32.0651 6.66797 32.2812 6.66797 32.5234V32.9258C6.66797 33.1549 6.69141 33.3646 6.73828 33.5547C6.78776 33.7422 6.86198 33.9049 6.96094 34.043C7.0599 34.181 7.1862 34.2878 7.33984 34.3633C7.49349 34.4362 7.67448 34.4727 7.88281 34.4727C8.14323 34.4727 8.35156 34.4362 8.50781 34.3633C8.66406 34.2904 8.78255 34.1836 8.86328 34.043C8.94661 33.8997 9.00391 33.7279 9.03516 33.5273ZM14.4102 32.5977V32.8555C14.4102 33.1992 14.3633 33.5078 14.2695 33.7812C14.1758 34.0521 14.0417 34.2839 13.8672 34.4766C13.6927 34.6667 13.4831 34.8125 13.2383 34.9141C12.9961 35.013 12.7253 35.0625 12.4258 35.0625C12.1315 35.0625 11.862 35.013 11.6172 34.9141C11.375 34.8125 11.1641 34.6667 10.9844 34.4766C10.8073 34.2839 10.6706 34.0521 10.5742 33.7812C10.4779 33.5078 10.4297 33.1992 10.4297 32.8555V32.5977C10.4297 32.2539 10.4779 31.9466 10.5742 31.6758C10.6706 31.4023 10.806 31.1693 10.9805 30.9766C11.1576 30.7839 11.3672 30.638 11.6094 30.5391C11.8542 30.4375 12.1237 30.3867 12.418 30.3867C12.7201 30.3867 12.9922 30.4375 13.2344 30.5391C13.4792 30.638 13.6888 30.7839 13.8633 30.9766C14.0404 31.1693 14.1758 31.4023 14.2695 31.6758C14.3633 31.9466 14.4102 32.2539 14.4102 32.5977ZM13.6953 32.8555V32.5898C13.6953 32.332 13.6667 32.1042 13.6094 31.9062C13.5521 31.7083 13.4688 31.5417 13.3594 31.4062C13.25 31.2708 13.1159 31.168 12.957 31.0977C12.7982 31.0273 12.6185 30.9922 12.418 30.9922C12.2253 30.9922 12.0508 31.0273 11.8945 31.0977C11.7383 31.168 11.6042 31.2708 11.4922 31.4062C11.3828 31.5417 11.2982 31.7083 11.2383 31.9062C11.1784 32.1042 11.1484 32.332 11.1484 32.5898V32.8555C11.1484 33.1133 11.1784 33.3424 11.2383 33.543C11.2982 33.7409 11.3841 33.9089 11.4961 34.0469C11.6081 34.1823 11.7422 34.2852 11.8984 34.3555C12.0573 34.4258 12.2331 34.4609 12.4258 34.4609C12.6289 34.4609 12.8086 34.4258 12.9648 34.3555C13.1211 34.2852 13.2539 34.1823 13.3633 34.0469C13.4727 33.9089 13.5547 33.7409 13.6094 33.543C13.6667 33.3424 13.6953 33.1133 13.6953 32.8555ZM15.5859 30.4492H16.2656L17.793 34.0078L19.3164 30.4492H19.9961L18.0547 35H17.5273L15.5859 30.4492ZM15.332 30.4492H15.9453L16.0508 33.4297V35H15.332V30.4492ZM19.6406 30.4492H20.2578V35H19.5352V33.4297L19.6406 30.4492ZM21.5938 30.4492H22.2734L23.8008 34.0078L25.3242 30.4492H26.0039L24.0625 35H23.5352L21.5938 30.4492ZM21.3398 30.4492H21.9531L22.0586 33.4297V35H21.3398V30.4492ZM25.6484 30.4492H26.2656V35H25.543V33.4297L25.6484 30.4492ZM28.1211 30.4492V35H27.3984V30.4492H28.1211ZM31.1484 30.4492V35H30.4297V30.4492H31.1484ZM32.707 30.4492V31.0469H28.8789V30.4492H32.707ZM35.3047 30.4492V35H34.5859V30.4492H35.3047ZM36.8633 30.4492V31.0469H33.0352V30.4492H36.8633ZM40.7148 34.4062V35H38.1211V34.4062H40.7148ZM38.2969 30.4492V35H37.5742V30.4492H38.2969ZM40.375 32.3516V32.9414H38.1211V32.3516H40.375ZM40.6914 30.4492V31.0469H38.1211V30.4492H40.6914ZM42.832 35H41.8008L41.8047 34.4062H42.832C43.168 34.4062 43.4466 34.3438 43.668 34.2188C43.8919 34.0938 44.0586 33.9154 44.168 33.6836C44.2773 33.4492 44.332 33.1719 44.332 32.8516V32.5938C44.332 32.3464 44.3008 32.1263 44.2383 31.9336C44.1758 31.7409 44.0833 31.5794 43.9609 31.4492C43.8385 31.3164 43.6862 31.2161 43.5039 31.1484C43.3242 31.0807 43.1159 31.0469 42.8789 31.0469H41.7773V30.4492H42.8789C43.2018 30.4492 43.4961 30.5 43.7617 30.6016C44.0299 30.7005 44.2604 30.8451 44.4531 31.0352C44.6458 31.2227 44.7943 31.4492 44.8984 31.7148C45.0026 31.9779 45.0547 32.2734 45.0547 32.6016V32.8516C45.0547 33.2865 44.9622 33.6654 44.7773 33.9883C44.5951 34.3112 44.3372 34.5612 44.0039 34.7383C43.6732 34.9128 43.2826 35 42.832 35ZM42.1953 30.4492V35H41.4727V30.4492H42.1953Z" fill="black"/>
<defs>
<linearGradient id="paint0_linear_233_11" x1="21.1814" y1="24.5211" x2="21.1934" y2="18.7556" gradientUnits="userSpaceOnUse">
<stop stop-color="white"/>
<stop offset="1" stop-color="#EEEEEE"/>
</linearGradient>
<linearGradient id="paint1_linear_233_11" x1="22.7993" y1="21.6229" x2="22.8125" y2="17.0714" gradientUnits="userSpaceOnUse">
<stop stop-color="white"/>
<stop offset="1" stop-color="#EEEEEE"/>
</linearGradient>
<linearGradient id="paint2_linear_233_11" x1="24.3894" y1="19.6743" x2="24.4034" y2="14.9592" gradientUnits="userSpaceOnUse">
<stop stop-color="white"/>
<stop offset="1" stop-color="#EEEEEE"/>
</linearGradient>
<linearGradient id="paint3_linear_233_11" x1="22.0661" y1="17.2753" x2="22.0722" y2="13.7146" gradientUnits="userSpaceOnUse">
<stop stop-color="white"/>
<stop offset="1" stop-color="#EEEEEE"/>
</linearGradient>
</defs>
</svg>
