<svg width="51" height="36" viewBox="0 0 51 36" fill="none" xmlns="http://www.w3.org/2000/svg">
<path d="M18.2345 16.9282H17.7553C14.3185 16.9282 11.5323 14.1293 11.5323 10.6767C11.5323 7.22403 14.3185 4.42511 17.7553 4.42511H21.8725C25.6795 4.42511 28.7659 7.52553 28.7659 11.3501C28.7686 13.7551 27.529 15.9894 25.4915 17.252L18.2345 21.7377V16.9282Z" fill="#AEA69A"/>
<path d="M32.7655 12.5031H33.2446C36.6815 12.5031 39.4677 9.7042 39.4677 6.25159C39.4677 2.79892 36.6815 0 33.2446 0H29.1276C25.3204 0 22.2341 3.10042 22.2341 6.92501C22.2314 9.33002 23.471 11.5643 25.5085 12.8269L32.7655 17.3126V12.5031Z" fill="black"/>
<path d="M7.0625 32.5977V32.8555C7.0625 33.1992 7.01562 33.5078 6.92188 33.7812C6.82812 34.0521 6.69401 34.2839 6.51953 34.4766C6.34505 34.6667 6.13542 34.8125 5.89062 34.9141C5.64844 35.013 5.3776 35.0625 5.07812 35.0625C4.78385 35.0625 4.51432 35.013 4.26953 34.9141C4.02734 34.8125 3.81641 34.6667 3.63672 34.4766C3.45964 34.2839 3.32292 34.0521 3.22656 33.7812C3.13021 33.5078 3.08203 33.1992 3.08203 32.8555V32.5977C3.08203 32.2539 3.13021 31.9466 3.22656 31.6758C3.32292 31.4023 3.45833 31.1693 3.63281 30.9766C3.8099 30.7839 4.01953 30.638 4.26172 30.5391C4.50651 30.4375 4.77604 30.3867 5.07031 30.3867C5.3724 30.3867 5.64453 30.4375 5.88672 30.5391C6.13151 30.638 6.34115 30.7839 6.51562 30.9766C6.69271 31.1693 6.82812 31.4023 6.92188 31.6758C7.01562 31.9466 7.0625 32.2539 7.0625 32.5977ZM6.34766 32.8555V32.5898C6.34766 32.332 6.31901 32.1042 6.26172 31.9062C6.20443 31.7083 6.12109 31.5417 6.01172 31.4062C5.90234 31.2708 5.76823 31.168 5.60938 31.0977C5.45052 31.0273 5.27083 30.9922 5.07031 30.9922C4.8776 30.9922 4.70312 31.0273 4.54688 31.0977C4.39062 31.168 4.25651 31.2708 4.14453 31.4062C4.03516 31.5417 3.95052 31.7083 3.89062 31.9062C3.83073 32.1042 3.80078 32.332 3.80078 32.5898V32.8555C3.80078 33.1133 3.83073 33.3424 3.89062 33.543C3.95052 33.7409 4.03646 33.9089 4.14844 34.0469C4.26042 34.1823 4.39453 34.2852 4.55078 34.3555C4.70964 34.4258 4.88542 34.4609 5.07812 34.4609C5.28125 34.4609 5.46094 34.4258 5.61719 34.3555C5.77344 34.2852 5.90625 34.1823 6.01562 34.0469C6.125 33.9089 6.20703 33.7409 6.26172 33.543C6.31901 33.3424 6.34766 33.1133 6.34766 32.8555ZM9.80859 33.2891H8.51172V32.6914H9.80859C10.0482 32.6914 10.2422 32.6576 10.3906 32.5898C10.5391 32.5195 10.6484 32.4245 10.7188 32.3047C10.7891 32.1849 10.8242 32.0469 10.8242 31.8906C10.8242 31.7422 10.7891 31.6042 10.7188 31.4766C10.6484 31.349 10.5391 31.2461 10.3906 31.168C10.2422 31.0872 10.0482 31.0469 9.80859 31.0469H8.70703V35H7.98438V30.4492H9.80859C10.181 30.4492 10.4961 30.5117 10.7539 30.6367C11.0143 30.7591 11.2109 30.9284 11.3438 31.1445C11.4792 31.3581 11.5469 31.6042 11.5469 31.8828C11.5469 32.1016 11.5091 32.2982 11.4336 32.4727C11.3581 32.6445 11.2461 32.7917 11.0977 32.9141C10.9492 33.0365 10.7669 33.1302 10.5508 33.1953C10.3346 33.2578 10.0872 33.2891 9.80859 33.2891ZM15.4922 34.4062V35H12.8984V34.4062H15.4922ZM13.0742 30.4492V35H12.3516V30.4492H13.0742ZM15.1523 32.3516V32.9414H12.8984V32.3516H15.1523ZM15.4688 30.4492V31.0469H12.8984V30.4492H15.4688ZM20.0547 30.4492V35H19.332L16.9727 31.5781V35H16.25V30.4492H16.9727L19.332 33.8711V30.4492H20.0547ZM23.3789 30.4492H24.0586L25.5859 34.0078L27.1094 30.4492H27.7891L25.8477 35H25.3203L23.3789 30.4492ZM23.125 30.4492H23.7383L23.8438 33.4297V35H23.125V30.4492ZM27.4336 30.4492H28.0508V35H27.3281V33.4297L27.4336 30.4492ZM29.9062 30.4492V35H29.1836V30.4492H29.9062ZM34.8516 30.4492V35H34.1289L31.7695 31.5781V35H31.0469V30.4492H31.7695L34.1289 33.8711V30.4492H34.8516ZM37.2969 35H36.2656L36.2695 34.4062H37.2969C37.6328 34.4062 37.9115 34.3438 38.1328 34.2188C38.3568 34.0938 38.5234 33.9154 38.6328 33.6836C38.7422 33.4492 38.7969 33.1719 38.7969 32.8516V32.5938C38.7969 32.3464 38.7656 32.1263 38.7031 31.9336C38.6406 31.7409 38.5482 31.5794 38.4258 31.4492C38.3034 31.3164 38.151 31.2161 37.9688 31.1484C37.7891 31.0807 37.5807 31.0469 37.3438 31.0469H36.2422V30.4492H37.3438C37.6667 30.4492 37.9609 30.5 38.2266 30.6016C38.4948 30.7005 38.7253 30.8451 38.918 31.0352C39.1107 31.2227 39.2591 31.4492 39.3633 31.7148C39.4674 31.9779 39.5195 32.2734 39.5195 32.6016V32.8516C39.5195 33.2865 39.4271 33.6654 39.2422 33.9883C39.0599 34.3112 38.8021 34.5612 38.4688 34.7383C38.138 34.9128 37.7474 35 37.2969 35ZM36.6602 30.4492V35H35.9375V30.4492H36.6602ZM43.5781 34.4062V35H40.9844V34.4062H43.5781ZM41.1602 30.4492V35H40.4375V30.4492H41.1602ZM43.2383 32.3516V32.9414H40.9844V32.3516H43.2383ZM43.5547 30.4492V31.0469H40.9844V30.4492H43.5547ZM45.6953 35H44.6641L44.668 34.4062H45.6953C46.0312 34.4062 46.3099 34.3438 46.5312 34.2188C46.7552 34.0938 46.9219 33.9154 47.0312 33.6836C47.1406 33.4492 47.1953 33.1719 47.1953 32.8516V32.5938C47.1953 32.3464 47.1641 32.1263 47.1016 31.9336C47.0391 31.7409 46.9466 31.5794 46.8242 31.4492C46.7018 31.3164 46.5495 31.2161 46.3672 31.1484C46.1875 31.0807 45.9792 31.0469 45.7422 31.0469H44.6406V30.4492H45.7422C46.0651 30.4492 46.3594 30.5 46.625 30.6016C46.8932 30.7005 47.1237 30.8451 47.3164 31.0352C47.5091 31.2227 47.6576 31.4492 47.7617 31.7148C47.8659 31.9779 47.918 32.2734 47.918 32.6016V32.8516C47.918 33.2865 47.8255 33.6654 47.6406 33.9883C47.4583 34.3112 47.2005 34.5612 46.8672 34.7383C46.5365 34.9128 46.1458 35 45.6953 35ZM45.0586 30.4492V35H44.3359V30.4492H45.0586Z" fill="black"/>
</svg>
