<svg width="51" height="36" viewBox="0 0 51 36" fill="none" xmlns="http://www.w3.org/2000/svg">
<path fill-rule="evenodd" clip-rule="evenodd" d="M33.4136 3.87766H34.7325C36.1899 3.87766 37.3704 5.05943 37.3704 6.51553V18.4651C37.3704 19.9225 36.1899 21.1029 34.7325 21.1029H16.2674C14.81 21.1029 13.6295 19.9225 13.6295 18.4651V2.63787C13.6295 1.18044 14.81 0 16.2674 0H22.1643C22.3792 4.94383e-05 22.5907 0.0525864 22.7806 0.153041C22.9704 0.253495 23.1329 0.398824 23.2538 0.576382L25.1069 3.29995C25.2278 3.47792 25.3904 3.62361 25.5805 3.72431C25.7707 3.82501 25.9825 3.87766 26.1977 3.87766H28.1378" fill="#AEA69A"/>
<path fill-rule="evenodd" clip-rule="evenodd" d="M32.1133 2.93933H29.4378C28.6993 2.93933 28.1 3.53022 28.1 4.25823V10.8529L30.7755 9.53397L33.4511 10.8529V4.25823C33.4511 3.53022 32.8517 2.93933 32.1133 2.93933Z" fill="black"/>
<path d="M23.8796 6.48163H16.1169C15.9087 6.48163 15.74 6.65034 15.74 6.85846C15.74 7.06658 15.9087 7.2353 16.1169 7.2353H23.8796C24.0878 7.2353 24.2565 7.06658 24.2565 6.85846C24.2565 6.65034 24.0878 6.48163 23.8796 6.48163Z" fill="white"/>
<path d="M21.2795 8.06433H16.1545C15.9256 8.06433 15.74 8.24992 15.74 8.47885C15.74 8.70778 15.9256 8.89337 16.1545 8.89337H21.2795C21.5084 8.89337 21.694 8.70778 21.694 8.47885C21.694 8.24992 21.5084 8.06433 21.2795 8.06433Z" fill="white"/>
<path d="M21.2795 9.72241H16.1545C15.9256 9.72241 15.74 9.908 15.74 10.1369C15.74 10.3659 15.9256 10.5515 16.1545 10.5515H21.2795C21.5084 10.5515 21.694 10.3659 21.694 10.1369C21.694 9.908 21.5084 9.72241 21.2795 9.72241Z" fill="white"/>
<path d="M33.1221 19.6073C33.7546 19.6081 34.6647 19.4434 35.4102 18.7248C36.1557 18.0062 35.7366 17.5596 34.9966 17.4787C34.2565 17.3977 33.3689 17.7352 32.7943 18.458C32.2196 19.1807 32.6031 19.6067 33.1221 19.6073Z" fill="url(#paint0_linear_233_7)"/>
<path d="M11.0742 32.5977V32.8555C11.0742 33.1992 11.0273 33.5078 10.9336 33.7812C10.8398 34.0521 10.7057 34.2839 10.5312 34.4766C10.3568 34.6667 10.1471 34.8125 9.90234 34.9141C9.66016 35.013 9.38932 35.0625 9.08984 35.0625C8.79557 35.0625 8.52604 35.013 8.28125 34.9141C8.03906 34.8125 7.82812 34.6667 7.64844 34.4766C7.47135 34.2839 7.33464 34.0521 7.23828 33.7812C7.14193 33.5078 7.09375 33.1992 7.09375 32.8555V32.5977C7.09375 32.2539 7.14193 31.9466 7.23828 31.6758C7.33464 31.4023 7.47005 31.1693 7.64453 30.9766C7.82161 30.7839 8.03125 30.638 8.27344 30.5391C8.51823 30.4375 8.78776 30.3867 9.08203 30.3867C9.38411 30.3867 9.65625 30.4375 9.89844 30.5391C10.1432 30.638 10.3529 30.7839 10.5273 30.9766C10.7044 31.1693 10.8398 31.4023 10.9336 31.6758C11.0273 31.9466 11.0742 32.2539 11.0742 32.5977ZM10.3594 32.8555V32.5898C10.3594 32.332 10.3307 32.1042 10.2734 31.9062C10.2161 31.7083 10.1328 31.5417 10.0234 31.4062C9.91406 31.2708 9.77995 31.168 9.62109 31.0977C9.46224 31.0273 9.28255 30.9922 9.08203 30.9922C8.88932 30.9922 8.71484 31.0273 8.55859 31.0977C8.40234 31.168 8.26823 31.2708 8.15625 31.4062C8.04688 31.5417 7.96224 31.7083 7.90234 31.9062C7.84245 32.1042 7.8125 32.332 7.8125 32.5898V32.8555C7.8125 33.1133 7.84245 33.3424 7.90234 33.543C7.96224 33.7409 8.04818 33.9089 8.16016 34.0469C8.27214 34.1823 8.40625 34.2852 8.5625 34.3555C8.72135 34.4258 8.89714 34.4609 9.08984 34.4609C9.29297 34.4609 9.47266 34.4258 9.62891 34.3555C9.78516 34.2852 9.91797 34.1823 10.0273 34.0469C10.1367 33.9089 10.2188 33.7409 10.2734 33.543C10.3307 33.3424 10.3594 33.1133 10.3594 32.8555ZM11.9922 30.4492H13.6562C13.9323 30.4492 14.1784 30.4805 14.3945 30.543C14.6107 30.6029 14.793 30.6914 14.9414 30.8086C15.0898 30.9258 15.2018 31.0703 15.2773 31.2422C15.3555 31.4141 15.3945 31.612 15.3945 31.8359C15.3945 32.0599 15.349 32.2591 15.2578 32.4336C15.1693 32.6055 15.0404 32.7513 14.8711 32.8711C14.7044 32.9883 14.5052 33.0781 14.2734 33.1406L14.0586 33.2461H12.5195L12.5117 32.6523H13.6758C13.8971 32.6523 14.0807 32.6185 14.2266 32.5508C14.3724 32.4805 14.4818 32.3867 14.5547 32.2695C14.6302 32.1497 14.668 32.0156 14.668 31.8672C14.668 31.7031 14.6328 31.5599 14.5625 31.4375C14.4922 31.3151 14.3815 31.2201 14.2305 31.1523C14.082 31.082 13.8906 31.0469 13.6562 31.0469H12.7188V35H11.9922V30.4492ZM14.8242 35L13.6523 32.9727L14.4141 32.9688L15.6016 34.9609V35H14.8242ZM19.9531 32.6875V34.4141C19.888 34.4974 19.7865 34.5898 19.6484 34.6914C19.513 34.793 19.3268 34.8802 19.0898 34.9531C18.8555 35.026 18.556 35.0625 18.1914 35.0625C17.8893 35.0625 17.612 35.0143 17.3594 34.918C17.1094 34.819 16.8919 34.6771 16.707 34.4922C16.5247 34.3047 16.3828 34.0768 16.2812 33.8086C16.1823 33.5378 16.1328 33.2305 16.1328 32.8867V32.5586C16.1328 32.2174 16.1771 31.9128 16.2656 31.6445C16.3542 31.3763 16.4831 31.1484 16.6523 30.9609C16.8242 30.7734 17.0326 30.6315 17.2773 30.5352C17.5247 30.4362 17.8047 30.3867 18.1172 30.3867C18.5026 30.3867 18.8229 30.4492 19.0781 30.5742C19.3359 30.6966 19.5352 30.8659 19.6758 31.082C19.819 31.2982 19.9102 31.5456 19.9492 31.8242H19.2344C19.2057 31.6654 19.1497 31.5221 19.0664 31.3945C18.9831 31.2669 18.8646 31.1667 18.7109 31.0938C18.5599 31.0182 18.3646 30.9805 18.125 30.9805C17.9115 30.9805 17.7253 31.0156 17.5664 31.0859C17.4076 31.1562 17.2747 31.2591 17.168 31.3945C17.0638 31.5299 16.9857 31.6953 16.9336 31.8906C16.8841 32.0833 16.8594 32.3034 16.8594 32.5508V32.8867C16.8594 33.1393 16.8906 33.3646 16.9531 33.5625C17.0156 33.7578 17.1055 33.9232 17.2227 34.0586C17.3424 34.194 17.4844 34.2969 17.6484 34.3672C17.8151 34.4375 18.0013 34.4727 18.207 34.4727C18.5299 34.4727 18.7656 34.4388 18.9141 34.3711C19.0625 34.3008 19.168 34.237 19.2305 34.1797V33.25H18.1328V32.6875H19.9531ZM22.7812 31.0859L21.2305 35H20.4922L22.3633 30.4492H22.8359L22.7812 31.0859ZM24.1211 35L22.582 31.0703L22.5312 30.4492H23.0078L24.8555 35H24.1211ZM24.0156 33.3164V33.9102H21.3125V33.3164H24.0156ZM29.2852 30.4492V35H28.5625L26.2031 31.5781V35H25.4805V30.4492H26.2031L28.5625 33.8711V30.4492H29.2852ZM31.1445 30.4492V35H30.4219V30.4492H31.1445ZM35.6211 34.4062V35H32.2695V34.4062H35.6211ZM35.5234 30.918L32.4922 35H32.0234V34.5156L35.0625 30.4492H35.5234V30.918ZM35.2383 30.4492V31.043H32.0586V30.4492H35.2383ZM39.5664 34.4062V35H36.9727V34.4062H39.5664ZM37.1484 30.4492V35H36.4258V30.4492H37.1484ZM39.2266 32.3516V32.9414H36.9727V32.3516H39.2266ZM39.543 30.4492V31.0469H36.9727V30.4492H39.543ZM41.6836 35H40.6523L40.6562 34.4062H41.6836C42.0195 34.4062 42.2982 34.3438 42.5195 34.2188C42.7435 34.0938 42.9102 33.9154 43.0195 33.6836C43.1289 33.4492 43.1836 33.1719 43.1836 32.8516V32.5938C43.1836 32.3464 43.1523 32.1263 43.0898 31.9336C43.0273 31.7409 42.9349 31.5794 42.8125 31.4492C42.6901 31.3164 42.5378 31.2161 42.3555 31.1484C42.1758 31.0807 41.9674 31.0469 41.7305 31.0469H40.6289V30.4492H41.7305C42.0534 30.4492 42.3477 30.5 42.6133 30.6016C42.8815 30.7005 43.112 30.8451 43.3047 31.0352C43.4974 31.2227 43.6458 31.4492 43.75 31.7148C43.8542 31.9779 43.9062 32.2734 43.9062 32.6016V32.8516C43.9062 33.2865 43.8138 33.6654 43.6289 33.9883C43.4466 34.3112 43.1888 34.5612 42.8555 34.7383C42.5247 34.9128 42.1341 35 41.6836 35ZM41.0469 30.4492V35H40.3242V30.4492H41.0469Z" fill="black"/>
<defs>
<linearGradient id="paint0_linear_233_7" x1="36.4649" y1="19.8438" x2="30.7114" y2="16.5952" gradientUnits="userSpaceOnUse">
<stop stop-color="white"/>
<stop offset="1" stop-color="#EEEEEE"/>
</linearGradient>
</defs>
</svg>
