<svg width="51" height="36" viewBox="0 0 51 36" fill="none" xmlns="http://www.w3.org/2000/svg">
<path d="M39.3236 13.9245H36.6526C35.9981 13.9245 35.4498 13.4777 35.4498 12.9118C35.4498 12.6289 35.5913 12.3757 35.8035 12.197C36.0158 12.0182 36.3165 11.8991 36.6526 11.8991H37.0417C37.3778 11.8991 37.6785 11.78 37.8908 11.6013C38.103 11.4225 38.2445 11.1694 38.2445 10.8864C38.2445 10.3354 37.7139 9.87373 37.0417 9.87373H28.8838C28.6706 9.87373 28.5336 9.61096 28.5336 9.39718C28.5336 8.86104 28.0206 8.42915 27.3839 8.42915H24.348C24.2712 8.42915 24.1975 8.39855 24.1433 8.3441C24.089 8.28964 24.0585 8.21577 24.0585 8.13875C24.0585 8.06174 24.089 7.98788 24.1433 7.93342C24.1975 7.87896 24.2712 7.84836 24.348 7.84836H35.9804C36.4934 7.84836 36.971 7.66965 37.3071 7.38669C37.6431 7.10373 37.8554 6.70161 37.8554 6.26976C37.8554 5.3911 37.0064 4.69116 35.9804 4.69116H29.9724C29.0297 4.69116 28.0966 3.96139 27.1539 3.96139H23.7996C23.3076 3.96139 22.9087 3.56134 22.9087 3.06787C22.9087 2.57435 23.3076 2.1743 23.7996 2.1743H31.3107C31.6645 2.1743 32.0006 2.05518 32.2305 1.86156C32.4604 1.66798 32.602 1.39989 32.602 1.08715C32.602 0.491452 32.0182 0 31.3107 0H13.9937C13.64 0 13.3039 0.119156 13.074 0.312738C12.844 0.506362 12.7025 0.774411 12.7025 1.08715C12.7025 1.68285 13.2862 2.1743 13.9937 2.1743H14.436C15.0197 2.1743 15.5149 2.57642 15.5149 3.08274C15.5149 3.33592 15.3911 3.55932 15.1966 3.72312C15.002 3.88697 14.7367 3.99121 14.436 3.99121H12.2957C11.9242 3.99121 11.5704 4.12524 11.3228 4.33373C11.0752 4.54222 10.9159 4.82518 10.9159 5.15283C10.9159 5.79318 11.5351 6.29954 12.278 6.29954H14.4537C15.1612 6.29954 15.7449 6.79099 15.7449 7.38669C15.7449 7.68456 15.6034 7.95261 15.3735 8.14619C15.1435 8.33981 14.8251 8.45893 14.4713 8.45893H12.5256C12.2072 8.45893 11.9242 8.56322 11.712 8.74189C11.4997 8.9206 11.3759 9.15891 11.3759 9.42696C11.3759 9.9631 11.8888 10.395 12.5256 10.395H14.0999C15.002 10.395 15.7272 11.0056 15.7272 11.7651C15.7272 12.1374 15.5503 12.4948 15.2496 12.7331C14.9489 12.9863 14.5421 13.1352 14.0999 13.1352H11.9065C11.4643 13.1352 11.0575 13.2841 10.7745 13.5373C10.4738 13.7756 10.2969 14.1181 10.2969 14.4904C10.2969 15.235 11.0221 15.8456 11.9065 15.8456H18.6792C19.4272 15.8456 20.162 16.2626 20.9099 16.2626H22.1434C22.6149 16.2626 22.9971 16.646 22.9971 17.1189C22.9971 17.5919 22.6149 17.9753 22.1434 17.9753H19.1411C18.7519 17.9753 18.4158 18.1093 18.1682 18.3178C17.9206 18.5263 17.7614 18.8241 17.7614 19.1369C17.7614 19.7772 18.3805 20.2985 19.1411 20.2985H37.537C37.9261 20.2985 38.2622 20.1644 38.5099 19.9559C38.7575 19.7475 38.9167 19.4496 38.9167 19.1369C38.9167 18.4965 38.2976 17.9753 37.537 17.9753H36.9887C36.4227 17.9753 35.9804 17.5881 35.9804 17.1264C35.9804 16.8881 36.0866 16.6796 36.2811 16.5307C36.458 16.3818 36.7233 16.2775 37.0064 16.2775H39.3236C39.7127 16.2775 40.0488 16.1435 40.2964 15.935C40.544 15.7265 40.7032 15.4286 40.7032 15.1159C40.7032 14.4457 40.0842 13.9245 39.3236 13.9245Z" fill="url(#paint0_linear_233_10)"/>
<path d="M25.4179 19.6722C23.3116 19.6722 21.6041 17.9595 21.6041 15.8468C21.6041 13.7342 23.3116 12.0215 25.4179 12.0215C27.5242 12.0215 29.2317 13.7342 29.2317 15.8468C29.2317 17.9595 27.5242 19.6722 25.4179 19.6722Z" fill="#AEA69A"/>
<path fill-rule="evenodd" clip-rule="evenodd" d="M26.7328 17.1852V17.3734C26.7327 17.4233 26.7129 17.4712 26.6777 17.5065C26.6424 17.5418 26.5947 17.5616 26.5449 17.5616H24.2904C24.2406 17.5616 24.1929 17.5418 24.1576 17.5065C24.1224 17.4712 24.1026 17.4233 24.1025 17.3734V17.1822C24.1025 16.6126 24.7522 16.2425 25.4177 16.2425C26.0831 16.2425 26.7328 16.6128 26.7328 17.1822M25.8826 14.589C26.1394 14.8465 26.1394 15.2641 25.8826 15.5217C25.6258 15.7793 25.2095 15.7793 24.9527 15.5217C24.6959 15.2641 24.6959 14.8465 24.9527 14.589C25.2095 14.3314 25.6258 14.3314 25.8826 14.589Z" fill="white"/>
<path d="M32.6366 15.5053C31.0819 15.5053 29.8216 14.2412 29.8216 12.6818C29.8216 11.1225 31.0819 9.8584 32.6366 9.8584C34.1912 9.8584 35.4515 11.1225 35.4515 12.6818C35.4515 14.2412 34.1912 15.5053 32.6366 15.5053Z" fill="#AEA69A"/>
<path fill-rule="evenodd" clip-rule="evenodd" d="M33.6076 13.6697V13.8086C33.6076 13.8455 33.593 13.8808 33.567 13.9069C33.541 13.9329 33.5057 13.9476 33.4689 13.9475H31.8049C31.7682 13.9476 31.7329 13.9329 31.7069 13.9069C31.6809 13.8808 31.6663 13.8455 31.6663 13.8086V13.6675C31.6663 13.2471 32.1458 12.974 32.6369 12.974C33.1281 12.974 33.6076 13.2472 33.6076 13.6675M32.9801 11.7535C33.1697 11.9436 33.1697 12.2518 32.9801 12.4419C32.7906 12.632 32.4833 12.632 32.2938 12.4419C32.1042 12.2518 32.1042 11.9436 32.2938 11.7535C32.4833 11.5634 32.7906 11.5634 32.9801 11.7535Z" fill="white"/>
<path d="M23.7152 5.48662C22.2483 5.48662 21.0591 4.29389 21.0591 2.82257C21.0591 1.35125 22.2483 0.158508 23.7152 0.158508C25.1821 0.158508 26.3712 1.35125 26.3712 2.82257C26.3712 4.29389 25.1821 5.48662 23.7152 5.48662Z" fill="#AEA69A"/>
<path fill-rule="evenodd" clip-rule="evenodd" d="M24.6311 3.75464V3.88573C24.631 3.92052 24.6172 3.95387 24.5927 3.97845C24.5682 4.00303 24.5349 4.01683 24.5002 4.01682H22.9301C22.8955 4.01682 22.8622 4.00302 22.8377 3.97843C22.8131 3.95385 22.7993 3.92051 22.7993 3.88573V3.75257C22.7993 3.35591 23.2517 3.09818 23.7152 3.09818C24.1786 3.09818 24.6311 3.35603 24.6311 3.75257M24.039 1.9466C24.2178 2.12598 24.2178 2.41678 24.039 2.59616C23.8601 2.77553 23.5702 2.77553 23.3913 2.59616C23.2125 2.41678 23.2125 2.12598 23.3913 1.9466C23.5702 1.76723 23.8601 1.76723 24.039 1.9466Z" fill="white"/>
<path d="M34.3139 5.88649V4.08313L33.6667 3.02997L29.3804 2.85687L27.64 3.41949L27.5249 5.61237L27.64 7.54559L28.4598 8.06497L28.7331 9.46436L30.8188 8.22365L32.9188 8.06497L34.3139 7.31476V5.88649Z" fill="#AEA69A"/>
<path fill-rule="evenodd" clip-rule="evenodd" d="M29.0213 7.75437V8.94825L30.9689 7.79394L31.1725 7.7906C31.9819 7.7773 32.7104 7.69552 33.2551 7.61242C33.5988 7.55997 33.8377 7.3193 33.8896 7.01718C33.9616 6.59808 34.0229 6.06711 34.0229 5.47711C34.0229 4.88711 33.9616 4.35613 33.8896 3.93704C33.8377 3.63488 33.5988 3.39425 33.2551 3.3418C32.6594 3.25085 31.8446 3.16172 30.945 3.16172C30.0453 3.16172 29.2306 3.25085 28.6349 3.3418C28.2912 3.39425 28.0523 3.63488 28.0004 3.93704C27.9284 4.35613 27.8671 4.88711 27.8671 5.47711C27.8671 6.06711 27.9284 6.59808 28.0004 7.01718C28.0454 7.27957 28.2282 7.48983 28.4947 7.57872L29.0213 7.75437ZM27.2421 3.80603C27.3537 3.1559 27.8689 2.67799 28.5192 2.57879C29.1422 2.48371 29.9969 2.38995 30.945 2.38995C31.8932 2.38995 32.7478 2.48371 33.3708 2.57879C34.0211 2.67799 34.5362 3.1559 34.6479 3.80603C34.7257 4.25911 34.7923 4.8347 34.7923 5.47711C34.7923 6.11952 34.7257 6.6951 34.6479 7.14819C34.5362 7.79828 34.0211 8.27618 33.3708 8.37543C32.8009 8.46241 32.037 8.54828 31.1851 8.56224L28.8323 9.95672C28.5759 10.1087 28.2519 9.92331 28.2519 9.62449V8.31108C27.7311 8.13741 27.3379 7.70626 27.2421 7.14819C27.1643 6.6951 27.0977 6.11952 27.0977 5.47711C27.0977 4.8347 27.1643 4.25911 27.2421 3.80603Z" fill="#AEA69A"/>
<path fill-rule="evenodd" clip-rule="evenodd" d="M29.0213 4.32806C28.9193 4.32806 28.8214 4.36872 28.7493 4.44109C28.6771 4.51345 28.6366 4.6116 28.6366 4.71395C28.6366 4.81629 28.6771 4.91444 28.7493 4.98681C28.8214 5.05918 28.9193 5.09983 29.0213 5.09983H32.8687C33.0811 5.09983 33.2534 4.92707 33.2534 4.71395C33.2534 4.50083 33.0811 4.32806 32.8687 4.32806H29.0213ZM29.0213 5.8716C28.8088 5.8716 28.6366 6.04441 28.6366 6.25753C28.6366 6.35987 28.6771 6.45802 28.7493 6.53039C28.8214 6.60275 28.9193 6.64341 29.0213 6.64341H30.5603C30.6623 6.64341 30.7602 6.60275 30.8323 6.53039C30.9045 6.45802 30.945 6.35987 30.945 6.25753C30.945 6.04441 30.7727 5.8716 30.5603 5.8716H29.0213Z" fill="white"/>
<path d="M15.3629 9.11975V7.31638L16.0102 6.26323L20.2965 6.09009L22.0369 6.65274L22.152 8.84563L22.0369 10.7788L21.217 11.2982L20.9438 12.6976L18.8581 11.4569L16.7581 11.2982L15.3629 10.548V9.11975Z" fill="#AEA69A"/>
<path fill-rule="evenodd" clip-rule="evenodd" d="M20.6553 10.9876V12.1815L18.7077 11.0272L18.5041 11.0239C17.6947 11.0106 16.9662 10.9288 16.4215 10.8457C16.0778 10.7932 15.8389 10.5526 15.787 10.2505C15.715 9.83136 15.6538 9.30038 15.6538 8.71038C15.6538 8.12039 15.715 7.58941 15.787 7.17032C15.8389 6.86815 16.0778 6.62753 16.4215 6.57507C17.0173 6.48413 17.832 6.395 18.7316 6.395C19.6313 6.395 20.446 6.48413 21.0417 6.57507C21.3854 6.62753 21.6243 6.86815 21.6762 7.17032C21.7482 7.58941 21.8095 8.12039 21.8095 8.71038C21.8095 9.30038 21.7482 9.83136 21.6762 10.2505C21.6312 10.5128 21.4484 10.7232 21.1819 10.812L20.6553 10.9876ZM22.4345 7.03931C22.3229 6.38917 21.8077 5.91131 21.1574 5.81206C20.5345 5.71699 19.6798 5.62323 18.7316 5.62323C17.7835 5.62323 16.9288 5.71699 16.3058 5.81206C15.6556 5.91131 15.1404 6.38917 15.0287 7.03931C14.9509 7.49239 14.8843 8.06797 14.8843 8.71038C14.8843 9.35279 14.9509 9.92838 15.0287 10.3815C15.1404 11.0316 15.6556 11.5095 16.3058 11.6087C16.8758 11.6957 17.6396 11.7816 18.4915 11.7956L20.8443 13.19C21.1008 13.342 21.4248 13.1566 21.4248 12.8578V11.5444C21.9455 11.3707 22.3387 10.9395 22.4345 10.3815C22.5123 9.92838 22.5789 9.35279 22.5789 8.71038C22.5789 8.06797 22.5123 7.49239 22.4345 7.03931Z" fill="#AEA69A"/>
<path fill-rule="evenodd" clip-rule="evenodd" d="M20.6554 7.56128C20.7574 7.56128 20.8553 7.60193 20.9274 7.6743C20.9996 7.74667 21.0401 7.84482 21.0401 7.94716C21.0401 8.04951 20.9996 8.14766 20.9274 8.22002C20.8553 8.29239 20.7574 8.33305 20.6554 8.33305H16.8081C16.706 8.33305 16.6082 8.29239 16.536 8.22002C16.4639 8.14766 16.4233 8.04951 16.4233 7.94716C16.4233 7.84482 16.4639 7.74667 16.536 7.6743C16.6082 7.60193 16.706 7.56128 16.8081 7.56128H20.6554ZM20.6554 9.10482C20.8679 9.10482 21.0401 9.27762 21.0401 9.49074C21.0401 9.54142 21.0302 9.59159 21.0108 9.63841C20.9915 9.68523 20.9632 9.72777 20.9274 9.7636C20.8917 9.79944 20.8493 9.82786 20.8026 9.84725C20.756 9.86664 20.7059 9.87662 20.6554 9.87662H19.1165C19.0659 9.87662 19.0159 9.86664 18.9692 9.84725C18.9226 9.82786 18.8801 9.79944 18.8444 9.7636C18.8087 9.72777 18.7804 9.68523 18.761 9.63841C18.7417 9.59159 18.7317 9.54142 18.7317 9.49074C18.7317 9.27762 18.904 9.10482 19.1165 9.10482H20.6554Z" fill="white"/>
<path d="M3.82812 30.4492V35H3.10938V30.4492H3.82812ZM5.38672 30.4492V31.0469H1.55859V30.4492H5.38672ZM9.23828 34.4062V35H6.64453V34.4062H9.23828ZM6.82031 30.4492V35H6.09766V30.4492H6.82031ZM8.89844 32.3516V32.9414H6.64453V32.3516H8.89844ZM9.21484 30.4492V31.0469H6.64453V30.4492H9.21484ZM11.8203 31.0859L10.2695 35H9.53125L11.4023 30.4492H11.875L11.8203 31.0859ZM13.1602 35L11.6211 31.0703L11.5703 30.4492H12.0469L13.8945 35H13.1602ZM13.0547 33.3164V33.9102H10.3516V33.3164H13.0547ZM14.7734 30.4492H15.4531L16.9805 34.0078L18.5039 30.4492H19.1836L17.2422 35H16.7148L14.7734 30.4492ZM14.5195 30.4492H15.1328L15.2383 33.4297V35H14.5195V30.4492ZM18.8281 30.4492H19.4453V35H18.7227V33.4297L18.8281 30.4492ZM23.7539 33.9141L24.7227 30.4492H25.2266L25.0469 31.4141L24 35H23.5078L23.7539 33.9141ZM22.8789 30.4492L23.6562 33.8477L23.8203 35H23.3242L22.1602 30.4492H22.8789ZM26.4219 33.8398L27.1914 30.4492H27.9102L26.7461 35H26.25L26.4219 33.8398ZM25.3672 30.4492L26.3203 33.9258L26.5625 35H26.0703L25.0547 31.4141L24.8711 30.4492H25.3672ZM32.4102 32.5977V32.8555C32.4102 33.1992 32.3633 33.5078 32.2695 33.7812C32.1758 34.0521 32.0417 34.2839 31.8672 34.4766C31.6927 34.6667 31.4831 34.8125 31.2383 34.9141C30.9961 35.013 30.7253 35.0625 30.4258 35.0625C30.1315 35.0625 29.862 35.013 29.6172 34.9141C29.375 34.8125 29.1641 34.6667 28.9844 34.4766C28.8073 34.2839 28.6706 34.0521 28.5742 33.7812C28.4779 33.5078 28.4297 33.1992 28.4297 32.8555V32.5977C28.4297 32.2539 28.4779 31.9466 28.5742 31.6758C28.6706 31.4023 28.806 31.1693 28.9805 30.9766C29.1576 30.7839 29.3672 30.638 29.6094 30.5391C29.8542 30.4375 30.1237 30.3867 30.418 30.3867C30.7201 30.3867 30.9922 30.4375 31.2344 30.5391C31.4792 30.638 31.6888 30.7839 31.8633 30.9766C32.0404 31.1693 32.1758 31.4023 32.2695 31.6758C32.3633 31.9466 32.4102 32.2539 32.4102 32.5977ZM31.6953 32.8555V32.5898C31.6953 32.332 31.6667 32.1042 31.6094 31.9062C31.5521 31.7083 31.4688 31.5417 31.3594 31.4062C31.25 31.2708 31.1159 31.168 30.957 31.0977C30.7982 31.0273 30.6185 30.9922 30.418 30.9922C30.2253 30.9922 30.0508 31.0273 29.8945 31.0977C29.7383 31.168 29.6042 31.2708 29.4922 31.4062C29.3828 31.5417 29.2982 31.7083 29.2383 31.9062C29.1784 32.1042 29.1484 32.332 29.1484 32.5898V32.8555C29.1484 33.1133 29.1784 33.3424 29.2383 33.543C29.2982 33.7409 29.3841 33.9089 29.4961 34.0469C29.6081 34.1823 29.7422 34.2852 29.8984 34.3555C30.0573 34.4258 30.2331 34.4609 30.4258 34.4609C30.6289 34.4609 30.8086 34.4258 30.9648 34.3555C31.1211 34.2852 31.2539 34.1823 31.3633 34.0469C31.4727 33.9089 31.5547 33.7409 31.6094 33.543C31.6667 33.3424 31.6953 33.1133 31.6953 32.8555ZM33.3281 30.4492H34.9922C35.2682 30.4492 35.5143 30.4805 35.7305 30.543C35.9466 30.6029 36.1289 30.6914 36.2773 30.8086C36.4258 30.9258 36.5378 31.0703 36.6133 31.2422C36.6914 31.4141 36.7305 31.612 36.7305 31.8359C36.7305 32.0599 36.6849 32.2591 36.5938 32.4336C36.5052 32.6055 36.3763 32.7513 36.207 32.8711C36.0404 32.9883 35.8411 33.0781 35.6094 33.1406L35.3945 33.2461H33.8555L33.8477 32.6523H35.0117C35.2331 32.6523 35.4167 32.6185 35.5625 32.5508C35.7083 32.4805 35.8177 32.3867 35.8906 32.2695C35.9661 32.1497 36.0039 32.0156 36.0039 31.8672C36.0039 31.7031 35.9688 31.5599 35.8984 31.4375C35.8281 31.3151 35.7174 31.2201 35.5664 31.1523C35.418 31.082 35.2266 31.0469 34.9922 31.0469H34.0547V35H33.3281V30.4492ZM36.1602 35L34.9883 32.9727L35.75 32.9688L36.9375 34.9609V35H36.1602ZM38.3438 30.4492V35H37.6211V30.4492H38.3438ZM41.2891 30.4492L39.2773 32.625L38.1523 33.7109L38.0117 32.9766L38.8516 32.0547L40.3984 30.4492H41.2891ZM40.5391 35L38.8086 32.8281L39.2891 32.3125L41.418 35H40.5391ZM45.0977 34.4062V35H42.5039V34.4062H45.0977ZM42.6797 30.4492V35H41.957V30.4492H42.6797ZM44.7578 32.3516V32.9414H42.5039V32.3516H44.7578ZM45.0742 30.4492V31.0469H42.5039V30.4492H45.0742ZM45.8516 30.4492H47.5156C47.7917 30.4492 48.0378 30.4805 48.2539 30.543C48.4701 30.6029 48.6523 30.6914 48.8008 30.8086C48.9492 30.9258 49.0612 31.0703 49.1367 31.2422C49.2148 31.4141 49.2539 31.612 49.2539 31.8359C49.2539 32.0599 49.2083 32.2591 49.1172 32.4336C49.0286 32.6055 48.8997 32.7513 48.7305 32.8711C48.5638 32.9883 48.3646 33.0781 48.1328 33.1406L47.918 33.2461H46.3789L46.3711 32.6523H47.5352C47.7565 32.6523 47.9401 32.6185 48.0859 32.5508C48.2318 32.4805 48.3411 32.3867 48.4141 32.2695C48.4896 32.1497 48.5273 32.0156 48.5273 31.8672C48.5273 31.7031 48.4922 31.5599 48.4219 31.4375C48.3516 31.3151 48.2409 31.2201 48.0898 31.1523C47.9414 31.082 47.75 31.0469 47.5156 31.0469H46.5781V35H45.8516V30.4492ZM48.6836 35L47.5117 32.9727L48.2734 32.9688L49.4609 34.9609V35H48.6836Z" fill="black"/>
<defs>
<linearGradient id="paint0_linear_233_10" x1="26.1484" y1="31.679" x2="25.7305" y2="-22.0853" gradientUnits="userSpaceOnUse">
<stop stop-color="white"/>
<stop offset="1" stop-color="#EEEEEE"/>
</linearGradient>
</defs>
</svg>
